SplineFontDB: 3.0
FontName: CMUSerif-RomanSlanted
FullName: CMU Serif Roman Slanted
FamilyName: CMU Serif Extra
Weight: Medium
Copyright: Converted by Andrey V. Panov from TeX fonts. Some glyphs are copied from Blue Sky fonts released by AMS.
UComments: "2009-6-18: Created." 
Version: 0.7.0
ItalicAngle: -9.46
UnderlinePosition: -100
UnderlineWidth: 50
Ascent: 800
Descent: 200
LayerCount: 2
Layer: 0 0 "+BBcEMAQ0BD0EOAQ5 +BD8EOwQwBD0A"  1
Layer: 1 0 "+BB8ENQRABDUENAQ9BDgEOQAA +BD8EOwQwBD0A"  0
NeedsXUIDChange: 1
XUID: [1067 1374434]
FSType: 0
OS2Version: 0
OS2_WeightWidthSlopeOnly: 0
OS2_UseTypoMetrics: 1
CreationTime: 1245311624
ModificationTime: 1245312279
PfmFamily: 17
TTFWeight: 500
TTFWidth: 5
LineGap: 200
VLineGap: 90
OS2TypoAscent: 0
OS2TypoAOffset: 1
OS2TypoDescent: 0
OS2TypoDOffset: 1
OS2TypoLinegap: 200
OS2WinAscent: 935
OS2WinAOffset: 0
OS2WinDescent: 250
OS2WinDOffset: 0
HheadAscent: 935
HheadAOffset: 0
HheadDescent: -250
HheadDOffset: 0
Lookup: 1 0 0 "Case substitutions"  {"Case substitutions subtable"  } ['case' ('cyrl' <'dflt' > 'grek' <'dflt' > 'latn' <'dflt' > ) ]
Lookup: 1 0 0 "LC small to smallcaps"  {"LC small to smallcaps subtable"  } ['smcp' ('latn' <'dflt' > 'cyrl' <'dflt' > ) ]
Lookup: 1 0 0 "LC caps to smallcaps"  {"LC caps to smallcaps subtable"  } ['c2sc' ('latn' <'dflt' > 'cyrl' <'dflt' > ) ]
Lookup: 3 0 0 "Greek alternatives"  {"Greek alternatives subtable"  } ['salt' ('grek' <'dflt' > ) ]
Lookup: 1 0 0 "Greek substitutions"  {"Greek substitutions subtable"  } ['locl' ('grek' <'dflt' > ) ]
Lookup: 4 0 1 "Latin Dutch ligatures"  {"Latin Dutch ligatures subtable"  } ['liga' ('latn' <'NLD ' > ) ]
Lookup: 4 0 1 "Latin ligatures excepting Turkic"  {"Latin ligatures excepting Turkic subtable"  } ['liga' ('latn' <'dflt' 'NLD ' 'VIT ' > ) ]
Lookup: 4 0 1 "Latin ligatures"  {"Latin ligatures subtable"  } ['liga' ('latn' <'dflt' 'NLD ' 'VIT ' 'TRK ' 'AZE ' > ) ]

StartChar: .notdef
Encoding: 0 0 0
Width: 760
Flags: HW
HStem: 10 60<105 655> 705 60<105 655>
VStem: 10 60<112 663> 690 60<112 663>
DStem2: 105 705 70 663 0.702289 -0.711892<5.31938 389.612 448.699 832.991> 70 112 105 70 0.702289 0.711892<0 384.292 443.379 827.672>
LayerCount: 2
Fore
SplineSet
10 10 m 1
 10 765 l 1
 750 765 l 1
 750 10 l 1
 10 10 l 1
70 112 m 1
 346 388 l 1
 70 663 l 1
 70 112 l 1
105 70 m 1
 655 70 l 1
 380 346 l 1
 105 70 l 1
105 705 m 1
 380 429 l 1
 655 705 l 1
 105 705 l 1
414 388 m 1
 690 112 l 1
 690 663 l 1
 414 388 l 1
EndSplineSet
EndChar

StartChar: uni262D
Encoding: 9773 9773 1
Width: 700
Flags: HW
TeX: 117 0
HStem: -1 21G<56 93 593.5 601> 39 76<321.786 462.78> 102 51<140.549 177.987>
VStem: 129 54<101.776 137.734> 556 82<197.341 366.709>
DStem2: 123 357 178 301 0.707107 0.707107<0 86.9741 130.108 182.434>
LayerCount: 2
Fore
SplineSet
40 18 m 0
 40 64 129 102 129 128 c 0
 129 148 134 153 148 153 c 0xb8
 162 153 164 157 182 180 c 1
 229 156 307 115 390 115 c 0
 438 115 463 128 463 129 c 0
 463 135 406 186 240 363 c 1
 178 301 l 1
 123 357 l 1
 252 486 l 1
 347 470 l 1
 271 393 l 1
 484 190 l 1
 513 165 l 1
 519 165 556 218 556 295 c 0
 556 473 346 588 346 593 c 1
 394 593 638 478 638 267 c 0
 638 167 592 118 580 100 c 1
 636 44 637 42 637 38 c 0xd8
 637 17 605 -1 597 -1 c 2
 596 -1 l 2
 591 -1 590 1 529 62 c 1
 500 51 474 39 428 39 c 0xd8
 297 39 201 138 188 138 c 0
 183 138 182 134 182 130 c 0
 182 126 183 123 183 118 c 0
 183 108 178 102 168 102 c 0
 131 102 122 0 64 -0 c 0
 48 0 40 7 40 18 c 0
EndSplineSet
EndChar

StartChar: circumflex.cap
Encoding: 65536 -1 2
Width: 500
Flags: HW
HStem: 744 158
VStem: 243 267
AnchorPoint: "above" 367 705 mark 0
LayerCount: 2
Back
SplineSet
243 762 m 1
 400 902 l 1
 510 762 l 1
 510 761 l 1
 490 744 l 1
 489 744 l 1
 392 849 l 1
 258 744 l 1
 257 744 l 1
 243 762 l 1
EndSplineSet
Fore
SplineSet
243 762 m 1
 400 902 l 1
 510 762 l 1
 489 744 l 1
 392 849 l 1
 258 743 l 1
 243 762 l 1
EndSplineSet
EndChar

StartChar: dieresis.cap
Encoding: 65537 -1 3
Width: 500
Flags: HW
HStem: 761 105<250.383 327.194 444.419 521.194>
VStem: 236 106<776.415 851.159> 430 106<776.532 851.159>
AnchorPoint: "above" 368 705 mark 0
LayerCount: 2
Fore
SplineSet
236 807 m 0
 236 842 268 866 296 866 c 0
 320 866 342 848 342 820 c 0
 342 785 309 761 282 761 c 0
 254 761 236 783 236 807 c 0
430 806 m 0
 430 842 462 866 490 866 c 0
 514 866 536 848 536 820 c 0
 536 788 506 761 476 761 c 0
 451 761 430 780 430 806 c 0
EndSplineSet
EndChar

StartChar: caron.cap
Encoding: 65539 -1 5
Width: 500
Flags: HW
HStem: 765 145
VStem: 246 306
AnchorPoint: "above" 367 705 mark 0
LayerCount: 2
Back
SplineSet
246 891 m 1
 260 907 l 1
 353 847 l 2
 367 838 383 828 388 828 c 0
 393 828 413 838 429 847 c 2
 542 907 l 1
 550 891 l 1
 429 800 l 2
 404 781 383 766 378 766 c 0
 373 766 356 781 337 800 c 2
 246 891 l 1
EndSplineSet
Fore
SplineSet
246 895 m 1
 261 910 l 1
 387 828 l 1
 543 910 l 1
 552 894 l 1
 377 765 l 1
 246 895 l 1
EndSplineSet
EndChar

StartChar: ring.cap
Encoding: 65540 -1 6
Width: 500
Flags: HW
HStem: 730 23<334.159 419.149> 891 22<355.478 439.415>
VStem: 290 25<770.501 852.801> 459 25<791.105 874.344>
AnchorPoint: "above" 368 705 mark 0
LayerCount: 2
Fore
SplineSet
290 808 m 0
 290 860 341 913 402 913 c 0
 447 913 484 882 484 836 c 0
 484 785 435 730 372 730 c 0
 327 730 290 761 290 808 c 0
315 805 m 0
 315 770 339 753 375 753 c 0
 445 753 459 808 459 839 c 0
 459 880 427 891 400 891 c 0
 329 891 315 835 315 805 c 0
EndSplineSet
EndChar

StartChar: breve.cap
Encoding: 65541 -1 7
Width: 500
Flags: HW
HStem: 753 38<310.487 453.672>
VStem: 246 24<838.188 891> 525 23<864.49 891>
AnchorPoint: "above" 367 705 mark 0
LayerCount: 2
Fore
SplineSet
246 869 m 0
 246 877 247 884 248 891 c 1
 270 891 l 1
 270 877 l 2
 270 826 320 791 381 791 c 0
 429 791 506 815 525 891 c 1
 548 891 l 1
 526 791 436 753 375 753 c 0
 303 753 246 799 246 869 c 0
EndSplineSet
EndChar

StartChar: grave
Encoding: 96 96 8
Width: 500
Flags: HW
TeX: 641 0
HStem: 490 152
VStem: 201 169
LayerCount: 2
Fore
SplineSet
201 600 m 0
 201 623 223 642 242 642 c 0
 261 642 262 636 370 510 c 1
 352 490 l 1
 339 497 327 505 228 567 c 0
 219 573 201 582 201 600 c 0
EndSplineSet
EndChar

StartChar: acute
Encoding: 180 180 9
Width: 500
Flags: HW
TeX: 641 0
ItalicCorrection: 23
HStem: 490 152
VStem: 299 202
LayerCount: 2
Fore
SplineSet
299 510 m 1
 458 643 452 642 470 642 c 0
 489 642 501 626 501 611 c 0
 501 582 469 571 455 564 c 0
 340 504 326 497 311 490 c 1
 299 510 l 1
EndSplineSet
EndChar

StartChar: circumflex
Encoding: 710 710 10
Width: 500
Flags: HW
TeX: 641 0
HStem: 482 168
VStem: 199 268
LayerCount: 2
Fore
SplineSet
199 500 m 1
 358 650 l 1
 467 500 l 1
 446 482 l 1
 349 596 l 1
 214 482 l 1
 199 500 l 1
EndSplineSet
EndChar

StartChar: tilde
Encoding: 732 732 11
Width: 500
Flags: HW
TeX: 641 0
ItalicCorrection: 50
HStem: 574 46<365 460.463> 621 46<244.215 340.786>
LayerCount: 2
Fore
SplineSet
181 589 m 1
 207 613 252 667 302 667 c 0
 348 667 375 620 422 620 c 0
 457 620 487 647 510 668 c 1
 511 668 l 1
 525 653 l 1
 500 629 451 574 403 574 c 0
 358 574 331 621 284 621 c 0
 249 621 219 594 196 574 c 1
 181 589 l 1
EndSplineSet
EndChar

StartChar: dieresis
Encoding: 168 168 12
Width: 500
Flags: HW
TeX: 663 0
ItalicCorrection: 37
HStem: 554 105<215.841 292.308 409.677 486.194>
VStem: 201 106<569.052 644.369> 395 106<569.182 644.562>
LayerCount: 2
Fore
SplineSet
395 600 m 0
 395 630 422 659 455 659 c 0
 479 659 501 640 501 613 c 0
 501 580 471 554 441 554 c 0
 416 554 395 573 395 600 c 0
EndSplineSet
Refer: 18 729 S 1 0 0 1 -1 -9 2
EndChar

StartChar: ring
Encoding: 730 730 14
Width: 796
Flags: HW
TeX: 641 0
HStem: 500 22<440.036 528.85> 638 23<456.589 548.746>
VStem: 397 25<536.824 608.859> 565 25<551.583 623.381>
LayerCount: 2
Fore
SplineSet
397 570 m 0
 397 615 445 661 507 661 c 0
 553 661 590 633 590 591 c 0
 590 540 534 500 480 500 c 0
 434 500 397 528 397 570 c 0
422 569 m 0
 422 532 452 522 482 522 c 0
 556 522 565 571 565 592 c 0
 565 620 548 638 504 638 c 0
 432 638 422 590 422 569 c 0
EndSplineSet
EndChar

StartChar: caron
Encoding: 711 711 15
Width: 500
Flags: HW
TeX: 641 0
HStem: 483 163
VStem: 201 306
LayerCount: 2
Fore
SplineSet
201 630 m 1
 201 631 l 1
 216 646 l 1
 341 552 l 1
 342 552 l 1
 497 646 l 1
 507 630 l 1
 330 483 l 1
 201 630 l 1
EndSplineSet
EndChar

StartChar: breve
Encoding: 728 728 16
Width: 500
Flags: HW
TeX: 641 0
ItalicCorrection: 34
HStem: 503 38<267.184 411.714>
VStem: 204 24<588.029 639> 484 22<611.05 639>
LayerCount: 2
Fore
SplineSet
204 619 m 0
 204 626 205 632 206 639 c 1
 229 639 l 1
 229 635 228 630 228 626 c 0
 228 575 276 541 340 541 c 0
 388 541 466 565 484 639 c 1
 506 639 l 1
 488 549 403 503 334 503 c 0
 262 503 204 549 204 619 c 0
EndSplineSet
EndChar

StartChar: macron
Encoding: 175 175 17
Width: 500
Flags: HW
TeX: 663 0
ItalicCorrection: 68
HStem: 649 32<182 537>
LayerCount: 2
Fore
SplineSet
177 649 m 1
 182 681 l 1
 543 681 l 1
 537 649 l 1
 177 649 l 1
EndSplineSet
EndChar

StartChar: dotaccent
Encoding: 729 729 18
Width: 278
Flags: HW
TeX: 663 0
ItalicCorrection: 52
HStem: 563 105<216.841 293.308>
VStem: 202 106<578.052 653.369>
LayerCount: 2
Fore
SplineSet
202 609 m 0
 202 638 228 668 261 668 c 0
 285 668 308 649 308 622 c 0
 308 586 275 563 248 563 c 0
 220 563 202 585 202 609 c 0
EndSplineSet
EndChar

StartChar: cedilla
Encoding: 184 184 19
Width: 444
Flags: HW
TeX: 0 170
HStem: -204 23<74 198.08> -71 71<187 238.073>
VStem: 249 71<-156.912 -83.9666>
LayerCount: 2
Fore
SplineSet
70 -204 m 1
 74 -181 l 1
 93 -181 l 2
 148 -181 249 -179 249 -118 c 0
 249 -102 237 -74 175 -71 c 1
 187 0 l 1
 257 0 l 1
 248 -54 l 1
 261 -57 320 -66 320 -116 c 0
 320 -186 231 -204 82 -204 c 2
 70 -204 l 1
EndSplineSet
EndChar

StartChar: ogonek
Encoding: 731 731 20
Width: 278
Flags: HW
TeX: 0 194
HStem: -198 44<67.3782 142.001>
VStem: -9 74<-149.703 -86.8134>
LayerCount: 2
Fore
SplineSet
-9 -136 m 0
 -7 -54 122 -34 187 18 c 1
 195 -0 l 1
 154 -34 65 -79 65 -124 c 0
 65 -141 85 -154 106 -154 c 0
 144 -154 172 -124 190 -102 c 1
 192 -102 l 1
 207 -115 l 1
 174 -160 125 -198 70 -198 c 0
 29 -198 -9 -173 -9 -136 c 0
EndSplineSet
EndChar

StartChar: guilsinglleft
Encoding: 8249 8249 22
Width: 444
Flags: HW
TeX: 483 0
ItalicCorrection: 24
VStem: 154 255
LayerCount: 2
Fore
SplineSet
154 242 m 0
 154 261 261 293 383 466 c 0
 389 475 393 481 400 481 c 0
 405 481 409 477 409 472 c 0
 409 455 325 321 225 241 c 1
 325 115 333 14 333 14 c 1
 333 7 329 2 323 2 c 0
 314 2 310 13 307 22 c 0
 252 178 154 223 154 242 c 0
EndSplineSet
EndChar

StartChar: guilsinglright
Encoding: 8250 8250 23
Width: 444
Flags: HW
TeX: 483 0
ItalicCorrection: 24
VStem: 114 256
LayerCount: 2
Fore
SplineSet
114 11 m 0
 114 27 194 158 298 242 c 1
 201 361 191 468 191 468 c 1
 191 475 194 481 201 481 c 0
 210 481 213 470 216 461 c 0
 273 302 370 261 370 242 c 0
 370 222 267 196 141 17 c 0
 135 8 130 2 123 2 c 0
 118 2 114 6 114 11 c 0
EndSplineSet
EndChar

StartChar: quotedblbase
Encoding: 8222 8222 26
Width: 333
Flags: HW
TeX: 105 194
HStem: 0 106<31.0036 107.038 242.041 318.437>
VStem: 17 115<20.1544 91.6086> 228 114<20.1544 91.6086>
LayerCount: 2
Fore
SplineSet
-5 -183 m 0
 -5 -167 94 -111 108 20 c 1
 96 10 84 0 64 0 c 0
 36 0 17 20 17 46 c 0
 17 77 42 106 77 106 c 0
 116 106 132 69 132 31 c 0
 132 -85 26 -192 6 -192 c 2
 4 -192 l 2
 1 -192 -5 -188 -5 -183 c 0
206 -183 m 0
 206 -164 305 -114 319 20 c 1
 307 10 294 0 274 0 c 0
 246 0 228 20 228 46 c 0
 228 77 253 106 288 106 c 0
 327 106 342 69 342 31 c 0
 342 -85 236 -192 216 -192 c 2
 214 -192 l 2
 210 -192 206 -188 206 -183 c 0
EndSplineSet
EndChar

StartChar: endash
Encoding: 8211 8211 29
Width: 500
Flags: HW
TeX: 430 0
ItalicCorrection: 72
HStem: 255 22<46 542 43 545>
VStem: 43 502<255 277>
LayerCount: 2
Fore
SplineSet
43 255 m 1
 46 277 l 1
 545 277 l 1
 542 255 l 1
 43 255 l 1
EndSplineSet
EndChar

StartChar: emdash
Encoding: 8212 8212 30
Width: 1000
Flags: HW
TeX: 430 0
ItalicCorrection: 72
HStem: 255 22<46 1042 43 1045>
VStem: 43 1002<255 277>
LayerCount: 2
Fore
SplineSet
43 255 m 1
 46 277 l 1
 1045 277 l 1
 1042 255 l 1
 43 255 l 1
EndSplineSet
Substitution2: "Cyrillic substitutions subtable" emdash.cyr
AlternateSubs2: "Cyrillic alternatives subtable" emdash.cyr
EndChar

StartChar: dotlessi
Encoding: 305 305 32
Width: 277
Flags: HW
TeX: 430 0
HStem: 0 31 400 42
AnchorPoint: "below" 144 0 basechar 0
AnchorPoint: "above" 218 448 basechar 0
LayerCount: 2
Fore
SplineSet
33 0 m 1
 35 10 36 21 38 31 c 1
 90 31 113 31 120 59 c 0
 121 61 127 95 130 113 c 0
 135 143 171 359 171 368 c 0
 171 395 158 400 104 400 c 1
 105 406 106 413 110 431 c 1
 251 442 l 1
 187 55 l 1
 187 31 207 31 252 31 c 1
 251 22 248 8 247 0 c 1
 213 1 178 3 143 3 c 0
 119 3 65 1 33 0 c 1
EndSplineSet
Substitution2: "LC small to smallcaps subtable" I.sc
EndChar

StartChar: dotlessj
Encoding: 567 567 33
Width: 305
Flags: HW
TeX: 430 194
HStem: -205 22<36.5 68.5 36.5 79> -170 91 400 42
VStem: -62 94<-126 -120>
AnchorPoint: "below" 76 -194 basechar 0
AnchorPoint: "above" 251 448 basechar 0
LayerCount: 2
Fore
SplineSet
-62 -134 m 0
 -62 -106 -42 -79 -9 -79 c 0
 19 -79 32 -99 32 -118 c 0
 32 -134 23 -164 -13 -170 c 1
 10 -183 34 -183 39 -183 c 0
 98 -183 125 -110 135 -51 c 2
 201 342 l 2
 202 350 204 359 204 367 c 0
 204 396 185 400 125 400 c 1
 125 402 129 428 132 430 c 0
 133 431 149 432 150 432 c 2
 284 442 l 1
 202 -51 l 2
 187 -139 117 -205 41 -205 c 0
 -17 -205 -62 -177 -62 -134 c 0
EndSplineSet
Substitution2: "LC small to smallcaps subtable" J.sc
EndChar

StartChar: ff
Encoding: 64256 64256 34
Width: 583
Flags: HW
TeX: 688 0
ItalicCorrection: 193
HStem: -0 31<32 106.778 185.321 250 310 384.779 464.049 547> 400 30<99 171 241 449 519 631> 682 23<374.605 491.413 615.391 683.671>
VStem: 647 88<598.925 667.875>
DStem2: 104.67 -0 172.503 -0 0.164359 0.986401<70.363 405.462 446.559 630.408> 382.67 -0 449.503 -0 0.164359 0.986401<72.2895 405.462 446.559 588.438>
LayerCount: 2
Fore
SplineSet
27 -0 m 1
 32 31 l 1
 37 31 l 2
 106 31 111 40 118 80 c 2
 171 400 l 1
 94 400 l 1
 99 430 l 1
 177 430 l 1
 180 449 195 550 200 567 c 0
 222 638 316 705 433 705 c 0
 498 705 522 685 541 663 c 1
 568 685 609 705 654 705 c 0
 699 705 735 680 735 642 c 0
 735 613 713 590 685 590 c 0
 664 590 647 606 647 628 c 0
 647 658 669 670 684 676 c 1
 674 679 664 682 653 682 c 0
 609 682 560 634 543 567 c 0
 536 540 534 512 519 430 c 1
 636 430 l 1
 631 400 l 1
 517 400 l 1
 462 75 l 2
 461 70 461 65 461 60 c 0
 461 35 481 31 538 31 c 2
 552 31 l 1
 547 -0 l 1
 504 2 461 3 418 3 c 0
 373 3 339 2 305 -0 c 1
 310 31 l 1
 315 31 l 2
 384 31 389 40 396 80 c 2
 449 400 l 1
 239 400 l 1
 185 75 l 2
 184 70 183 64 183 58 c 0
 183 36 198 31 244 31 c 2
 255 31 l 1
 250 -0 l 1
 214 2 177 3 140 3 c 0
 102 3 65 2 27 -0 c 1
241 430 m 1
 454 430 l 1
 476 561 l 1
 482 580 l 1
 476 584 461 594 461 614 c 0
 461 630 469 653 505 664 c 1
 499 667 477 682 434 682 c 0
 357 682 283 630 264 560 c 0
 261 547 258 534 241 430 c 1
EndSplineSet
Substitution2: "LC small to smallcaps subtable" FF.sc
Ligature2: "Latin ligatures subtable" f f
EndChar

StartChar: fi
Encoding: 64257 64257 35
Width: 555
Flags: HW
TeX: 688 0
ItalicCorrection: 39
HStem: -0 31<32 106.778 185.321 250 310 384.963 462.412 527> 400 30<99 171 241 377> 423 20G<377 520.5> 558 92<466.993 513> 682 23<373.354 485.181>
VStem: 457 93<569 638.525>
DStem2: 104.67 -0 172.503 -0 0.164359 0.986401<70.363 405.462 446.559 630.244>
LayerCount: 2
Fore
SplineSet
27 -0 m 1
 32 31 l 1
 37 31 l 2
 106 31 111 40 118 80 c 2
 171 400 l 1
 94 400 l 1
 99 430 l 1
 177 430 l 1
 180 449 195 550 200 567 c 0
 223 645 325 705 435 705 c 0
 504 705 550 666 550 616 c 0
 550 582 526 558 497 558 c 0
 475 558 457 574 457 598 c 0
 457 614 467 649 513 650 c 1
 502 661 481 682 433 682 c 0
 361 682 283 633 264 560 c 0
 260 544 249 473 241 430 c 1
 377 430 l 1xdc
 377 432 l 1
 523 443 l 1
 518 407 512 371 506 335 c 2
 463 79 l 2
 462 73 460 65 460 58 c 0
 460 36 476 31 519 31 c 2
 532 31 l 1
 527 -0 l 1
 491 2 455 3 418 3 c 0
 380 3 343 2 305 -0 c 1
 310 31 l 1
 315 31 l 2
 382 31 388 38 395 76 c 0
 431 292 442 351 442 372 c 0xbc
 442 396 417 400 397 400 c 2
 239 400 l 1
 185 75 l 2
 184 70 183 64 183 58 c 0
 183 36 198 31 244 31 c 2
 255 31 l 1
 250 -0 l 1
 214 2 177 3 140 3 c 0
 102 3 65 2 27 -0 c 1
EndSplineSet
Substitution2: "LC small to smallcaps subtable" FI.sc
Ligature2: "Latin ligatures excepting Turkic subtable" f i
EndChar

StartChar: fl
Encoding: 64258 64258 36
Width: 555
Flags: HW
TeX: 688 0
ItalicCorrection: 39
HStem: -0 31<32 106.778 185.321 250 310 384.779 462.115 527> 400 30<99 171 241 449> 674 20G<552.5 563.5> 682 23<370.559 494.085>
DStem2: 104.67 -0 172.503 -0 0.164359 0.986401<70.363 405.462 446.559 632.313> 382.67 -0 450.336 -0 0.164359 0.986401<70.1988 405.462 435.876 624.895>
LayerCount: 2
Fore
SplineSet
27 -0 m 1
 32 31 l 1
 37 31 l 2
 106 31 111 40 118 80 c 2
 171 400 l 1
 94 400 l 1
 99 430 l 1
 177 430 l 1
 197 574 204 607 265 652 c 0
 320 692 384 705 436 705 c 0xd0
 506 705 505 689 530 689 c 0
 537 689 540 690 565 694 c 1xe0
 562 671 558 649 554 626 c 2
 463 76 l 2
 462 70 460 64 460 58 c 0
 460 35 476 31 524 31 c 2
 532 31 l 1
 527 -0 l 1
 491 2 455 3 418 3 c 0
 380 3 343 2 305 -0 c 1
 310 31 l 1
 315 31 l 2
 384 31 389 40 396 80 c 2
 449 400 l 1
 239 400 l 1
 185 75 l 2
 184 70 183 64 183 58 c 0
 183 36 198 31 244 31 c 2
 255 31 l 1
 250 -0 l 1
 214 2 177 3 140 3 c 0
 102 3 65 2 27 -0 c 1
241 430 m 1
 454 430 l 1
 482 595 l 1
 469 606 463 615 463 628 c 0xd0
 463 656 486 670 495 675 c 1
 478 680 459 682 435 682 c 0
 337 682 287 615 272 584 c 0
 261 560 256 522 241 430 c 1
EndSplineSet
Substitution2: "LC small to smallcaps subtable" FL.sc
Ligature2: "Latin ligatures subtable" f l
EndChar

StartChar: ffi
Encoding: 64259 64259 37
Width: 833
Flags: HW
TeX: 688 0
ItalicCorrection: 39
HStem: -0 31<32 106.778 185.321 250 310 384.779 462.443 527 587 662.668 740.412 805> 400 30<99 171 241 449 519 654> 423 20G<654 798.5> 558 92<744.47 791> 682 23<372.761 483.032 650.165 763.215>
VStem: 734 94<569 639.069>
DStem2: 104.67 -0 172.503 -0 0.164359 0.986401<70.363 405.462 446.559 630.331> 382.67 -0 449.503 -0 0.164359 0.986401<70.1987 405.462 446.559 585.409>
LayerCount: 2
Fore
SplineSet
27 -0 m 1
 32 31 l 1
 37 31 l 2
 106 31 111 40 118 80 c 2
 171 400 l 1
 94 400 l 1
 99 430 l 1
 177 430 l 1
 181 458 197 556 201 569 c 0
 225 645 327 705 432 705 c 0
 496 705 525 677 540 650 c 1
 565 666 622 705 711 705 c 0
 784 705 828 666 828 617 c 0
 828 574 796 558 775 558 c 0
 753 558 734 574 734 598 c 0
 734 614 745 649 791 650 c 1
 780 661 759 682 711 682 c 0
 639 682 560 633 541 560 c 0
 537 544 527 473 519 430 c 1
 654 430 l 1xdc
 654 432 l 1
 801 443 l 1xbc
 796 407 789 371 783 335 c 2
 741 79 l 2
 740 73 738 65 738 58 c 0
 738 36 754 31 797 31 c 2
 810 31 l 1
 805 -0 l 1
 769 2 732 3 695 3 c 0
 657 3 620 2 582 -0 c 1
 587 31 l 1
 592 31 l 2
 659 31 666 38 673 76 c 0
 709 292 720 351 720 372 c 0
 720 396 694 400 674 400 c 2
 517 400 l 1
 462 75 l 2
 461 70 460 64 460 58 c 0
 460 36 476 31 522 31 c 2
 532 31 l 1
 527 -0 l 1
 491 2 455 3 418 3 c 0
 380 3 343 2 305 -0 c 1
 310 31 l 1
 315 31 l 2
 384 31 389 40 396 80 c 2
 449 400 l 1
 239 400 l 1
 185 75 l 2
 184 70 183 64 183 58 c 0
 183 36 198 31 244 31 c 2
 255 31 l 1
 250 -0 l 1
 214 2 177 3 140 3 c 0
 102 3 65 2 27 -0 c 1
241 430 m 1
 454 430 l 1
 476 561 l 1
 470 565 454 575 454 597 c 0xdc
 454 610 463 648 511 650 c 1
 500 661 479 682 431 682 c 0
 354 682 283 629 264 561 c 0
 261 548 259 535 241 430 c 1
EndSplineSet
Substitution2: "LC small to smallcaps subtable" FFI.sc
Ligature2: "Latin ligatures excepting Turkic subtable" ff i
Ligature2: "Latin ligatures excepting Turkic subtable" f f i
EndChar

StartChar: ffl
Encoding: 64260 64260 38
Width: 833
Flags: HW
TeX: 688 0
ItalicCorrection: 39
HStem: -0 31<32 106.778 185.321 250 310 384.779 462.443 527 587 661.779 740.115 805> 400 30<99 171 241 449 519 727> 674 20G<830.5 841.5> 682 23<372.091 492.439 646.916 771.509>
DStem2: 104.67 -0 172.503 -0 0.164359 0.986401<70.363 405.462 446.559 631.776> 382.67 -0 449.503 -0 0.164359 0.986401<70.1987 405.462 446.559 588.438> 659.67 -0 727.336 -0 0.164359 0.986401<70.363 405.627 436.04 628.231>
LayerCount: 2
Fore
SplineSet
27 -0 m 1
 32 31 l 1
 37 31 l 2
 106 31 111 40 118 80 c 2
 171 400 l 1
 94 400 l 1
 99 430 l 1
 177 430 l 1
 181 458 197 556 201 569 c 0
 228 654 335 705 434 705 c 0
 490 705 525 688 545 654 c 1
 573 673 630 705 714 705 c 0xd0
 786 705 784 689 808 689 c 0
 815 689 818 690 843 694 c 1xe0
 840 671 836 649 832 626 c 2
 740 76 l 2
 739 70 738 64 738 58 c 0
 738 35 754 31 802 31 c 2
 810 31 l 1
 805 -0 l 1
 769 2 732 3 695 3 c 0
 657 3 620 2 582 -0 c 1
 587 31 l 1
 592 31 l 2
 661 31 666 40 673 80 c 2
 727 400 l 1
 517 400 l 1
 462 75 l 2
 461 70 460 64 460 58 c 0
 460 36 476 31 522 31 c 2
 532 31 l 1
 527 -0 l 1
 491 2 455 3 418 3 c 0
 380 3 343 2 305 -0 c 1
 310 31 l 1
 315 31 l 2
 384 31 389 40 396 80 c 2
 449 400 l 1
 239 400 l 1
 185 75 l 2
 184 70 183 64 183 58 c 0
 183 36 198 31 244 31 c 2
 255 31 l 1
 250 -0 l 1
 214 2 177 3 140 3 c 0
 102 3 65 2 27 -0 c 1
241 430 m 1
 454 430 l 1
 476 559 l 1
 482 580 l 1
 476 584 461 593 461 614 c 0
 461 631 469 653 505 664 c 1
 499 668 476 682 432 682 c 0
 358 682 284 634 264 560 c 0
 261 547 258 534 241 430 c 1
519 430 m 1
 732 430 l 1
 759 595 l 1
 746 606 741 615 741 628 c 0xd0
 741 656 763 670 772 675 c 1
 755 680 736 682 712 682 c 0
 614 682 565 615 550 584 c 0
 539 560 534 522 519 430 c 1
EndSplineSet
Substitution2: "LC small to smallcaps subtable" FFL.sc
Ligature2: "Latin ligatures subtable" ff l
Ligature2: "Latin ligatures subtable" f f l
EndChar

StartChar: uni2423
Encoding: 9251 9251 39
Width: 500
Flags: HW
TeX: 430 97
ItalicCorrection: 26
HStem: -97 71<102.734 386>
VStem: 53 25<27.4444 71>
LayerCount: 2
Fore
SplineSet
53 71 m 1
 78 71 l 1
 91 -7 101 -26 178 -26 c 2
 308 -26 l 2
 385 -26 400 -13 443 71 c 1
 469 71 l 1
 386 -97 l 1
 80 -97 l 1
 53 71 l 1
EndSplineSet
EndChar

StartChar: exclam
Encoding: 33 33 40
Width: 278
Flags: HW
TeX: 688 0
ItalicCorrection: 57
HStem: 0 105<109.308 186.323> 696 20G<249 268.5>
VStem: 95 106<14.4377 90.7526> 160 28<188.429 237.625> 195 108<582.938 700.902>
LayerCount: 2
Fore
SplineSet
95 46 m 0
 95 79 124 105 154 105 c 0
 182 105 201 83 201 59 c 0xe0
 201 29 174 0 141 0 c 0
 117 0 95 19 95 46 c 0
160 205 m 2xd8
 160 216 l 1
 195 651 l 2
 200 710 242 716 256 716 c 0
 281 716 303 699 303 673 c 0
 303 666 302 659 300 652 c 2
 188 210 l 2
 186 201 183 189 172 188 c 0
 163 188 160 194 160 205 c 2xd8
EndSplineSet
EndChar

StartChar: quotedbl
Encoding: 34 34 41
Width: 500
Flags: HW
TeX: 688 0
ItalicCorrection: 22
HStem: 690 20G<271.5 294 443 462>
VStem: 230 93<590.799 699.84>
LayerCount: 2
Fore
SplineSet
212 347 m 1
 212 357 228 647 230 663 c 0
 235 695 260 710 283 710 c 2
 284 710 l 2
 304 710 323 698 323 674 c 0
 323 654 267 470 235 347 c 1
 212 347 l 1
379 347 m 1
 399 662 391 668 409 690 c 0
 419 703 435 710 451 710 c 2
 452 710 l 2
 472 710 490 698 490 674 c 0
 490 658 402 347 402 347 c 1
 379 347 l 1
EndSplineSet
EndChar

StartChar: numbersign
Encoding: 35 35 42
Width: 833
Flags: HW
TeX: 688 194
ItalicCorrection: 33
HStem: 141 23<82.0376 277 312 515 551 799.971> 336 23<115.035 363 399 602 637 831.962> 672 20G<524 532.5 763 771.5>
DStem2: 277 141 302 141 0.404702 0.914449<-339.838 0 35.1969 213.122 248.723 599.866> 379 -170 399 -179 0.404702 0.914449<-12.5922 339.433 375.035 552.96 588.156 939.703>
LayerCount: 2
Fore
SplineSet
82 153 m 0
 82 161 91 164 105 164 c 2
 288 164 l 1
 363 336 l 1
 138 336 l 2
 127 336 115 337 115 347 c 0
 115 358 128 359 139 359 c 2
 374 359 l 1
 505 656 l 2
 514 677 519 692 529 692 c 0
 536 692 538 688 538 682 c 0
 538 671 530 654 527 648 c 2
 399 359 l 1
 612 359 l 1
 744 656 l 2
 753 677 758 692 768 692 c 0
 775 692 777 688 777 682 c 0
 777 671 768 654 765 648 c 2
 637 359 l 1
 808 359 l 2
 819 359 832 357 832 347 c 0
 832 337 820 336 810 336 c 2
 627 336 l 1
 551 164 l 1
 776 164 l 2
 787 164 800 163 800 153 c 0
 800 143 790 141 776 141 c 2
 540 141 l 1
 399 -179 l 1
 392 -190 l 1
 388 -192 l 1
 384 -192 l 1
 379 -191 376 -188 375 -182 c 1
 379 -170 l 1
 515 141 l 1
 302 141 l 1
 161 -179 l 1
 153 -190 l 1
 150 -192 l 1
 145 -192 l 1
 140 -191 138 -188 137 -182 c 1
 140 -170 l 1
 277 141 l 1
 106 141 l 2
 95 141 82 143 82 153 c 0
312 164 m 1
 526 164 l 1
 602 336 l 1
 388 336 l 1
 312 164 l 1
EndSplineSet
EndChar

StartChar: dollar
Encoding: 36 36 43
Width: 500
Flags: HW
TeX: 749 55
ItalicCorrection: 79
HStem: -10 30<174.679 232 269 313.625> 138 90<108.579 168.889> 311 92<332 371.316> 480 90<448.164 507.719> 673 32<292.574 347 382 444.301>
VStem: 82 96<147.593 206.528> 138 58<457.94 570.284> 422 57<134.33 259.298> 439 95<490.652 560.719>
DStem2: 225 -55 256 -55 0.164359 0.986401<5.09513 45.5385 82.1982 376.144 471.496 738.151 775.469 816.077>
LayerCount: 2
Fore
SplineSet
82 144 m 0xfd
 82 182 89 197 96 207 c 0
 106 221 121 228 138 228 c 0xfa
 162 228 178 211 178 189 c 0xfc
 178 159 155 138 125 138 c 0
 119 138 114 139 108 140 c 1
 112 98 127 28 238 20 c 1
 287 319 l 1
 276 322 138 342 138 483 c 0
 138 577 216 692 352 705 c 1
 359 750 l 1
 390 750 l 1
 382 705 l 1
 512 694 534 611 534 559 c 0xfa80
 534 539 534 480 479 480 c 0xf9
 457 480 439 495 439 519 c 0xf880
 439 545 458 570 492 570 c 0
 497 570 502 570 508 569 c 1
 500 640 447 669 377 674 c 1
 332 403 l 1
 337 402 479 382 479 230 c 0xf9
 479 134 407 6 263 -10 c 1
 256 -55 l 1
 225 -55 l 1
 232 -10 l 1
 102 2 82 91 82 144 c 0xfd
196 521 m 0xfa
 196 425 300 411 303 410 c 1
 347 673 l 1
 247 659 196 582 196 521 c 0xfa
269 21 m 1
 360 33 422 114 422 191 c 0xf9
 422 294 322 310 317 311 c 1
 269 21 l 1
EndSplineSet
EndChar

StartChar: percent
Encoding: 37 37 44
Width: 833
Flags: HW
TeX: 749 55
ItalicCorrection: 69
HStem: -56 22<618 673.5 618 683> 325 44 619 22<547 577.5> 728 22<307 343.5 282 351>
VStem: 144 57<451.5 485.5 441 571.5> 404 25<540 610 537 634.5> 519 58<58 81 44 164> 780 25<137.5 230.5>
LayerCount: 2
Fore
SplineSet
133 -36 m 0
 133 -32 133 -28 144 -15 c 2
 701 650 l 1
 701 651 l 1
 637 619 587 619 568 619 c 0
 526 619 475 627 421 663 c 1
 427 642 429 621 429 599 c 0
 429 475 351 347 262 347 c 0
 206 347 144 398 144 505 c 0
 144 638 238 750 326 750 c 0
 361 750 380 733 396 715 c 0
 436 670 493 641 568 641 c 0
 677 641 747 704 771 733 c 0
 780 745 785 750 795 750 c 0
 805 750 815 741 815 730 c 0
 815 726 814 721 803 708 c 2
 175 -42 l 2
 164 -55 157 -56 153 -56 c 0
 142 -56 133 -47 133 -36 c 0
201 472 m 0
 201 410 227 369 264 369 c 0
 331 369 404 480 404 600 c 0
 404 669 375 728 327 728 c 0
 287 728 251 684 232 638 c 0
 211 585 201 499 201 472 c 0
519 101 m 0
 519 227 609 347 702 347 c 0
 772 347 805 269 805 196 c 0
 805 74 728 -56 638 -56 c 0
 567 -56 519 15 519 101 c 0
577 69 m 0
 577 19 596 -34 640 -34 c 0
 707 -34 780 78 780 197 c 0
 780 264 751 325 703 325 c 0
 662 325 625 280 606 231 c 1
 587 179 577 93 577 69 c 0
EndSplineSet
EndChar

StartChar: ampersand
Encoding: 38 38 45
Width: 777
Flags: HW
TeX: 688 0
ItalicCorrection: 49
HStem: -22 31<189.5 237 189.5 261 569 613.5> 400 31 694 22<407 436>
VStem: 62 86<113 126.5 113 136> 249 67<492.5 523> 462 25<600.5 640> 714 27
LayerCount: 2
Fore
SplineSet
62 108 m 0
 62 164 95 202 116 221 c 2
 263 354 l 1
 249 411 249 463 249 474 c 0
 249 572 269 610 283 633 c 0
 310 677 361 716 417 716 c 0
 473 716 487 663 487 621 c 0
 487 571 476 529 382 435 c 0
 370 424 340 396 328 384 c 1
 356 259 446 121 448 118 c 1
 500 165 591 287 630 340 c 0
 633 343 638 350 638 362 c 0
 638 400 578 401 574 401 c 1
 580 431 l 1
 610 429 696 428 702 428 c 0
 708 428 762 429 799 431 c 1
 797 421 796 410 794 400 c 1
 752 400 719 392 684 364 c 0
 651 338 580 217 462 96 c 1
 515 23 553 9 585 9 c 0
 642 9 705 54 716 121 c 1
 741 121 l 1
 725 34 650 -22 578 -22 c 0
 549 -22 484 -17 414 54 c 1
 369 17 301 -22 221 -22 c 0
 135 -22 62 28 62 108 c 0
148 120 m 0
 148 106 148 9 231 9 c 0
 243 9 316 9 397 75 c 1
 364 116 296 226 269 329 c 1
 250 313 206 276 188 251 c 0
 151 198 148 133 148 120 c 0
316 497 m 0
 316 488 316 456 323 409 c 1
 456 532 462 577 462 624 c 0
 462 656 454 694 418 694 c 0
 396 694 316 679 316 497 c 0
EndSplineSet
EndChar

StartChar: quoteright
Encoding: 8217 8217 46
Width: 278
Flags: HW
TeX: 688 0
ItalicCorrection: 57
HStem: 588 106<206.438 282.437>
VStem: 192 114<609.24 679.609>
LayerCount: 2
Fore
SplineSet
170 405 m 0
 170 423 267 472 283 608 c 1
 271 598 258 588 238 588 c 0
 211 588 192 607 192 634 c 0
 192 665 217 694 252 694 c 0
 291 694 306 657 306 620 c 0
 306 505 200 396 180 396 c 0
 170 396 170 403 170 405 c 0
EndSplineSet
EndChar

StartChar: parenleft
Encoding: 40 40 47
Width: 388
Flags: HW
TeX: 749 249
ItalicCorrection: 97
HStem: -250 21<274 284> 730 20<439 447>
VStem: 129 55<86 115.5 -8.5 230.5>
LayerCount: 2
Fore
SplineSet
129 119 m 0
 129 342 228 551 331 657 c 0
 386 713 434 750 444 750 c 0
 450 750 454 747 454 740 c 0
 454 736 453 735 441 724 c 0
 193 512 184 143 184 88 c 0
 184 -105 257 -195 281 -225 c 0
 291 -236 291 -238 291 -240 c 0
 291 -246 287 -250 281 -250 c 0
 267 -250 208 -187 175 -113 c 0
 139 -33 129 53 129 119 c 0
EndSplineSet
EndChar

StartChar: parenright
Encoding: 41 41 48
Width: 388
Flags: HW
TeX: 749 249
ItalicCorrection: 13
HStem: -250 21<24 34> 730 20<188 196.5>
VStem: 287 55<342 402.5 319 472>
LayerCount: 2
Fore
SplineSet
17 -240 m 0
 17 -237 18 -236 31 -223 c 1
 245 -45 287 273 287 411 c 0
 287 533 260 643 188 727 c 0
 181 735 180 737 180 740 c 0
 180 747 185 750 191 750 c 0
 202 750 270 687 308 585 c 0
 338 503 342 425 342 380 c 0
 342 258 307 18 128 -170 c 0
 106 -192 41 -250 27 -250 c 0
 21 -250 17 -247 17 -240 c 0
EndSplineSet
EndChar

StartChar: asterisk
Encoding: 42 42 49
Width: 500
Flags: HW
TeX: 749 0
ItalicCorrection: 83
HStem: 319 21<295 317.5> 730 20<359.5 383>
VStem: 138 401<431 638.5>
LayerCount: 2
Fore
SplineSet
138 437 m 0
 138 456 152 462 166 468 c 2
 317 535 l 1
 189 600 l 2
 177 606 169 611 169 623 c 0
 169 639 184 656 201 656 c 0
 207 656 210 656 223 645 c 2
 331 555 l 1
 342 712 l 2
 343 720 345 750 374 750 c 0
 392 750 398 737 398 728 c 0
 398 723 396 717 395 713 c 2
 353 555 l 1
 494 646 l 2
 508 656 510 656 516 656 c 0
 529 656 539 645 539 632 c 0
 539 613 524 606 512 601 c 2
 361 534 l 1
 488 469 l 2
 499 463 508 459 508 446 c 0
 508 428 490 413 476 413 c 0
 471 413 467 413 454 424 c 2
 347 514 l 1
 335 357 l 2
 334 347 332 319 303 319 c 0
 287 319 280 331 280 340 c 0
 280 346 281 351 282 355 c 2
 324 514 l 1
 183 423 l 2
 169 413 167 413 161 413 c 0
 147 413 138 425 138 437 c 0
EndSplineSet
EndChar

StartChar: plus
Encoding: 43 43 50
Width: 778
Flags: HW
TeX: 583 83
ItalicCorrection: 13
HStem: 239 22<99.0095 417 443 760.991>
VStem: 471 23<499.556 580.974>
DStem2: 363.335 -81 386.001 -81 0.164359 0.986401<15.6519 324.469 350.443 532.261>
LayerCount: 2
Fore
SplineSet
99 250 m 0
 99 260 112 262 123 262 c 0
 129 262 134 261 137 261 c 2
 421 261 l 1
 422 268 469 558 471 566 c 0
 472 572 476 581 483 581 c 0
 491 581 494 574 494 566 c 0
 494 562 443 261 443 261 c 1
 724 261 l 2
 727 261 733 262 738 262 c 0
 749 262 761 260 761 250 c 0
 761 240 748 238 737 238 c 0
 731 238 726 239 723 239 c 2
 440 239 l 1
 392 -45 l 2
 390 -54 390 -81 377 -81 c 0
 369 -81 366 -74 366 -66 c 0
 366 -57 369 -46 370 -41 c 2
 417 239 l 1
 137 239 l 2
 134 239 127 238 122 238 c 0
 111 238 99 240 99 250 c 0
EndSplineSet
EndChar

StartChar: comma
Encoding: 44 44 51
Width: 277
Flags: HW
TeX: 105 194
HStem: -193 21<79 89> 0 106<136 150.5>
VStem: 94 112<35.5 39 -28.5 59.5>
LayerCount: 2
Fore
SplineSet
71 -182 m 0
 71 -178 74 -175 77 -173 c 0
 124 -132 173 -72 183 17 c 1
 176 9 160 0 141 0 c 0
 106 0 94 26 94 45 c 0
 94 74 117 106 155 106 c 0
 206 106 206 45 206 33 c 0
 206 -90 96 -193 82 -193 c 0
 76 -193 71 -188 71 -182 c 0
EndSplineSet
EndChar

StartChar: hyphen
Encoding: 45 45 52
Width: 333
Flags: HW
TeX: 430 0
ItalicCorrection: 8
HStem: 186 59<51 307>
VStem: 41 276
LayerCount: 2
Fore
SplineSet
41 186 m 1
 51 245 l 1
 317 245 l 1
 307 186 l 1
 41 186 l 1
EndSplineSet
EndChar

StartChar: period
Encoding: 46 46 53
Width: 278
Flags: HW
TeX: 105 0
HStem: 0 105<109.416 186.323>
VStem: 95 106<15.125 90.3694>
LayerCount: 2
Fore
SplineSet
95 46 m 0
 95 75 121 105 154 105 c 0
 182 105 201 84 201 59 c 0
 201 30 174 0 141 0 c 0
 110 0 95 25 95 46 c 0
EndSplineSet
EndChar

StartChar: slash
Encoding: 47 47 54
Width: 500
Flags: HW
TeX: 749 249
ItalicCorrection: 97
DStem2: 25 -218 49 -221 0.476103 0.87939<-20.2675 1096.66>
LayerCount: 2
Fore
SplineSet
17 -237 m 0
 17 -231 22 -224 25 -218 c 2
 521 700 l 2
 546 745 548 748 556 748 c 0
 559 748 565 746 565 737 c 0
 565 731 561 726 559 721 c 2
 49 -221 l 2
 41 -235 36 -248 27 -248 c 0
 21 -248 17 -243 17 -237 c 0
EndSplineSet
EndChar

StartChar: zero
Encoding: 48 48 55
Width: 500
Flags: HW
TeX: 641 0
ItalicCorrection: 79
HStem: -22 22<233.5 264 233.5 286> 644 22<342.5 370.5>
VStem: 79 74<158.5 164.5 73 222.5> 455 72<482.5 495.5 439 575.5>
LayerCount: 2
Fore
SplineSet
79 190 m 0
 79 255 102 420 144 505 c 0
 164 545 224 666 360 666 c 0
 500 666 527 539 527 452 c 0
 527 426 517 259 463 140 c 0
 411 23 326 -22 246 -22 c 0
 93 -22 79 127 79 190 c 0
153 129 m 0
 153 17 217 0 250 0 c 0
 278 0 348 12 388 125 c 1
 414 202 455 446 455 519 c 0
 455 632 384 644 357 644 c 0
 328 644 264 631 225 541 c 0
 193 465 153 200 153 129 c 0
EndSplineSet
Substitution2: "LGC old numerals subtable" zerooldstyle
EndChar

StartChar: one
Encoding: 49 49 56
Width: 500
Flags: HW
TeX: 641 0
ItalicCorrection: 79
HStem: 0 31<95 131> 571 31<190 198> 646 20<382 388>
VStem: 95 329<0 31>
LayerCount: 2
Fore
SplineSet
95 0 m 1
 100 31 l 1
 131 31 l 2
 225 31 227 44 232 75 c 2
 319 597 l 1
 261 571 211 571 185 571 c 1
 187 581 188 592 190 602 c 1
 221 602 311 602 382 666 c 1
 394 666 403 666 403 653 c 0
 403 650 403 648 401 639 c 2
 308 84 l 2
 305 68 305 66 305 61 c 0
 305 39 316 31 394 31 c 2
 424 31 l 1
 423 22 420 8 419 0 c 1
 384 3 297 3 257 3 c 0
 217 3 130 3 95 0 c 1
EndSplineSet
Substitution2: "LGC old numerals subtable" oneoldstyle
EndChar

StartChar: two
Encoding: 50 50 57
Width: 500
Flags: HW
TeX: 641 0
ItalicCorrection: 79
HStem: 0 77<142 318 318 338 142 421> 429 105<187 191> 635 31<302.5 369.5>
VStem: 130 106<471.5 503.5 471.5 507> 440 90<474.5 545>
LayerCount: 2
Fore
SplineSet
50 0 m 1
 50 14 55 27 65 37 c 2
 279 237 l 2
 407 357 440 438 440 511 c 0
 440 579 407 635 332 635 c 0
 273 635 212 598 179 533 c 1
 183 534 184 534 190 534 c 0
 218 534 236 517 236 490 c 0
 236 453 206 429 176 429 c 0
 165 429 130 434 130 474 c 0
 130 540 211 666 347 666 c 0
 441 666 530 614 530 503 c 0
 530 412 470 347 416 300 c 0
 374 263 272 191 142 77 c 1
 318 77 l 2
 358 77 401 80 404 80 c 0
 409 81 413 82 417 86 c 0
 431 103 451 167 453 174 c 1
 478 174 l 1
 421 0 l 1
 50 0 l 1
EndSplineSet
Substitution2: "LGC old numerals subtable" twooldstyle
EndChar

StartChar: three
Encoding: 51 51 58
Width: 500
Flags: HW
TeX: 641 0
ItalicCorrection: 79
HStem: -22 28<223.5 290 223.5 311> 82 111 337 23 478 101<207 213.5 207 221> 641 25<342 372>
VStem: 156 104<523.5 550.5> 388 100<176.5 232 143.5 242>
LayerCount: 2
Fore
SplineSet
63 116 m 0
 63 183 110 193 128 193 c 0
 163 193 178 169 178 146 c 0
 178 110 145 75 101 82 c 1
 128 18 206 6 241 6 c 0
 339 6 388 127 388 226 c 0
 388 258 381 286 363 308 c 0
 339 337 311 337 291 337 c 2
 251 337 l 2
 232 337 225 337 225 347 c 0
 225 353 228 357 234 358 c 0
 240 360 243 360 262 361 c 0
 306 364 341 366 379 417 c 0
 419 470 429 537 429 561 c 0
 429 617 394 641 350 641 c 0
 334 641 255 637 207 579 c 1
 220 579 260 579 260 536 c 0
 260 511 241 478 201 478 c 0
 168 478 156 502 156 521 c 0
 156 580 230 666 355 666 c 0
 455 666 520 608 520 545 c 0
 520 491 471 389 349 352 c 1
 436 333 488 268 488 196 c 0
 488 91 380 -22 242 -22 c 0
 145 -22 63 31 63 116 c 0
EndSplineSet
Substitution2: "LGC old numerals subtable" threeoldstyle
EndChar

StartChar: four
Encoding: 52 52 59
Width: 500
Flags: HW
TeX: 641 0
ItalicCorrection: 79
HStem: 0 31<197 221> 165 31<88 321 404 499> 657 20<461.5 470>
VStem: 56 448<165 196>
LayerCount: 2
Fore
SplineSet
56 165 m 1
 56 180 59 195 68 206 c 2
 444 662 l 2
 455 676 456 677 467 677 c 0
 473 677 482 677 482 666 c 0
 482 663 482 661 480 652 c 2
 404 196 l 1
 504 196 l 1
 499 165 l 1
 399 165 l 1
 397 153 381 63 381 59 c 0
 381 37 393 31 454 31 c 2
 473 31 l 1
 471 21 470 10 468 0 c 1
 427 3 375 3 333 3 c 0
 293 3 236 3 197 0 c 1
 202 31 l 1
 221 31 l 2
 280 31 296 37 303 58 c 0
 305 65 317 142 321 165 c 1
 56 165 l 1
88 196 m 1
 333 196 l 1
 395 569 l 1
 88 196 l 1
EndSplineSet
Substitution2: "LGC old numerals subtable" fouroldstyle
EndChar

StartChar: five
Encoding: 53 53 60
Width: 500
Flags: HW
TeX: 641 0
ItalicCorrection: 79
HStem: -22 28<200.5 256 200.5 293> 116 98<117.5 140.5> 398 22<301.5 348.5> 551 83<341.5 371> 645 20<216 221 509 511>
VStem: 75 102<90.5 182> 403 83<278 290 167.5 323>
LayerCount: 2
Fore
SplineSet
75 135 m 0
 75 150 75 214 133 214 c 0
 165 214 177 192 177 172 c 0
 177 151 161 116 120 116 c 0
 115 116 106 117 101 119 c 1
 112 40 172 6 229 6 c 0
 283 6 332 43 358 89 c 0
 395 153 403 268 403 288 c 0
 403 358 372 398 325 398 c 0
 271 398 220 371 185 329 c 0
 178 321 177 319 170 319 c 0
 159 319 156 325 156 331 c 0
 156 335 156 337 158 346 c 2
 208 643 l 2
 210 657 212 665 220 665 c 0
 222 665 224 665 236 660 c 0
 281 640 323 634 360 634 c 0
 399 634 446 641 497 661 c 0
 506 665 508 665 510 665 c 0
 512 665 519 664 519 655 c 0
 519 641 431 551 311 551 c 0
 291 551 264 553 227 565 c 1
 194 370 l 1
 231 402 276 420 327 420 c 0
 426 420 486 339 486 241 c 0
 486 94 357 -22 229 -22 c 0
 137 -22 75 46 75 135 c 0
EndSplineSet
Substitution2: "LGC old numerals subtable" fiveoldstyle
EndChar

StartChar: six
Encoding: 54 54 61
Width: 500
Flags: HW
TeX: 641 0
ItalicCorrection: 79
HStem: -22 28<231 279> 404 22<292.5 361> 510 92<470.5 475.5> 641 25<382 426>
VStem: 84 78<78 351> 412 83<219.5 318.5>
LayerCount: 2
Fore
SplineSet
84 202 m 0
 84 500 269 666 414 666 c 0
 470 666 526 643 526 575 c 0
 526 510 478 510 473 510 c 0
 451 510 432 525 432 549 c 0
 432 579 456 602 485 602 c 0
 491 602 493 602 496 601 c 1
 480 637 437 641 415 641 c 0
 349 641 299 594 271 559 c 0
 214 488 199 398 188 332 c 1
 211 373 258 426 327 426 c 0
 447 426 495 322 495 249 c 0
 495 190 478 115 414 52 c 0
 359 -1 309 -22 249 -22 c 0
 116 -22 84 106 84 202 c 0
162 124 m 0
 162 32 211 6 251 6 c 0
 330 6 367 81 373 92 c 1
 399 152 412 275 412 298 c 0
 412 339 398 404 324 404 c 0
 250 404 210 335 194 300 c 0
 162 230 162 127 162 124 c 0
EndSplineSet
Substitution2: "LGC old numerals subtable" sixoldstyle
EndChar

StartChar: seven
Encoding: 55 55 62
Width: 500
Flags: HW
TeX: 641 0
ItalicCorrection: 79
HStem: -22 21<206 242.5> 567 77<286 592 352 504> 656 20<202 227 227 227>
VStem: 134 458<470 644>
LayerCount: 2
Fore
SplineSet
134 470 m 1
 202 676 l 1
 227 676 l 1
 227 657 226 644 352 644 c 2
 592 644 l 1
 592 624 586 617 579 609 c 2
 402 406 l 2
 321 313 292 138 275 40 c 0
 271 18 265 -22 220 -22 c 0
 192 -22 179 -1 179 17 c 0
 179 27 193 115 238 210 c 1
 260 254 292 315 350 389 c 0
 387 436 461 517 504 567 c 1
 301 567 l 2
 271 567 233 567 210 564 c 0
 198 562 189 561 159 470 c 1
 134 470 l 1
EndSplineSet
Substitution2: "LGC old numerals subtable" sevenoldstyle
EndChar

StartChar: eight
Encoding: 56 56 63
Width: 500
Flags: HW
TeX: 641 0
ItalicCorrection: 79
HStem: -22 28<210.5 296.5 210.5 309> 641 25<315 392>
VStem: 65 50<92.5 164.5 92.5 190.5> 150 51<503 525> 474 44<505 567>
LayerCount: 2
Fore
SplineSet
65 127 m 0
 65 254 206 319 243 336 c 1
 207 362 l 2
 166 392 150 437 150 475 c 0
 150 575 248 666 359 666 c 0
 443 666 518 618 518 537 c 0
 518 435 407 381 369 362 c 1
 378 355 401 338 411 332 c 1
 437 313 487 276 487 195 c 0
 487 77 371 -22 247 -22 c 0
 150 -22 65 36 65 127 c 0
115 127 m 0
 115 58 171 6 250 6 c 0
 343 6 431 72 431 151 c 0
 431 200 399 223 371 244 c 0
 347 261 288 303 265 320 c 1
 177 280 115 202 115 127 c 0
201 523 m 0
 201 483 226 465 261 440 c 0
 280 426 319 398 347 377 c 1
 419 413 474 472 474 538 c 0
 474 596 427 641 357 641 c 0
 273 641 201 585 201 523 c 0
EndSplineSet
Substitution2: "LGC old numerals subtable" eightoldstyle
EndChar

StartChar: nine
Encoding: 57 57 64
Width: 500
Flags: HW
TeX: 641 0
ItalicCorrection: 79
HStem: -22 28<188.5 235.5 188.5 246.5> 42 92<127.5 134.5> 218 23<252 312.5> 641 25<324.5 388.5>
VStem: 111 84<316.5 473> 446 77<422 560.5>
LayerCount: 2
Fore
SplineSet
80 70 m 0
 80 128 121 134 134 134 c 0
 151 134 174 124 174 95 c 0
 174 62 147 42 122 42 c 0
 120 42 115 42 112 43 c 1
 131 12 173 6 204 6 c 0
 267 6 316 50 349 99 c 0
 395 166 409 255 419 315 c 1
 393 268 345 218 280 218 c 0
 153 218 111 334 111 395 c 0
 111 551 238 666 362 666 c 0
 462 666 523 587 523 446 c 0
 523 398 517 248 434 125 c 0
 373 34 289 -22 204 -22 c 0
 150 -22 80 -3 80 70 c 0
195 348 m 0
 195 285 222 241 282 241 c 0
 353 241 397 304 420 363 c 0
 442 422 446 512 446 528 c 0
 446 593 416 641 361 641 c 0
 288 641 248 579 236 556 c 0
 211 507 195 381 195 348 c 0
EndSplineSet
Substitution2: "LGC old numerals subtable" nineoldstyle
EndChar

StartChar: colon
Encoding: 58 58 65
Width: 277
Flags: HW
TeX: 430 0
ItalicCorrection: 13
HStem: 0 106<138 155.5> 325 106<192.5 211.5>
VStem: 94 107<43 61>
LayerCount: 2
Fore
SplineSet
94 46 m 0
 94 76 121 106 155 106 c 0
 176 106 201 92 201 60 c 0
 201 26 170 0 141 0 c 0
 111 0 94 23 94 46 c 0
148 371 m 0
 148 401 176 431 209 431 c 0
 240 431 256 407 256 385 c 0
 256 355 228 325 195 325 c 0
 164 325 148 349 148 371 c 0
EndSplineSet
EndChar

StartChar: less
Encoding: 60 60 67
Width: 778
Flags: HW
TeX: 533 39
ItalicCorrection: 34
DStem2: 164 249 144 234 0.895806 -0.444444<0 583.747> 156 271 164 249 0.920498 0.390748<-1.23248 662.976>
LayerCount: 2
Fore
SplineSet
127 250 m 0
 127 259 140 264 156 271 c 2
 752 524 l 2
 753 525 761 529 767 529 c 0
 772 529 778 525 778 519 c 0
 778 511 773 508 751 499 c 2
 164 249 l 1
 671 -2 l 2
 684 -9 689 -15 689 -20 c 0
 689 -25 683 -29 678 -29 c 0
 672 -29 667 -25 662 -23 c 2
 144 234 l 2
 134 239 127 243 127 250 c 0
EndSplineSet
EndChar

StartChar: equal
Encoding: 61 61 68
Width: 778
Flags: HW
TeX: 366 -133
ItalicCorrection: 33
HStem: 141 23<82.0124 744.976> 336 23<115.015 775.988>
LayerCount: 2
Fore
SplineSet
82 152 m 0
 82 165 96 164 105 164 c 2
 715 164 l 2
 723 164 732 165 738 162 c 0
 742 160 745 156 745 153 c 0
 745 147 737 141 717 141 c 2
 109 141 l 2
 99 141 82 142 82 152 c 0
115 347 m 0
 115 352 117 359 135 359 c 2
 747 359 l 2
 759 359 776 360 776 347 c 0
 776 336 762 336 751 336 c 2
 135 336 l 2
 117 336 115 343 115 347 c 0
EndSplineSet
EndChar

StartChar: greater
Encoding: 62 62 69
Width: 778
Flags: HW
TeX: 533 39
DStem2: 109 1 108 -24 0.920733 0.390193<-26.1761 638.333> 199 523 190 502 0.896154 -0.443743<-17.6437 566.983>
LayerCount: 2
Fore
SplineSet
82 -19 m 0
 82 -9 94 -6 109 1 c 2
 697 251 l 1
 190 502 l 2
 176 509 172 515 172 520 c 0
 172 526 178 529 182 529 c 0
 188 529 194 525 199 523 c 2
 716 267 l 2
 721 264 733 259 733 250 c 0
 733 240 717 234 705 229 c 2
 108 -24 l 2
 107 -25 99 -29 93 -29 c 0
 88 -29 82 -25 82 -19 c 0
EndSplineSet
EndChar

StartChar: question
Encoding: 63 63 70
Width: 472
Flags: HW
TeX: 688 0
ItalicCorrection: 92
HStem: 0 106<221.5 238.5> 187 21<253 257> 524 91<196 202 196 209.5> 683 22<306.5 354 278 367.5>
VStem: 150 94<566 588.5> 432 80<612.5 639.5>
LayerCount: 2
Fore
SplineSet
150 563 m 0
 150 614 214 705 342 705 c 0
 366 705 512 705 512 588 c 0
 512 567 506 511 439 467 c 0
 297 374 281 277 272 224 c 0
 267 194 266 193 264 191 c 0
 262 188 259 187 255 187 c 0
 251 187 243 188 243 198 c 0
 243 218 258 284 265 306 c 0
 280 354 316 426 379 482 c 0
 391 493 406 507 418 536 c 0
 430 567 432 610 432 615 c 0
 432 664 396 683 339 683 c 0
 274 683 221 651 196 615 c 1
 208 615 244 615 244 576 c 0
 244 556 228 524 191 524 c 0
 162 524 150 545 150 563 c 0
177 46 m 0
 177 77 206 106 237 106 c 0
 260 106 284 92 284 59 c 0
 284 25 253 0 224 0 c 0
 194 0 177 24 177 46 c 0
EndSplineSet
EndChar

StartChar: at
Encoding: 64 64 71
Width: 777
Flags: HW
TeX: 688 0
ItalicCorrection: 53
HStem: -11 22<315.5 424.5 315.5 433> 128 22<380.5 430 380.5 435 636.5 674.5> 544 22<438.5 500 422 508.5> 683 22<410.5 576.5>
VStem: 109 25<206 391.5 206 398> 244 67<258 360 258 379.5> 759 25<381.5 490>
LayerCount: 2
Fore
SplineSet
109 285 m 0
 109 511 304 705 504 705 c 0
 664 705 784 582 784 409 c 0
 784 346 763 262 750 226 c 0
 736 188 708 128 642 128 c 0
 605 128 556 146 552 198 c 1
 513 153 460 128 410 128 c 0
 325 128 244 193 244 309 c 0
 244 450 364 566 480 566 c 0
 520 566 576 549 608 481 c 1
 641 481 l 2
 660 481 666 481 666 471 c 0
 666 467 646 345 643 329 c 2
 630 251 l 2
 627 230 621 197 621 189 c 0
 621 166 627 150 646 150 c 0
 703 150 724 217 731 242 c 1
 740 268 759 354 759 409 c 0
 759 571 649 683 504 683 c 0
 317 683 134 498 134 285 c 0
 134 127 238 11 393 11 c 0
 456 11 552 22 669 71 c 1
 683 78 685 78 704 78 c 0
 726 78 731 78 731 68 c 0
 731 62 726 59 718 56 c 0
 587 3 472 -11 394 -11 c 0
 216 -11 109 122 109 285 c 0
311 297 m 0
 311 219 348 150 413 150 c 0
 447 150 499 167 544 224 c 0
 559 242 559 244 562 262 c 2
 594 451 l 1
 578 504 535 544 482 544 c 0
 395 544 311 423 311 297 c 0
EndSplineSet
EndChar

StartChar: A
Encoding: 65 65 72
Width: 750
Flags: HW
TeX: 688 0
HStem: 0 31 228 31<276 501 276 507 260 501> 696 20<467 502>
VStem: 32 690
AnchorPoint: "ogonek" 593 0 basechar 0
AnchorPoint: "below" 374 0 basechar 0
AnchorPoint: "above" 492 705 basechar 0
LayerCount: 2
Fore
SplineSet
32 0 m 1
 34 10 35 21 37 31 c 1
 104 31 139 57 161 99 c 2
 467 696 l 2
 475 712 479 716 494 716 c 0
 510 716 511 712 514 693 c 2
 626 75 l 2
 632 41 634 31 706 31 c 2
 722 31 l 1
 721 23 718 9 717 0 c 1
 675 2 629 3 586 3 c 0
 548 3 477 3 442 0 c 1
 443 9 446 23 447 31 c 1
 472 31 536 31 536 64 c 0
 536 67 535 76 534 79 c 2
 507 228 l 1
 260 228 l 1
 244 200 220 151 200 112 c 0
 187 86 187 84 187 76 c 0
 187 34 245 30 254 30 c 1
 248 0 l 1
 220 1 154 3 134 3 c 0
 94 3 53 1 32 0 c 1
276 259 m 1
 501 259 l 1
 443 584 l 1
 276 259 l 1
EndSplineSet
Substitution2: "LC caps to smallcaps subtable" A.sc
EndChar

StartChar: B
Encoding: 66 66 73
Width: 708
Flags: HW
TeX: 688 0
ItalicCorrection: 57
HStem: 0 31<41 51 278 399 399 427 36 51> 344 22<283 426 426 465 280 426> 652 31<150 152 356 381 381 501>
VStem: 584 99<169 235>
AnchorPoint: "below" 321 0 basechar 0
AnchorPoint: "above" 439 705 basechar 0
LayerCount: 2
Fore
SplineSet
36 0 m 1
 41 31 l 1
 61 31 95 31 114 34 c 0
 144 39 147 51 151 75 c 2
 239 600 l 2
 240 608 242 617 242 624 c 0
 242 646 226 648 204 651 c 1
 188 652 159 652 145 652 c 1
 150 683 l 1
 513 683 l 2
 635 683 711 616 711 534 c 0
 711 445 618 376 517 357 c 1
 604 348 683 294 683 205 c 0
 683 106 574 0 427 0 c 2
 36 0 l 1
231 52 m 0
 231 31 250 31 278 31 c 2
 399 31 l 2
 511 31 584 123 584 215 c 0
 584 255 567 344 465 344 c 2
 280 344 l 1
 234 72 l 2
 231 57 231 55 231 52 c 0
283 366 m 1
 426 366 l 2
 543 366 614 457 614 539 c 0
 614 575 598 652 501 652 c 2
 381 652 l 2
 331 652 330 644 325 615 c 2
 283 366 l 1
EndSplineSet
Substitution2: "LC caps to smallcaps subtable" B.sc
EndChar

StartChar: C
Encoding: 67 67 74
Width: 722
Flags: HW
TeX: 688 0
ItalicCorrection: 86
HStem: -22 31<372 440> 674 31<481.5 549 416 589>
VStem: 108 99<189.5 253 155.5 395.5>
AnchorPoint: "below" 406 0 basechar 0
AnchorPoint: "above" 519 705 basechar 0
LayerCount: 2
Fore
SplineSet
108 281 m 0
 108 510 313 705 519 705 c 0
 579 705 636 685 681 629 c 1
 688 622 689 621 690 621 c 0
 691 621 691 622 699 630 c 2
 753 692 l 2
 755 694 758 699 760 700 c 1
 762 703 765 705 769 705 c 0
 775 705 781 702 781 694 c 1
 735 423 l 1
 731 420 723 420 721 420 c 0
 715 420 707 420 706 430 c 0
 706 439 707 447 707 455 c 0
 707 566 649 674 529 674 c 0
 434 674 346 616 298 551 c 0
 207 427 207 260 207 246 c 0
 207 65 327 9 417 9 c 0
 469 9 526 26 586 77 c 0
 657 137 673 211 680 241 c 0
 682 250 690 250 693 250 c 0
 698 250 705 249 705 239 c 0
 705 238 693 139 603 58 c 0
 548 9 478 -22 402 -22 c 0
 241 -22 108 98 108 281 c 0
EndSplineSet
Substitution2: "LC caps to smallcaps subtable" C.sc
EndChar

StartChar: D
Encoding: 68 68 75
Width: 763
Flags: HW
TeX: 688 0
ItalicCorrection: 51
HStem: 0 31<40 50 280 377 377 399 35 50> 652 31<149 151 358 383 383 480>
VStem: 673 95<433.5 480.5 292 519.5>
AnchorPoint: "below" 349 0 basechar 0
AnchorPoint: "above" 466 705 basechar 0
LayerCount: 2
Fore
SplineSet
35 0 m 1
 40 31 l 1
 60 31 94 31 113 34 c 0
 143 39 146 51 150 75 c 2
 238 600 l 2
 239 608 241 617 241 624 c 0
 241 646 225 648 203 651 c 1
 187 652 158 652 144 652 c 1
 149 683 l 1
 512 683 l 2
 668 683 768 560 768 401 c 0
 768 183 590 0 399 0 c 2
 35 0 l 1
233 52 m 0
 233 31 252 31 280 31 c 2
 377 31 l 2
 478 31 550 84 591 139 c 0
 669 245 673 425 673 442 c 0
 673 597 577 652 480 652 c 2
 383 652 l 2
 333 652 332 644 327 615 c 2
 236 72 l 2
 233 57 233 55 233 52 c 0
EndSplineSet
Substitution2: "LC caps to smallcaps subtable" D.sc
EndChar

StartChar: E
Encoding: 69 69 76
Width: 680
Flags: HW
TeX: 688 0
ItalicCorrection: 58
HStem: 0 31<38 60 60 100.5 281 411 411 489.5 33 60> 338 31<287 369 282 375> 649 34
VStem: 33 676
AnchorPoint: "ogonek" 342 0 basechar 0
AnchorPoint: "below" 342 0 basechar 0
AnchorPoint: "above" 460 705 basechar 0
LayerCount: 2
Fore
SplineSet
33 0 m 1
 35 10 36 21 38 31 c 1
 60 31 l 2
 141 31 143 43 148 75 c 2
 237 607 l 2
 239 616 239 618 239 621 c 0
 239 642 227 649 163 649 c 2
 141 649 l 1
 146 680 l 1
 709 680 l 1
 700 455 l 1
 675 455 l 1
 676 467 676 485 676 498 c 0
 676 607 647 649 509 649 c 2
 384 649 l 2
 337 649 332 643 327 611 c 2
 287 369 l 1
 375 369 l 2
 462 369 490 390 504 486 c 1
 529 486 l 1
 485 221 l 1
 460 221 l 1
 463 238 466 253 466 273 c 0
 466 326 436 338 369 338 c 2
 282 338 l 1
 237 72 l 2
 234 57 234 55 234 52 c 0
 234 31 253 31 281 31 c 2
 411 31 l 2
 568 31 617 85 670 258 c 1
 695 258 l 1
 610 0 l 1
 33 0 l 1
EndSplineSet
Substitution2: "LC caps to smallcaps subtable" E.sc
EndChar

StartChar: F
Encoding: 70 70 77
Width: 652
Flags: HW
TeX: 688 0
ItalicCorrection: 72
HStem: 0 31<33 60 354 354> 325 31<279 369 285 363> 649 34
VStem: 33 662
AnchorPoint: "below" 321 0 basechar 0
AnchorPoint: "above" 439 705 basechar 0
LayerCount: 2
Fore
SplineSet
33 0 m 1
 38 31 l 1
 60 31 l 2
 141 31 143 43 148 75 c 2
 237 607 l 2
 239 616 239 618 239 621 c 0
 239 642 227 649 163 649 c 2
 141 649 l 1
 146 680 l 1
 695 680 l 1
 686 455 l 1
 661 455 l 1
 662 467 662 486 662 499 c 0
 662 605 637 649 500 649 c 2
 384 649 l 2
 337 649 332 643 327 611 c 2
 285 356 l 1
 369 356 l 2
 461 356 481 382 496 473 c 1
 521 473 l 1
 477 208 l 1
 452 208 l 1
 455 226 458 243 458 261 c 0
 458 313 428 325 363 325 c 2
 279 325 l 1
 239 84 l 2
 236 68 236 66 236 61 c 0
 236 39 248 31 327 31 c 2
 359 31 l 1
 354 0 l 1
 316 3 228 3 185 3 c 0
 146 3 68 3 33 0 c 1
EndSplineSet
Substitution2: "LC caps to smallcaps subtable" F.sc
EndChar

StartChar: G
Encoding: 71 71 78
Width: 784
Flags: HW
TeX: 688 0
ItalicCorrection: 23
HStem: -22 31<375 446> 242 31<497 497 497 523 492 497> 674 31<488.5 565.5 416 588>
VStem: 108 99<191.5 250 157.5 394.5>
AnchorPoint: "below" 408 0 basechar 0
AnchorPoint: "above" 519 705 basechar 0
LayerCount: 2
Fore
SplineSet
108 281 m 0
 108 508 312 705 520 705 c 0
 611 705 660 659 691 619 c 1
 754 692 l 2
 765 704 766 705 770 705 c 0
 776 705 782 702 782 694 c 1
 736 423 l 1
 732 420 724 420 722 420 c 0
 715 420 708 420 707 431 c 1
 707 454 l 2
 707 571 646 674 530 674 c 0
 447 674 355 629 293 544 c 0
 207 425 207 253 207 247 c 0
 207 68 328 9 422 9 c 0
 494 9 569 44 592 102 c 0
 595 112 603 156 607 183 c 0
 609 193 612 211 612 213 c 0
 612 235 595 242 523 242 c 2
 492 242 l 1
 497 273 l 1
 518 271 554 271 575 271 c 0
 603 271 630 270 658 270 c 0
 694 270 735 271 781 273 c 1
 780 265 777 251 776 242 c 1
 711 242 706 237 700 202 c 2
 669 20 l 2
 666 4 666 1 658 1 c 0
 647 1 615 41 604 63 c 1
 568 12 488 -22 404 -22 c 0
 237 -22 108 102 108 281 c 0
EndSplineSet
Substitution2: "LC caps to smallcaps subtable" G.sc
EndChar

StartChar: H
Encoding: 72 72 79
Width: 750
Flags: HW
TeX: 688 0
ItalicCorrection: 108
HStem: 0 31<33 60> 340 31<287 580 282 586> 652 31<374.5 442 415 442>
VStem: 33 797<0 683>
AnchorPoint: "below" 374 0 basechar 0
AnchorPoint: "above" 492 705 basechar 0
LayerCount: 2
Fore
SplineSet
33 0 m 1
 38 31 l 1
 60 31 l 2
 141 31 143 43 148 75 c 2
 236 600 l 2
 237 608 239 617 239 624 c 0
 239 645 229 652 163 652 c 2
 142 652 l 1
 143 661 146 675 147 683 c 1
 183 680 255 680 294 680 c 0
 332 680 407 680 442 683 c 1
 437 652 l 1
 415 652 l 2
 334 652 332 640 327 609 c 2
 287 371 l 1
 586 371 l 1
 624 600 l 2
 625 608 627 617 627 624 c 0
 627 645 617 652 551 652 c 2
 530 652 l 1
 531 661 534 675 535 683 c 1
 571 680 643 680 682 680 c 0
 720 680 795 680 830 683 c 1
 825 652 l 1
 803 652 l 2
 724 652 720 641 715 609 c 2
 626 76 l 2
 625 68 624 62 624 59 c 0
 624 37 637 31 700 31 c 2
 721 31 l 1
 720 23 717 9 716 0 c 1
 680 3 608 3 569 3 c 0
 531 3 456 3 421 0 c 1
 426 31 l 1
 448 31 l 2
 529 31 531 43 536 75 c 2
 580 340 l 1
 282 340 l 1
 238 76 l 2
 237 68 236 62 236 59 c 0
 236 37 249 31 312 31 c 2
 333 31 l 1
 332 23 329 9 328 0 c 1
 292 3 220 3 181 3 c 0
 143 3 68 3 33 0 c 1
EndSplineSet
Substitution2: "LC caps to smallcaps subtable" H.sc
EndChar

StartChar: I
Encoding: 73 73 80
Width: 361
Flags: HW
TeX: 688 0
ItalicCorrection: 99
HStem: 0 31<28 57> 652 31<376 447 418 447>
VStem: 28 419
AnchorPoint: "ogonek" 181 0 basechar 0
AnchorPoint: "below" 180 0 basechar 0
AnchorPoint: "above" 298 705 basechar 0
LayerCount: 2
Fore
SplineSet
28 0 m 1
 33 31 l 1
 57 31 l 2
 137 31 143 41 148 74 c 2
 236 600 l 2
 237 608 239 617 239 624 c 0
 239 645 228 652 160 652 c 2
 137 652 l 1
 138 661 141 675 142 683 c 1
 177 680 255 680 294 680 c 0
 333 680 411 680 447 683 c 1
 442 652 l 1
 418 652 l 2
 334 652 332 640 327 608 c 2
 239 84 l 2
 238 76 236 67 236 60 c 0
 236 39 243 31 315 31 c 2
 338 31 l 1
 337 22 334 8 333 0 c 1
 298 3 220 3 181 3 c 0
 142 3 64 3 28 0 c 1
EndSplineSet
EndChar

StartChar: J
Encoding: 74 74 81
Width: 513
Flags: HW
TeX: 688 0
ItalicCorrection: 82
HStem: -22 22<186.5 221.5 186.5 247> 58 112<112.5 127.5> 652 31<541.5 579>
VStem: 58 115<106 125.5>
AnchorPoint: "below" 253 0 basechar 0
AnchorPoint: "above" 462 705 basechar 0
LayerCount: 2
Fore
SplineSet
58 96 m 0
 58 155 102 170 123 170 c 0
 153 170 173 149 173 123 c 0
 173 89 146 58 109 58 c 0
 104 58 101 58 97 59 c 1
 120 7 176 0 197 0 c 0
 246 0 309 49 326 148 c 2
 402 600 l 2
 405 616 405 618 405 622 c 0
 405 652 364 652 311 652 c 2
 277 652 l 1
 278 660 281 674 282 683 c 1
 305 681 342 681 366 681 c 0
 394 681 421 680 449 680 c 0
 493 680 535 681 579 683 c 1
 574 652 l 1
 509 652 497 652 490 610 c 2
 413 147 l 2
 396 44 294 -22 200 -22 c 0
 114 -22 58 32 58 96 c 0
EndSplineSet
EndChar

StartChar: K
Encoding: 75 75 82
Width: 777
Flags: HW
TeX: 688 0
ItalicCorrection: 86
HStem: 0 31<33 60 735 735> 652 31<374.5 442 415 442>
VStem: 33 802<0 683>
AnchorPoint: "below" 384 0 basechar 0
AnchorPoint: "above" 502 705 basechar 0
LayerCount: 2
Fore
SplineSet
33 0 m 1
 38 31 l 1
 60 31 l 2
 141 31 143 43 148 75 c 2
 236 600 l 2
 237 608 239 617 239 624 c 0
 239 645 229 652 163 652 c 2
 142 652 l 1
 143 661 146 675 147 683 c 1
 183 680 255 680 294 680 c 0
 332 680 407 680 442 683 c 1
 437 652 l 1
 415 652 l 2
 334 652 332 640 327 609 c 2
 273 288 l 1
 637 587 l 2
 645 593 659 605 659 623 c 0
 659 652 620 653 619 653 c 2
 625 683 l 1
 660 680 714 680 750 680 c 0
 777 680 808 680 835 683 c 1
 830 652 l 1
 807 651 751 650 679 591 c 2
 470 420 l 1
 643 80 l 2
 668 32 694 31 741 31 c 1
 735 0 l 1
 693 1 649 3 621 3 c 2
 551 2 l 2
 532 2 496 2 478 0 c 1
 483 31 l 1
 502 31 547 31 547 65 c 0
 547 77 541 91 536 100 c 2
 401 363 l 1
 268 253 l 1
 238 76 l 2
 237 68 236 62 236 59 c 0
 236 37 249 31 312 31 c 2
 333 31 l 1
 332 23 329 9 328 0 c 1
 292 3 220 3 181 3 c 0
 143 3 68 3 33 0 c 1
EndSplineSet
Substitution2: "LC caps to smallcaps subtable" K.sc
EndChar

StartChar: L
Encoding: 76 76 83
Width: 625
Flags: HW
TeX: 688 0
HStem: 0 31<38 60 60 100.5 281 360 360 448 33 60> 652 31<430 467>
VStem: 33 592<0 258>
AnchorPoint: "below" 307 0 basechar 0
AnchorPoint: "above" 425 705 basechar 0
LayerCount: 2
Fore
SplineSet
33 0 m 1
 35 10 36 21 38 31 c 1
 60 31 l 2
 141 31 143 43 148 75 c 2
 236 600 l 2
 237 608 239 617 239 624 c 0
 239 645 229 652 163 652 c 2
 142 652 l 1
 143 661 146 675 147 683 c 1
 183 680 259 680 298 680 c 0
 339 680 431 680 467 683 c 1
 462 652 l 1
 430 652 l 2
 334 652 332 639 327 608 c 2
 237 72 l 2
 234 57 234 55 234 52 c 0
 234 31 253 31 281 31 c 2
 360 31 l 2
 536 31 569 150 600 258 c 1
 625 258 l 1
 554 0 l 1
 33 0 l 1
EndSplineSet
Substitution2: "LC caps to smallcaps subtable" L.sc
EndChar

StartChar: M
Encoding: 77 77 84
Width: 916
Flags: HW
TeX: 688 0
ItalicCorrection: 108
HStem: 0 31<270 270> 652 31<151 167 146 318 926.5 966 966 988>
VStem: 37 956
AnchorPoint: "below" 458 0 basechar 0
AnchorPoint: "above" 575 705 basechar 0
LayerCount: 2
Fore
SplineSet
37 0 m 1
 39 10 40 21 42 31 c 1
 144 31 152 76 156 100 c 2
 240 600 l 2
 241 608 243 617 243 624 c 0
 243 645 233 652 167 652 c 2
 146 652 l 1
 147 661 150 675 151 683 c 1
 318 683 l 2
 345 683 346 682 351 659 c 2
 475 101 l 1
 786 663 l 2
 797 683 801 683 825 683 c 2
 993 683 l 1
 988 652 l 1
 966 652 l 2
 887 652 883 641 878 609 c 2
 789 76 l 2
 788 68 787 62 787 59 c 0
 787 37 800 31 863 31 c 2
 884 31 l 1
 883 23 880 9 879 0 c 1
 842 3 775 3 736 3 c 0
 697 3 628 3 592 0 c 1
 597 31 l 1
 619 31 l 2
 700 31 702 43 707 75 c 2
 804 651 l 1
 803 651 l 1
 451 17 l 2
 446 9 440 0 430 0 c 0
 419 0 417 10 414 22 c 2
 277 643 l 1
 276 643 l 1
 186 108 l 2
 185 100 183 91 183 84 c 0
 183 31 252 31 276 31 c 1
 270 0 l 1
 239 1 176 3 154 3 c 0
 121 3 72 1 37 0 c 1
EndSplineSet
Substitution2: "LC caps to smallcaps subtable" M.sc
EndChar

StartChar: N
Encoding: 78 78 85
Width: 750
Flags: HW
TeX: 688 0
ItalicCorrection: 108
HStem: 0 31<266 266> 652 31<147 169 142 313>
VStem: 33 797
AnchorPoint: "below" 374 0 basechar 0
AnchorPoint: "above" 492 705 basechar 0
LayerCount: 2
Fore
SplineSet
33 0 m 1
 35 10 36 21 38 31 c 1
 140 31 148 75 152 100 c 2
 243 645 l 1
 232 648 215 652 169 652 c 2
 142 652 l 1
 143 661 146 675 147 683 c 1
 313 683 l 2
 336 683 337 682 345 667 c 2
 610 150 l 1
 681 576 l 2
 684 592 684 594 684 599 c 0
 684 652 614 652 591 652 c 1
 597 683 l 1
 628 682 689 680 713 680 c 0
 746 680 795 682 830 683 c 1
 825 652 l 1
 722 652 714 606 710 580 c 2
 617 23 l 2
 614 5 613 0 601 0 c 0
 591 0 590 2 583 16 c 2
 282 603 l 2
 279 608 274 618 269 625 c 1
 182 108 l 2
 181 100 179 91 179 84 c 0
 179 31 248 31 272 31 c 1
 266 0 l 1
 235 1 172 3 150 3 c 0
 117 3 68 1 33 0 c 1
EndSplineSet
Substitution2: "LC caps to smallcaps subtable" N.sc
EndChar

StartChar: O
Encoding: 79 79 86
Width: 777
Flags: HW
TeX: 688 0
ItalicCorrection: 51
HStem: -22 26<339 423.5 339 486> 680 25<470 542.5>
VStem: 107 101<188 265 170.5 386> 685 98<405.5 494.5 290.5 533>
AnchorPoint: "ogonek" 389 0 basechar 0
AnchorPoint: "below" 389 0 basechar 0
AnchorPoint: "above" 506 705 basechar 0
LayerCount: 2
Fore
SplineSet
107 274 m 0
 107 498 299 705 506 705 c 0
 662 705 783 584 783 405 c 0
 783 176 587 -22 385 -22 c 0
 225 -22 107 102 107 274 c 0
208 248 m 0
 208 93 289 4 389 4 c 0
 458 4 538 45 602 142 c 1
 661 234 685 365 685 446 c 0
 685 620 584 680 501 680 c 0
 439 680 353 645 285 543 c 1
 215 435 208 282 208 248 c 0
EndSplineSet
Substitution2: "LC caps to smallcaps subtable" O.sc
EndChar

StartChar: P
Encoding: 80 80 87
Width: 680
Flags: HW
TeX: 688 0
ItalicCorrection: 57
HStem: 0 31<35 62> 316 26<280 417 281 417 417 447> 652 31<149 165 144 500 358 383 383 469>
VStem: 609 100<540 562 466 586>
AnchorPoint: "below" 307 0 basechar 0
AnchorPoint: "above" 425 705 basechar 0
LayerCount: 2
Fore
SplineSet
35 0 m 1
 40 31 l 1
 62 31 l 2
 143 31 145 43 150 75 c 2
 238 600 l 2
 239 608 241 617 241 624 c 0
 241 645 231 652 165 652 c 2
 144 652 l 1
 145 661 148 675 149 683 c 1
 500 683 l 2
 635 683 709 603 709 521 c 0
 709 411 581 316 447 316 c 2
 280 316 l 1
 240 76 l 2
 239 68 238 62 238 59 c 0
 238 37 251 31 314 31 c 2
 335 31 l 1
 334 23 331 9 330 0 c 1
 294 3 222 3 183 3 c 0
 145 3 70 3 35 0 c 1
281 342 m 1
 417 342 l 2
 508 342 575 377 596 460 c 0
 606 499 609 533 609 547 c 0
 609 625 549 652 469 652 c 2
 383 652 l 2
 333 652 332 644 327 615 c 2
 281 342 l 1
EndSplineSet
Substitution2: "LC caps to smallcaps subtable" P.sc
EndChar

StartChar: Q
Encoding: 81 81 88
Width: 777
Flags: HW
TeX: 688 194
ItalicCorrection: 51
HStem: -194 103<577 622.5 577 635.5> -22 25<374.5 405> 126 22<393 441> 680 25<458.5 542.5>
VStem: 107 97<188 268 178 386> 318 22<44.5 70.5 34 78> 686 97<393.5 494.5 322.5 528>
AnchorPoint: "below" 355 -194 basechar 0
AnchorPoint: "above" 506 705 basechar 0
LayerCount: 2
Fore
SplineSet
107 274 m 0
 107 498 299 705 506 705 c 0
 662 705 783 584 783 405 c 0
 783 240 679 75 518 6 c 1
 535 -69 557 -91 597 -91 c 0
 648 -91 691 -52 703 -9 c 0
 707 6 708 11 716 11 c 0
 723 11 727 6 727 -2 c 0
 727 -12 695 -194 576 -194 c 0
 494 -194 483 -121 483 -53 c 2
 483 -7 l 1
 464 -13 425 -22 385 -22 c 0
 225 -22 107 102 107 274 c 0
204 243 m 0
 204 113 259 43 326 15 c 1
 319 25 318 38 318 51 c 0
 318 105 364 148 412 148 c 0
 470 148 495 105 510 42 c 1
 661 141 686 350 686 437 c 0
 686 619 583 680 502 680 c 0
 415 680 335 618 288 545 c 1
 214 433 204 293 204 243 c 0
340 51 m 0
 340 17 360 3 389 3 c 0
 423 3 453 12 482 26 c 1
 479 80 469 126 413 126 c 0
 373 126 340 90 340 51 c 0
EndSplineSet
Substitution2: "LC caps to smallcaps subtable" Q.sc
EndChar

StartChar: R
Encoding: 82 82 89
Width: 736
Flags: HW
TeX: 688 0
HStem: -22 22<618 657> 0 31<35 62 327 327> 331 22<283 392 392 394 279 392> 652 31<149 165 144 461 403 450>
VStem: 498 96 594 101<475.5 568 475.5 596.5>
AnchorPoint: "below" 307 0 basechar 0
AnchorPoint: "above" 425 705 basechar 0
LayerCount: 2
Fore
SplineSet
35 0 m 1
 40 31 l 1
 62 31 l 2
 143 31 145 43 150 75 c 2
 238 600 l 2
 239 608 241 617 241 624 c 0
 241 645 231 652 165 652 c 2
 144 652 l 1
 149 683 l 1
 461 683 l 2
 597 683 695 613 695 523 c 0
 695 428 589 362 491 340 c 1
 515 332 550 312 569 287 c 0
 594 252 594 228 594 188 c 0
 594 164 593 141 593 117 c 0
 593 41 596 0 640 0 c 0
 674 0 708 34 721 86 c 0
 724 98 725 105 735 105 c 0
 743 105 747 98 747 93 c 0
 747 80 722 -22 635 -22 c 0
 565 -22 488 10 488 96 c 0
 488 112 490 120 496 158 c 0
 507 221 507 226 507 231 c 0
 507 239 507 331 394 331 c 2xb8
 279 331 l 1
 237 76 l 2
 236 68 235 62 235 59 c 0
 235 37 248 31 311 31 c 2
 332 31 l 1
 327 0 l 1
 291 3 220 3 181 3 c 0
 142 3 71 3 35 0 c 1
283 353 m 1
 392 353 l 2
 513 353 594 409 594 541 c 0
 594 652 487 652 413 652 c 0
 393 652 361 652 352 650 c 0
 332 646 331 636 327 615 c 2
 283 353 l 1
EndSplineSet
Substitution2: "LC caps to smallcaps subtable" R.sc
EndChar

StartChar: S
Encoding: 83 83 90
Width: 555
Flags: HW
TeX: 688 0
ItalicCorrection: 58
HStem: -22 31<250.5 348.5 250.5 365.5> 677 28<322.5 407.5 306.5 421.5>
VStem: 139 70<497.5 540.5> 463 70<161 187.5>
AnchorPoint: "below" 304 0 basechar 0
AnchorPoint: "above" 366 705 basechar 0
LayerCount: 2
Fore
SplineSet
54 -11 m 0
 54 -8 54 -6 56 3 c 2
 90 205 l 2
 93 222 94 227 105 227 c 0
 108 227 117 227 117 216 c 0
 117 204 113 186 113 173 c 0
 113 59 200 9 301 9 c 0
 396 9 463 100 463 179 c 0
 463 196 459 262 395 288 c 1
 315 309 l 2
 234 330 208 336 177 373 c 0
 141 417 139 459 139 481 c 0
 139 600 246 705 367 705 c 0
 448 705 494 667 515 635 c 1
 560 692 l 2
 569 703 570 705 576 705 c 0
 582 705 588 702 588 694 c 1
 548 459 l 1
 545 457 540 456 537 456 c 0
 525 456 525 464 525 474 c 0
 525 490 526 478 526 495 c 0
 526 601 477 677 366 677 c 0
 279 677 209 600 209 523 c 0
 209 472 240 438 273 424 c 0
 280 422 313 413 333 408 c 2
 371 398 l 2
 431 383 463 375 493 337 c 1
 531 291 533 240 533 220 c 0
 533 102 431 -22 300 -22 c 0
 193 -22 149 25 127 48 c 1
 81 -11 l 2
 73 -21 72 -22 65 -22 c 0
 57 -22 54 -17 54 -11 c 0
EndSplineSet
Substitution2: "LC caps to smallcaps subtable" S.sc
EndChar

StartChar: T
Encoding: 84 84 91
Width: 722
Flags: HW
TeX: 688 0
ItalicCorrection: 72
HStem: 0 31<171 214 550 550> 646 37
VStem: 111 668<452 677>
AnchorPoint: "below" 360 0 basechar 0
AnchorPoint: "above" 478 705 basechar 0
LayerCount: 2
Fore
SplineSet
111 452 m 1
 168 677 l 1
 779 677 l 1
 760 452 l 1
 735 452 l 1
 738 478 740 502 740 529 c 0
 740 629 704 646 587 646 c 0
 569 646 541 646 532 644 c 0
 512 640 511 630 507 609 c 2
 418 77 l 2
 416 66 416 62 416 61 c 0
 416 39 432 31 517 31 c 2
 555 31 l 1
 550 0 l 1
 509 3 407 3 361 3 c 2
 265 2 l 2
 240 2 196 2 171 0 c 1
 176 31 l 1
 214 31 l 2
 320 31 323 44 328 76 c 2
 416 600 l 2
 417 608 419 617 419 625 c 0
 419 640 414 643 393 645 c 0
 387 646 364 646 349 646 c 0
 189 646 179 607 136 452 c 1
 111 452 l 1
EndSplineSet
Substitution2: "LC caps to smallcaps subtable" T.sc
EndChar

StartChar: U
Encoding: 85 85 92
Width: 750
Flags: HW
TeX: 688 0
ItalicCorrection: 108
HStem: -22 31<369 437 369 451> 652 31<375.5 442 415 442>
VStem: 171 86<125 166 94 194.5>
AnchorPoint: "ogonek" 390 0 basechar 0
AnchorPoint: "below" 390 0 basechar 0
AnchorPoint: "above" 492 705 basechar 0
LayerCount: 2
Fore
SplineSet
142 652 m 1
 143 661 146 675 147 683 c 1
 183 680 255 680 294 680 c 0
 332 680 407 680 442 683 c 1
 437 652 l 1
 415 652 l 2
 336 652 332 641 327 609 c 2
 260 204 l 2
 257 186 257 172 257 160 c 0
 257 28 349 9 389 9 c 0
 485 9 596 89 620 231 c 2
 678 576 l 2
 681 592 681 594 681 599 c 0
 681 652 611 652 588 652 c 1
 594 683 l 1
 624 682 688 680 711 680 c 0
 745 680 792 681 830 683 c 1
 825 652 l 1
 722 652 714 606 710 580 c 2
 651 225 l 2
 630 96 516 -22 386 -22 c 0
 270 -22 171 61 171 189 c 0
 171 200 171 213 174 231 c 2
 236 600 l 2
 237 608 239 617 239 624 c 0
 239 645 229 652 163 652 c 2
 142 652 l 1
EndSplineSet
Substitution2: "LC caps to smallcaps subtable" U.sc
EndChar

StartChar: V
Encoding: 86 86 93
Width: 750
Flags: HW
TeX: 688 0
ItalicCorrection: 127
HStem: -22 21<363.5 379> 652 31<133 133 133 162>
VStem: 128 716<652 683>
AnchorPoint: "below" 375 0 basechar 0
AnchorPoint: "above" 492 705 basechar 0
LayerCount: 2
Fore
SplineSet
128 652 m 1
 133 683 l 1
 156 682 209 680 259 680 c 0
 297 680 368 680 403 683 c 1
 398 652 l 1
 373 652 311 652 311 620 c 0
 311 616 312 613 314 603 c 2
 421 100 l 1
 683 582 l 2
 691 597 693 599 693 609 c 0
 693 626 679 652 627 652 c 1
 632 683 l 1
 656 682 713 680 746 680 c 0
 773 680 813 681 844 683 c 1
 839 652 l 1
 775 652 741 626 719 586 c 2
 398 -2 l 2
 389 -18 387 -22 371 -22 c 0
 356 -22 353 -19 349 1 c 2
 220 611 l 2
 211 652 196 652 128 652 c 1
EndSplineSet
Substitution2: "LC caps to smallcaps subtable" V.sc
EndChar

StartChar: W
Encoding: 87 87 94
Width: 1027
Flags: HW
TeX: 688 0
ItalicCorrection: 127
HStem: -22 21<318.5 331.5 688.5 701.5> 652 31<132 132 132 159.5>
VStem: 127 996
AnchorPoint: "below" 514 0 basechar 0
AnchorPoint: "above" 631 705 basechar 0
LayerCount: 2
Fore
SplineSet
127 652 m 1
 132 683 l 1
 176 681 219 680 253 680 c 0
 291 680 361 680 396 683 c 1
 395 674 392 660 391 652 c 1
 364 652 301 652 301 618 c 0
 301 613 301 611 303 601 c 2
 380 117 l 1
 585 532 l 2
 591 543 591 548 591 549 c 0
 591 558 579 625 575 633 c 0
 567 649 556 652 497 652 c 1
 502 683 l 1
 546 681 589 680 623 680 c 0
 661 680 731 680 766 683 c 1
 765 674 762 660 761 652 c 1
 734 652 671 652 671 618 c 0
 671 617 671 614 673 603 c 2
 750 117 l 1
 978 580 l 2
 983 589 986 596 986 605 c 0
 986 644 930 651 916 652 c 0
 910 653 909 653 909 657 c 2
 913 683 l 1
 931 682 994 680 1031 680 c 0
 1032 680 1085 680 1123 683 c 1
 1121 673 1120 662 1118 652 c 1
 1040 651 1019 608 1007 584 c 2
 718 -2 l 2
 713 -12 708 -22 695 -22 c 0
 682 -22 681 -16 678 3 c 2
 598 506 l 1
 348 -2 l 2
 343 -12 338 -22 325 -22 c 0
 312 -22 310 -14 308 1 c 2
 212 607 l 2
 205 652 192 652 127 652 c 1
EndSplineSet
Substitution2: "LC caps to smallcaps subtable" W.sc
EndChar

StartChar: X
Encoding: 88 88 95
Width: 750
Flags: HW
TeX: 688 0
ItalicCorrection: 99
HStem: 0 31 652 31<422 427>
VStem: 24 773
AnchorPoint: "below" 375 0 basechar 0
AnchorPoint: "above" 492 705 basechar 0
LayerCount: 2
Fore
SplineSet
24 0 m 1
 26 10 27 21 29 31 c 1
 73 31 137 40 181 92 c 2
 390 339 l 1
 255 611 l 2
 238 645 226 652 162 652 c 2
 146 652 l 1
 147 660 150 674 151 683 c 1
 190 681 253 680 280 680 c 0
 319 680 391 680 427 683 c 1
 422 652 l 1
 379 651 351 634 351 620 c 0
 351 618 351 616 358 604 c 2
 453 414 l 1
 595 583 l 2
 604 593 609 599 609 611 c 0
 609 619 606 644 564 651 c 0
 556 653 555 654 555 657 c 2
 559 683 l 1
 599 680 646 680 686 680 c 0
 719 680 761 682 797 683 c 1
 792 652 l 1
 692 652 652 605 635 585 c 2
 466 386 l 1
 624 68 l 2
 639 38 654 31 714 31 c 2
 731 31 l 1
 729 21 728 10 726 0 c 1
 687 2 624 3 597 3 c 0
 559 3 485 3 450 0 c 1
 451 8 454 22 455 31 c 1
 500 32 525 51 525 62 c 0
 525 63 525 65 519 77 c 2
 404 311 l 1
 226 101 l 2
 213 85 212 75 212 72 c 0
 212 43 246 31 268 30 c 1
 262 0 l 1
 222 3 175 3 135 3 c 0
 102 3 60 1 24 0 c 1
EndSplineSet
Substitution2: "LC caps to smallcaps subtable" X.sc
EndChar

StartChar: Y
Encoding: 89 89 96
Width: 750
Flags: HW
TeX: 688 0
ItalicCorrection: 138
HStem: 0 31<228 249.5 520 520> 652 31<125 125 125 159>
VStem: 120 731<652 683>
AnchorPoint: "below" 374 0 basechar 0
AnchorPoint: "above" 492 705 basechar 0
LayerCount: 2
Fore
SplineSet
120 652 m 1
 125 683 l 1
 162 681 224 680 255 680 c 0
 293 680 367 680 402 683 c 1
 397 652 l 1
 371 652 323 652 323 624 c 0
 323 623 323 618 329 605 c 2
 459 315 l 1
 669 584 l 2
 676 593 685 604 685 618 c 0
 685 637 669 652 634 652 c 1
 639 683 l 1
 665 682 723 680 753 680 c 0
 780 680 820 681 851 683 c 1
 846 652 l 1
 807 651 753 645 707 586 c 2
 463 273 l 1
 458 243 428 76 428 60 c 0
 428 39 440 35 462 33 c 0
 482 31 497 31 525 31 c 1
 520 0 l 1
 484 3 413 3 374 3 c 0
 335 3 264 3 228 0 c 1
 233 31 l 1
 266 31 297 31 319 36 c 0
 338 41 341 63 343 75 c 0
 360 167 362 182 376 274 c 1
 224 614 l 2
 209 648 198 652 120 652 c 1
EndSplineSet
Substitution2: "LC caps to smallcaps subtable" Y.sc
EndChar

StartChar: Z
Encoding: 90 90 97
Width: 611
Flags: HW
TeX: 688 0
ItalicCorrection: 86
HStem: 0 34<164 327 327 419> 652 31<339 406 406 561>
VStem: 58 608
AnchorPoint: "below" 308 0 basechar 0
AnchorPoint: "above" 425 705 basechar 0
LayerCount: 2
Fore
SplineSet
58 11 m 0
 58 23 62 28 70 38 c 2
 561 652 l 1
 406 652 l 2
 272 652 201 604 170 458 c 1
 145 458 l 1
 194 683 l 1
 640 683 l 2
 660 683 666 683 666 672 c 0
 666 668 666 660 655 647 c 2
 164 34 l 1
 327 34 l 2
 511 34 548 124 579 267 c 1
 604 267 l 1
 543 0 l 1
 84 0 l 2
 63 0 58 0 58 11 c 0
EndSplineSet
Substitution2: "LC caps to smallcaps subtable" Z.sc
EndChar

StartChar: bracketleft
Encoding: 91 91 98
Width: 278
Flags: HW
TeX: 749 249
ItalicCorrection: 124
HStem: -250 23<133 213> 727 23<292 376>
VStem: 62 318
DStem2: 62 -250 129.168 -250 0.164359 0.986401<34.3567 1001.52>
LayerCount: 2
Fore
SplineSet
62 -250 m 1
 229 750 l 1
 380 750 l 1
 376 727 l 1
 292 727 l 1
 133 -227 l 1
 217 -227 l 1
 213 -250 l 1
 62 -250 l 1
EndSplineSet
EndChar

StartChar: backslash
Encoding: 92 92 99
Width: 500
Flags: HW
TeX: 749 249
VStem: 378 24<-247.718 -190.386>
DStem2: 204 724 181 722 0.203872 -0.978998<-14.7031 978.063>
LayerCount: 2
Fore
SplineSet
179 734 m 0
 179 745 185 748 189 748 c 0
 201 748 203 728 204 724 c 2
 400 -222 l 2
 401 -226 402 -230 402 -234 c 0
 402 -245 396 -248 392 -248 c 0
 382 -248 380 -232 378 -224 c 2
 181 722 l 2
 180 726 179 730 179 734 c 0
EndSplineSet
EndChar

StartChar: bracketright
Encoding: 93 93 100
Width: 278
Flags: HW
TeX: 749 249
ItalicCorrection: 33
HStem: -250 23<-16 68> 727 23<147 227>
VStem: -20 318
DStem2: 64.1676 -250 131 -250 0.164359 0.986401<23.3171 990.476>
LayerCount: 2
Fore
SplineSet
-20 -250 m 1
 -16 -227 l 1
 68 -227 l 1
 227 727 l 1
 143 727 l 1
 147 750 l 1
 298 750 l 1
 131 -250 l 1
 -20 -250 l 1
EndSplineSet
EndChar

StartChar: asciicircum
Encoding: 94 94 101
Width: 611
Flags: HW
TeX: 688 0
ItalicCorrection: 9
HStem: 463 165
LayerCount: 2
Fore
SplineSet
198 484 m 1
 409 628 l 1
 573 484 l 1
 573 483 l 1
 555 463 l 1
 401 575 l 1
 400 575 l 1
 209 463 l 1
 198 484 l 1
EndSplineSet
EndChar

StartChar: underscore
Encoding: 95 95 102
Width: 778
Flags: HW
TeX: 0 232
HStem: -233 40<48.0102 656.997>
LayerCount: 2
Fore
SplineSet
48 -213 m 0
 48 -197 62 -193 78 -193 c 2
 627 -193 l 2
 653 -193 657 -205 657 -213 c 0
 657 -219 653 -232 628 -233 c 1
 77 -233 l 2
 53 -233 48 -221 48 -213 c 0
EndSplineSet
EndChar

StartChar: quoteleft
Encoding: 8216 8216 103
Width: 278
Flags: HW
TeX: 688 0
ItalicCorrection: 57
HStem: 394 105<175.563 251.562> 672 20G<268.5 282.5>
VStem: 152 114<408.391 478.936>
LayerCount: 2
Fore
SplineSet
152 468 m 0
 152 585 259 692 278 692 c 0
 287 692 288 684 288 682 c 0
 288 665 189 614 175 480 c 1
 187 490 200 499 220 499 c 0
 247 499 266 481 266 454 c 0
 266 423 241 394 206 394 c 0
 167 394 152 431 152 468 c 0
EndSplineSet
EndChar

StartChar: a
Encoding: 97 97 104
Width: 500
Flags: HW
TeX: 430 0
HStem: -11 22<187.5 226.5 187.5 246.5> 240 21<366 366> 426 22<277 320.5>
VStem: 57 77<59.5 80.5 59.5 128.5> 379 68<324 354>
AnchorPoint: "ogonek" 362 0 basechar 0
AnchorPoint: "affricate-below" 468 -194 basechar 0
AnchorPoint: "affricate-above" 616 694 basechar 0
AnchorPoint: "below" 220 0 basechar 0
AnchorPoint: "above" 295 448 basechar 0
LayerCount: 2
Fore
SplineSet
57 82 m 0
 57 175 176 254 341 260 c 0
 364 261 366 261 368 262 c 0
 372 265 379 319 379 329 c 0
 379 379 349 426 292 426 c 0
 262 426 208 415 177 380 c 1
 201 379 219 366 219 340 c 0
 219 312 196 288 167 288 c 0
 136 288 126 310 126 327 c 0
 126 383 194 448 295 448 c 0
 379 448 447 398 447 322 c 0
 447 300 424 170 418 138 c 0
 416 125 407 76 407 66 c 0
 407 47 414 25 436 25 c 0
 451 25 470 38 478 68 c 0
 481 77 488 119 492 145 c 1
 517 145 l 1
 511 108 510 100 507 87 c 0
 495 14 439 -6 410 -6 c 0
 389 -6 346 4 346 73 c 1
 338 59 291 -11 202 -11 c 0
 154 -11 57 5 57 82 c 0
134 80 m 0
 134 39 166 11 209 11 c 0
 244 11 279 28 303 52 c 0
 341 89 346 120 351 150 c 2
 366 240 l 1
 134 230 134 81 134 80 c 0
EndSplineSet
Substitution2: "LC small to smallcaps subtable" A.sc
EndChar

StartChar: b
Encoding: 98 98 105
Width: 555
Flags: HW
TeX: 688 0
ItalicCorrection: 21
HStem: -11 22<267 318 253.5 364> 420 22<350.5 397> 652 42
VStem: 481 79<279.5 311.5 181 340.5>
AnchorPoint: "affricate-below" 523 -194 basechar 0
AnchorPoint: "affricate-above" 671 694 basechar 0
AnchorPoint: "below" 313 0 basechar 0
AnchorPoint: "above" 428 694 basechar 0
LayerCount: 2
Fore
SplineSet
106 0 m 1
 205 594 l 2
 208 612 208 619 208 620 c 0
 208 647 194 652 137 652 c 1
 137 655 141 680 144 682 c 0
 145 683 160 684 162 684 c 2
 288 694 l 1
 236 379 l 1
 256 399 308 442 381 442 c 0
 476 442 560 370 560 253 c 0
 560 109 430 -11 298 -11 c 0
 236 -11 198 24 178 63 c 1
 140 13 135 6 134 4 c 1
 130 1 129 0 106 0 c 1
192 96 m 0
 192 91 212 11 295 11 c 0
 341 11 397 38 434 97 c 0
 476 164 481 271 481 288 c 0
 481 393 418 420 376 420 c 0
 325 420 277 392 248 358 c 0
 232 340 232 338 229 320 c 2
 194 113 l 2
 193 109 192 100 192 96 c 0
EndSplineSet
Substitution2: "LC small to smallcaps subtable" B.sc
EndChar

StartChar: c
Encoding: 99 99 106
Width: 444
Flags: HW
TeX: 430 0
ItalicCorrection: 60
HStem: -11 25<234.5 288 234.5 316> 294 93 423 25<272 331>
VStem: 67 81<121 224.5 103 247.5> 368 94<333 338>
AnchorPoint: "affricate-below" 412 -194 basechar 0
AnchorPoint: "affricate-above" 560 694 basechar 0
AnchorPoint: "below" 251 0 basechar 0
AnchorPoint: "above" 324 448 basechar 0
LayerCount: 2
Fore
SplineSet
67 178 m 0
 67 317 187 448 324 448 c 0
 390 448 462 418 462 353 c 0
 462 313 434 294 409 294 c 0
 378 294 368 316 368 333 c 0
 368 343 373 384 425 386 c 1
 396 421 338 423 324 423 c 0
 220 423 148 292 148 157 c 0
 148 49 210 14 259 14 c 0
 317 14 374 47 407 115 c 0
 413 127 414 129 422 129 c 0
 427 129 434 127 434 119 c 0
 434 110 383 -11 249 -11 c 0
 149 -11 67 64 67 178 c 0
EndSplineSet
Substitution2: "LC small to smallcaps subtable" C.sc
EndChar

StartChar: d
Encoding: 100 100 107
Width: 555
Flags: HW
TeX: 688 0
ItalicCorrection: 39
HStem: -11 22<231.5 276 231.5 286.5> 420 22<311.5 365.5 264 372.5> 652 42
VStem: 67 79<118.5 152.5 89 251>
AnchorPoint: "affricate-below" 523 -194 basechar 0
AnchorPoint: "affricate-above" 671 694 basechar 0
AnchorPoint: "below" 281 0 basechar 0
AnchorPoint: "above" 356 694 basechar 0
LayerCount: 2
Fore
SplineSet
67 178 m 0
 67 324 199 442 329 442 c 0
 402 442 436 395 446 379 c 1
 482 594 l 2
 485 612 485 619 485 620 c 0
 485 647 471 652 414 652 c 1
 414 655 418 680 421 682 c 0
 422 683 437 684 439 684 c 2
 565 694 l 1
 464 90 l 2
 461 72 461 65 461 63 c 0
 461 36 473 31 532 31 c 1
 532 28 528 3 525 1 c 0
 524 0 509 -1 507 -1 c 2
 378 -11 l 1
 388 53 l 1
 381 46 327 -11 246 -11 c 0
 152 -11 67 59 67 178 c 0
146 143 m 0
 146 35 212 11 251 11 c 0
 301 11 348 40 379 77 c 0
 396 98 396 99 399 118 c 2
 434 325 l 2
 436 336 436 338 436 341 c 0
 436 347 413 420 332 420 c 0
 291 420 238 397 200 345 c 1
 151 275 146 162 146 143 c 0
EndSplineSet
Substitution2: "LC small to smallcaps subtable" D.sc
EndChar

StartChar: e
Encoding: 101 101 108
Width: 444
Flags: HW
TeX: 430 0
ItalicCorrection: 56
HStem: -11 25<231 267.5 231 309.5> 231 21<154 390 154 428 150 390> 426 22<296 345 241.5 351.5>
VStem: 61 80<126 166 97 247.5> 395 65<297 318>
AnchorPoint: "ogonek" 250 0 basechar 0
AnchorPoint: "affricate-below" 412 -194 basechar 0
AnchorPoint: "affricate-above" 560 694 basechar 0
AnchorPoint: "below" 250 0 basechar 0
AnchorPoint: "above" 309 448 basechar 0
LayerCount: 2
Fore
SplineSet
61 182 m 0
 61 313 174 448 309 448 c 0
 381 448 460 412 460 294 c 0
 460 288 460 272 457 250 c 0
 454 231 452 231 428 231 c 2
 150 231 l 1
 147 216 141 181 141 151 c 0
 141 43 208 14 254 14 c 0
 281 14 360 25 408 117 c 0
 413 127 415 131 423 131 c 0
 432 131 434 124 434 120 c 0
 434 103 371 -11 248 -11 c 0
 143 -11 61 70 61 182 c 0
154 252 m 1
 390 252 l 1
 394 279 395 286 395 308 c 0
 395 328 395 426 308 426 c 0
 284 426 189 411 154 252 c 1
EndSplineSet
Substitution2: "LC small to smallcaps subtable" E.sc
EndChar

StartChar: f
Encoding: 102 102 109
Width: 305
Flags: HW
TeX: 688 0
ItalicCorrection: 193
HStem: 0 31<34 72 275 275> 400 31<105 178 100 184 247 359> 683 22<366.5 386.5>
VStem: 375 88<625.5 637>
AnchorPoint: "affricate-below" 273 -194 basechar 0
AnchorPoint: "affricate-above" 421 694 basechar 0
AnchorPoint: "above" 381 694 basechar 0
AnchorPoint: "below" 144 0 basechar 0
LayerCount: 2
Fore
SplineSet
34 0 m 1
 39 31 l 1
 105 31 117 31 124 74 c 2
 178 400 l 1
 100 400 l 1
 105 431 l 1
 184 431 l 1
 191 477 196 509 204 553 c 0
 221 646 306 705 383 705 c 0
 422 705 463 685 463 643 c 0
 463 608 438 591 414 591 c 0
 384 591 375 612 375 628 c 0
 375 646 386 669 414 677 c 1
 406 680 391 683 382 683 c 0
 351 683 323 661 302 635 c 1
 275 599 270 569 262 521 c 2
 247 431 l 1
 364 431 l 1
 359 400 l 1
 245 400 l 1
 191 78 l 2
 188 64 188 62 188 59 c 0
 188 36 205 35 222 33 c 0
 240 31 253 31 280 31 c 1
 275 0 l 1
 243 2 155 3 149 3 c 0
 120 3 74 1 34 0 c 1
EndSplineSet
Substitution2: "LC small to smallcaps subtable" F.sc
EndChar

StartChar: g
Encoding: 103 103 110
Width: 500
Flags: HW
TeX: 430 194
ItalicCorrection: 85
HStem: -206 23<171.5 264.5> 7 58<187.5 229 229 268> 149 23<236.5 265.5 234.5 298.5> 374 79<510.5 526.5>
VStem: 14 52<-115 -79.5 -115 -67.5> 93 34<105 118.5> 407 53<-96.5 -29.5> 493 60<397 407.5>
AnchorPoint: "affricate-below" 468 -194 basechar 0
AnchorPoint: "affricate-above" 616 694 basechar 0
AnchorPoint: "below" 219 -194 basechar 0
AnchorPoint: "above" 297 448 basechar 0
LayerCount: 2
Fore
SplineSet
14 -90 m 0
 14 -45 55 3 123 22 c 1
 108 34 93 57 93 91 c 0
 93 146 131 186 139 194 c 1
 123 211 108 238 108 276 c 0
 108 365 197 442 294 442 c 0
 351 442 385 416 395 406 c 1
 429 436 472 453 508 453 c 0
 547 453 553 420 553 410 c 0
 553 384 533 374 520 374 c 0
 501 374 493 389 493 400 c 0
 493 415 507 428 512 430 c 1
 512 431 l 1
 499 431 453 431 409 391 c 1
 426 368 435 343 435 315 c 0
 435 229 348 149 249 149 c 0
 224 149 186 154 154 180 c 1
 128 154 127 124 127 119 c 0
 127 91 144 66 173 65 c 1
 229 65 l 2
 327 65 460 65 460 -56 c 0
 460 -166 312 -206 217 -206 c 0
 97 -206 14 -155 14 -90 c 0
66 -91 m 0
 66 -139 125 -183 218 -183 c 0
 320 -183 407 -127 407 -66 c 0
 407 7 312 7 224 7 c 0
 151 7 140 7 113 -12 c 0
 79 -35 66 -68 66 -91 c 0
179 249 m 0
 179 190 219 172 250 172 c 0
 281 172 317 191 336 226 c 1
 359 265 363 333 363 342 c 0
 363 406 317 419 293 419 c 0
 264 419 230 402 208 368 c 0
 184 330 179 257 179 249 c 0
EndSplineSet
Substitution2: "LC small to smallcaps subtable" G.sc
EndChar

StartChar: h
Encoding: 104 104 111
Width: 555
Flags: HW
TeX: 688 0
HStem: 0 31<32 38 256 256 534 534> 420 22<368.5 404.5> 652 42
VStem: 444 67<345.5 376.5>
AnchorPoint: "affricate-below" 523 -194 basechar 0
AnchorPoint: "affricate-above" 671 694 basechar 0
AnchorPoint: "below" 283 0 basechar 0
AnchorPoint: "above" 399 694 basechar 0
LayerCount: 2
Fore
SplineSet
32 0 m 1
 37 31 l 1
 38 31 l 2
 112 31 116 36 122 74 c 2
 209 594 l 2
 212 612 212 619 212 620 c 0
 212 647 198 652 141 652 c 1
 141 655 145 680 148 682 c 0
 149 683 164 684 166 684 c 2
 292 694 l 1
 234 349 l 1
 235 348 l 1
 255 381 308 442 393 442 c 0
 462 442 511 416 511 340 c 0
 511 324 511 321 508 303 c 2
 469 71 l 2
 468 66 467 60 467 56 c 0
 467 31 490 31 540 31 c 1
 534 0 l 1
 502 1 448 3 423 3 c 0
 397 3 344 1 310 0 c 1
 315 31 l 1
 316 31 l 2
 377 31 393 31 399 69 c 2
 433 269 l 2
 442 327 444 338 444 353 c 0
 444 400 424 420 385 420 c 0
 352 420 314 404 284 377 c 1
 235 330 226 282 221 249 c 0
 213 205 206 161 199 117 c 0
 196 97 189 59 189 56 c 0
 189 31 212 31 262 31 c 1
 256 0 l 1
 224 1 170 3 145 3 c 0
 119 3 66 1 32 0 c 1
EndSplineSet
Substitution2: "LC small to smallcaps subtable" H.sc
EndChar

StartChar: i
Encoding: 105 105 112
Width: 277
Flags: HW
TeX: 663 0
ItalicCorrection: 52
HStem: 0 31<33 39 246 246> 400 42 563 106<224 240.5>
VStem: 178 107<607.5 627>
AnchorPoint: "above" 251 649 basechar 0
AnchorPoint: "ogonek" 140 0 basechar 0
AnchorPoint: "affricate-below" 245 -194 basechar 0
AnchorPoint: "affricate-above" 393 694 basechar 0
AnchorPoint: "below" 143 0 basechar 0
LayerCount: 2
Fore
SplineSet
33 0 m 1
 38 31 l 1
 39 31 l 2
 113 31 117 36 123 74 c 2
 168 342 l 2
 171 360 171 367 171 368 c 0
 171 395 158 400 104 400 c 1
 104 402 108 422 108 425 c 0
 109 430 110 432 128 433 c 2
 251 442 l 1
 190 78 l 2
 187 62 187 60 187 55 c 0
 187 31 207 31 252 31 c 1
 246 0 l 1
 218 1 180 3 143 3 c 0
 119 3 65 1 33 0 c 1
178 609 m 0
 178 645 210 669 238 669 c 0
 268 669 285 646 285 623 c 0
 285 592 256 563 225 563 c 0
 199 563 178 580 178 609 c 0
EndSplineSet
Substitution2: "LC small to smallcaps subtable" I.sc
EndChar

StartChar: j
Encoding: 106 106 113
Width: 305
Flags: HW
TeX: 663 194
ItalicCorrection: 34
HStem: -205 22<36.5 68.5 36.5 79> 400 42 563 106<250.5 268>
VStem: -62 94<-126 -120> 206 107<606.5 625>
AnchorPoint: "affricate-below" 273 -194 basechar 0
AnchorPoint: "affricate-above" 421 694 basechar 0
AnchorPoint: "below" 76 -194 basechar 0
LayerCount: 2
Fore
SplineSet
206 609 m 0
 206 641 235 669 266 669 c 0
 292 669 313 651 313 623 c 0
 313 590 283 563 253 563 c 0
 225 563 206 585 206 609 c 0
EndSplineSet
Refer: 33 567 S 1 0 0 1 0 0 3
Substitution2: "LC small to smallcaps subtable" J.sc
EndChar

StartChar: k
Encoding: 107 107 114
Width: 527
Flags: HW
TeX: 688 0
ItalicCorrection: 60
HStem: 0 31<28 34 246 246 510 510> 401 30<378 378 378 379> 652 32<161 162 161 165.5>
VStem: 28 531<0 431>
AnchorPoint: "affricate-below" 495 -194 basechar 0
AnchorPoint: "affricate-above" 643 694 basechar 0
AnchorPoint: "below" 269 0 basechar 0
AnchorPoint: "above" 385 694 basechar 0
LayerCount: 2
Fore
SplineSet
28 0 m 1
 33 31 l 1
 34 31 l 2
 108 31 112 36 118 74 c 2
 205 594 l 2
 208 612 208 619 208 620 c 0
 208 647 194 652 137 652 c 1
 137 655 141 680 144 682 c 0
 145 683 160 684 162 684 c 2
 288 694 l 1
 208 215 l 1
 256 250 303 286 350 322 c 0
 379 345 398 359 398 379 c 0
 398 392 386 401 372 401 c 1
 378 431 l 1
 400 430 462 428 489 428 c 0
 491 428 529 428 559 431 c 1
 554 400 l 1
 538 399 494 398 427 351 c 0
 416 343 326 277 326 274 c 0
 326 273 331 263 332 261 c 2
 429 84 l 2
 455 37 469 31 516 31 c 1
 510 0 l 1
 483 2 451 3 424 3 c 0
 403 3 343 1 316 0 c 1
 321 31 l 1
 347 31 361 39 361 59 c 0
 361 71 356 81 346 98 c 1
 322 144 287 209 272 234 c 1
 199 179 l 1
 196 163 179 57 179 56 c 0
 179 31 202 31 252 31 c 1
 246 0 l 1
 220 1 160 3 138 3 c 0
 114 3 61 1 28 0 c 1
EndSplineSet
Substitution2: "LC small to smallcaps subtable" K.sc
EndChar

StartChar: l
Encoding: 108 108 115
Width: 277
Flags: HW
TeX: 688 0
ItalicCorrection: 39
HStem: 0 31<33 39 254 254> 652 32<166 167 166 170.5>
VStem: 33 260
AnchorPoint: "affricate-below" 245 -194 basechar 0
AnchorPoint: "affricate-above" 393 694 basechar 0
AnchorPoint: "below" 144 0 basechar 0
AnchorPoint: "above" 259 694 basechar 0
LayerCount: 2
Fore
SplineSet
33 0 m 1
 38 31 l 1
 39 31 l 2
 113 31 117 36 123 74 c 2
 210 594 l 2
 213 612 213 619 213 620 c 0
 213 647 199 652 142 652 c 1
 142 655 146 680 149 682 c 0
 150 683 165 684 167 684 c 2
 293 694 l 1
 189 71 l 2
 188 66 187 60 187 56 c 0
 187 31 210 31 260 31 c 1
 254 0 l 1
 218 1 168 3 144 3 c 0
 119 3 66 1 33 0 c 1
EndSplineSet
Substitution2: "LC small to smallcaps subtable" L.sc
EndChar

StartChar: m
Encoding: 109 109 116
Width: 833
Flags: HW
TeX: 430 0
HStem: 0 31<32 38 256 256 534 534 812 812> 420 22<368.5 404.5 646.5 682.5>
VStem: 722 67<345.5 376.5>
AnchorPoint: "affricate-below" 801 -194 basechar 0
AnchorPoint: "affricate-above" 949 694 basechar 0
AnchorPoint: "below" 422 0 basechar 0
AnchorPoint: "above" 497 448 basechar 0
LayerCount: 2
Fore
SplineSet
32 0 m 1
 37 31 l 1
 38 31 l 2
 112 31 116 36 122 74 c 2
 167 342 l 2
 170 360 170 367 170 368 c 0
 170 395 156 400 99 400 c 1
 99 403 103 428 106 430 c 0
 107 431 122 432 124 432 c 2
 247 442 l 1
 230 343 l 1
 231 342 l 1
 246 368 300 442 393 442 c 0
 437 442 508 432 512 345 c 1
 538 389 592 442 671 442 c 0
 740 442 789 416 789 340 c 0
 789 324 789 321 786 303 c 2
 747 71 l 2
 746 66 745 60 745 56 c 0
 745 31 768 31 818 31 c 1
 812 0 l 1
 780 1 726 3 701 3 c 0
 675 3 622 1 588 0 c 1
 593 31 l 1
 594 31 l 2
 655 31 671 31 677 69 c 2
 711 269 l 2
 720 327 722 338 722 353 c 0
 722 400 702 420 663 420 c 0
 630 420 592 404 562 377 c 1
 513 330 504 282 499 249 c 0
 491 205 484 161 477 117 c 0
 474 97 467 59 467 56 c 0
 467 31 490 31 540 31 c 1
 534 0 l 1
 502 1 448 3 423 3 c 0
 397 3 344 1 310 0 c 1
 315 31 l 1
 316 31 l 2
 377 31 393 31 399 69 c 2
 433 269 l 2
 442 327 444 338 444 353 c 0
 444 400 424 420 385 420 c 0
 352 420 314 404 284 377 c 1
 235 330 226 282 221 249 c 0
 213 205 206 161 199 117 c 0
 196 97 189 59 189 56 c 0
 189 31 212 31 262 31 c 1
 256 0 l 1
 224 1 170 3 145 3 c 0
 119 3 66 1 32 0 c 1
EndSplineSet
Substitution2: "LC small to smallcaps subtable" M.sc
EndChar

StartChar: n
Encoding: 110 110 117
Width: 555
Flags: HW
TeX: 430 0
HStem: 0 31<32 63 257 257 535 535> 420 22<368.5 404.5>
VStem: 444 67<345.5 376.5>
AnchorPoint: "affricate-below" 523 -194 basechar 0
AnchorPoint: "affricate-above" 671 694 basechar 0
AnchorPoint: "below" 283 0 basechar 0
AnchorPoint: "above" 358 448 basechar 0
LayerCount: 2
Fore
SplineSet
32 0 m 1
 37 31 l 1
 89 31 112 31 119 59 c 0
 120 61 126 95 129 113 c 0
 134 143 170 359 170 368 c 0
 170 395 156 400 99 400 c 1
 104 431 l 1
 247 442 l 1
 230 343 l 1
 231 342 l 1
 246 368 300 442 393 442 c 0
 462 442 511 416 511 340 c 0
 511 323 505 287 501 261 c 0
 495 227 492 208 486 172 c 0
 483 156 467 61 467 56 c 0
 467 31 490 31 540 31 c 1
 535 0 l 1
 501 1 449 3 423 3 c 0
 397 3 344 1 310 0 c 1
 315 31 l 1
 377 31 393 31 399 69 c 2
 433 269 l 2
 442 327 444 338 444 353 c 0
 444 400 424 420 385 420 c 0
 352 420 314 404 284 377 c 1
 235 330 226 282 221 249 c 0
 213 205 206 161 199 117 c 0
 196 97 189 59 189 56 c 0
 189 31 212 31 262 31 c 1
 257 0 l 1
 223 1 171 3 145 3 c 0
 119 3 66 1 32 0 c 1
EndSplineSet
Substitution2: "LC small to smallcaps subtable" N.sc
EndChar

StartChar: o
Encoding: 111 111 118
Width: 500
Flags: HW
TeX: 430 0
ItalicCorrection: 50
HStem: -11 25<238 278 238 314.5> 426 22<311.5 336>
VStem: 60 80<124 162.5 84 242.5> 433 77<287.5 309.5 181.5 355>
AnchorPoint: "ogonek" 250 0 basechar 0
AnchorPoint: "affricate-below" 468 -194 basechar 0
AnchorPoint: "affricate-above" 616 694 basechar 0
AnchorPoint: "below" 250 0 basechar 0
AnchorPoint: "above" 324 448 basechar 0
LayerCount: 2
Fore
SplineSet
60 176 m 0
 60 309 182 448 324 448 c 0
 432 448 510 365 510 254 c 0
 510 109 381 -11 248 -11 c 0
 136 -11 60 72 60 176 c 0
140 144 m 0
 140 24 224 14 252 14 c 0
 304 14 359 45 390 102 c 0
 425 168 433 276 433 299 c 0
 433 411 352 426 320 426 c 0
 303 426 233 422 184 342 c 0
 153 291 140 181 140 144 c 0
EndSplineSet
Substitution2: "LC small to smallcaps subtable" O.sc
EndChar

StartChar: p
Encoding: 112 112 119
Width: 555
Flags: HW
TeX: 430 194
ItalicCorrection: 30
HStem: -194 31<-4 33 221 221> -11 22<266 337.5 266 363> 417 25<354.5 405>
VStem: 478 82<196 311 180.5 312>
AnchorPoint: "affricate-below" 523 -194 basechar 0
AnchorPoint: "affricate-above" 671 694 basechar 0
AnchorPoint: "below" 280 -194 basechar 0
AnchorPoint: "above" 387 448 basechar 0
LayerCount: 2
Fore
SplineSet
-4 -194 m 1
 1 -163 l 1
 65 -163 78 -163 85 -123 c 2
 164 348 l 2
 165 356 167 365 167 372 c 0
 167 396 152 400 95 400 c 1
 100 431 l 1
 246 442 l 1
 235 377 l 1
 246 389 302 442 383 442 c 0
 481 442 560 368 560 254 c 0
 560 107 428 -11 298 -11 c 0
 228 -11 195 33 184 51 c 1
 180 27 153 -128 153 -138 c 0
 153 -160 163 -163 226 -163 c 1
 221 -194 l 1
 186 -193 135 -191 108 -191 c 0
 82 -191 30 -193 -4 -194 c 1
191 95 m 1
 204 50 238 11 294 11 c 0
 381 11 478 125 478 267 c 0
 478 357 435 417 375 417 c 0
 334 417 275 397 232 336 c 1
 191 95 l 1
EndSplineSet
Substitution2: "LC small to smallcaps subtable" P.sc
EndChar

StartChar: q
Encoding: 113 113 120
Width: 527
Flags: HW
TeX: 430 194
ItalicCorrection: 23
HStem: -194 31<494 494> -11 22<216.5 268 216.5 288.5> 417 25<287.5 356 262.5 376.5>
VStem: 67 81<125.5 231.5 125.5 250.5>
AnchorPoint: "affricate-below" 495 -194 basechar 0
AnchorPoint: "affricate-above" 643 694 basechar 0
AnchorPoint: "below" 209 -194 basechar 0
AnchorPoint: "above" 316 448 basechar 0
LayerCount: 2
Fore
SplineSet
67 178 m 0
 67 323 198 442 327 442 c 0
 385 442 426 410 448 350 c 1
 493 429 l 2
 500 441 501 441 503 441 c 1
 504 442 506 442 523 442 c 1
 430 -114 l 2
 429 -122 427 -131 427 -138 c 0
 427 -160 437 -163 500 -163 c 1
 494 -194 l 1
 461 -193 408 -191 382 -191 c 0
 356 -191 304 -193 270 -194 c 1
 271 -185 274 -171 275 -163 c 1
 326 -163 347 -163 356 -140 c 1
 358 -132 383 19 389 59 c 1
 385 54 331 -11 246 -11 c 0
 153 -11 67 58 67 178 c 0
148 162 m 0
 148 89 182 11 251 11 c 0
 285 11 340 26 388 95 c 0
 402 116 402 118 405 135 c 2
 429 276 l 2
 432 291 432 293 432 298 c 0
 432 315 421 417 332 417 c 0
 243 417 148 301 148 162 c 0
EndSplineSet
Substitution2: "LC small to smallcaps subtable" Q.sc
EndChar

StartChar: r
Encoding: 114 114 121
Width: 391
Flags: HW
TeX: 430 0
ItalicCorrection: 71
HStem: 0 31<28 34> 420 22<330 368>
VStem: 341 87<372 384>
AnchorPoint: "affricate-below" 359 -194 basechar 0
AnchorPoint: "affricate-above" 507 694 basechar 0
AnchorPoint: "below" 148 0 basechar 0
AnchorPoint: "above" 256 448 basechar 0
LayerCount: 2
Fore
SplineSet
28 0 m 1
 33 31 l 1
 34 31 l 2
 108 31 112 36 118 74 c 2
 163 342 l 2
 166 360 166 367 166 368 c 0
 166 395 152 400 95 400 c 1
 95 402 99 422 99 425 c 0
 100 430 101 432 119 433 c 2
 241 442 l 1
 224 338 l 1
 225 337 l 1
 249 389 298 442 362 442 c 0
 401 442 428 419 428 387 c 0
 428 357 404 337 379 337 c 0
 366 337 341 344 341 374 c 0
 341 394 352 412 368 419 c 1
 368 420 l 1
 277 420 236 326 219 270 c 1
 214 250 182 73 182 59 c 0
 182 37 194 31 255 31 c 2
 274 31 l 1
 272 21 271 10 269 0 c 1
 237 2 149 3 143 3 c 0
 114 3 68 1 28 0 c 1
EndSplineSet
Substitution2: "LC small to smallcaps subtable" R.sc
EndChar

StartChar: s
Encoding: 115 115 122
Width: 394
Flags: HW
TeX: 430 0
ItalicCorrection: 41
HStem: -11 22<179.5 252 174.5 272> 429 19<202.5 272.5 194.5 275.5>
VStem: 86 53<317 334> 330 53<121 146.5>
AnchorPoint: "affricate-below" 362 -194 basechar 0
AnchorPoint: "affricate-above" 510 694 basechar 0
AnchorPoint: "below" 201 0 basechar 0
AnchorPoint: "above" 266 448 basechar 0
LayerCount: 2
Fore
SplineSet
33 0 m 0
 33 4 33 6 35 15 c 2
 58 149 l 2
 61 167 62 170 72 170 c 0
 84 170 84 165 85 149 c 0
 91 28 150 11 199 11 c 0
 305 11 330 82 330 116 c 0
 330 177 270 189 226 198 c 0
 179 207 149 213 122 236 c 0
 102 253 86 276 86 310 c 0
 86 358 123 448 266 448 c 0
 279 448 323 448 356 420 c 1
 363 426 364 426 376 435 c 1
 391 448 393 448 397 448 c 0
 405 448 408 443 408 437 c 0
 408 434 408 432 406 423 c 2
 389 322 l 2
 386 305 385 299 374 299 c 0
 371 299 362 300 362 309 c 0
 362 312 364 325 364 338 c 0
 364 429 285 429 266 429 c 0
 139 429 139 343 139 342 c 0
 139 292 195 281 240 272 c 0
 294 262 320 257 349 227 c 1
 367 210 383 185 383 147 c 0
 383 95 345 -11 199 -11 c 0
 160 -11 122 -1 96 33 c 1
 91 28 77 15 71 10 c 0
 50 -10 49 -11 44 -11 c 0
 37 -11 33 -7 33 0 c 0
EndSplineSet
Substitution2: "LC small to smallcaps subtable" S.sc
EndChar

StartChar: t
Encoding: 116 116 123
Width: 388
Flags: HW
TeX: 614 0
ItalicCorrection: 21
HStem: -11 25<220 256.5> 400 31<245 383 240 388> 595 20<250 275 275 275>
VStem: 122 67<67.5 87.5 67.5 100.5>
AnchorPoint: "affricate-below" 356 -194 basechar 0
AnchorPoint: "affricate-above" 504 694 basechar 0
AnchorPoint: "below" 213 0 basechar 0
AnchorPoint: "above" 241 615 basechar 0
LayerCount: 2
Fore
SplineSet
86 400 m 1
 89 422 l 1
 181 425 234 521 250 615 c 1
 275 615 l 1
 245 431 l 1
 388 431 l 1
 386 421 385 410 383 400 c 1
 240 400 l 1
 191 104 l 2
 190 97 189 93 189 82 c 0
 189 53 199 14 241 14 c 0
 279 14 302 53 310 68 c 0
 323 94 325 108 337 181 c 1
 362 181 l 1
 349 98 347 85 329 54 c 1
 311 20 280 -11 233 -11 c 0
 203 -11 122 -3 122 94 c 0
 122 107 122 109 125 127 c 2
 170 400 l 1
 86 400 l 1
EndSplineSet
Substitution2: "LC small to smallcaps subtable" T.sc
EndChar

StartChar: u
Encoding: 117 117 124
Width: 555
Flags: HW
TeX: 430 0
HStem: -11 22<230.5 282.5 230.5 306.5> 400 42
VStem: 128 65<62.5 70.5 58.5 102.5>
AnchorPoint: "ogonek" 423 0 basechar 0
AnchorPoint: "affricate-below" 523 -194 basechar 0
AnchorPoint: "affricate-above" 671 694 basechar 0
AnchorPoint: "below" 283 0 basechar 0
AnchorPoint: "above" 357 448 basechar 0
LayerCount: 2
Fore
SplineSet
99 400 m 1
 99 403 103 428 106 430 c 0
 107 431 122 432 124 432 c 2
 253 442 l 1
 195 96 l 2
 194 92 193 73 193 68 c 0
 193 49 194 11 267 11 c 0
 298 11 329 21 361 53 c 0
 404 97 412 149 418 180 c 2
 439 306 l 2
 442 327 448 361 448 368 c 0
 448 395 434 400 377 400 c 1
 377 403 381 428 384 430 c 0
 385 431 400 432 402 432 c 2
 531 442 l 1
 472 90 l 2
 469 72 469 65 469 63 c 0
 469 36 481 31 540 31 c 1
 540 28 536 3 533 1 c 0
 532 0 517 -1 515 -1 c 2
 389 -11 l 1
 403 73 l 1
 402 74 l 1
 396 64 351 -11 262 -11 c 0
 159 -11 128 32 128 93 c 0
 128 112 138 168 144 206 c 0
 148 228 170 358 170 368 c 0
 170 395 156 400 99 400 c 1
EndSplineSet
Substitution2: "LC small to smallcaps subtable" U.sc
EndChar

StartChar: v
Encoding: 118 118 125
Width: 527
Flags: HW
TeX: 430 0
ItalicCorrection: 85
HStem: -11 21<255 267> 400 31<92 92 92 115.5>
VStem: 86 494<400 431>
AnchorPoint: "affricate-below" 495 -194 basechar 0
AnchorPoint: "affricate-above" 643 694 basechar 0
AnchorPoint: "below" 264 0 basechar 0
AnchorPoint: "above" 338 448 basechar 0
LayerCount: 2
Fore
SplineSet
86 400 m 1
 92 431 l 1
 116 430 155 428 187 428 c 0
 210 428 268 430 297 431 c 1
 295 421 294 410 292 400 c 1
 274 400 231 400 231 370 c 0
 231 368 233 357 233 355 c 2
 299 78 l 1
 442 330 l 2
 450 344 454 351 454 364 c 0
 454 399 416 401 413 401 c 1
 419 431 l 1
 433 430 479 428 505 428 c 0
 528 428 557 429 580 431 c 1
 575 400 l 1
 509 399 484 356 472 334 c 2
 287 9 l 2
 278 -7 272 -11 262 -11 c 0
 248 -11 247 -4 243 11 c 2
 161 360 l 2
 153 396 145 400 86 400 c 1
EndSplineSet
Substitution2: "LC small to smallcaps subtable" V.sc
EndChar

StartChar: w
Encoding: 119 119 126
Width: 722
Flags: HW
TeX: 430 0
ItalicCorrection: 85
HStem: -11 21<232 244.5 474 487> 400 31<91 91 91 115>
VStem: 85 689
AnchorPoint: "affricate-below" 690 -194 basechar 0
AnchorPoint: "affricate-above" 838 694 basechar 0
AnchorPoint: "below" 361 0 basechar 0
AnchorPoint: "above" 434 448 basechar 0
LayerCount: 2
Fore
SplineSet
85 400 m 1
 91 431 l 1
 121 429 170 428 183 428 c 0
 199 428 266 430 291 431 c 1
 286 400 l 1
 266 400 223 400 223 368 c 0
 223 366 226 349 227 346 c 2
 276 88 l 1
 402 330 l 1
 398 350 393 381 386 388 c 1
 377 400 353 400 328 400 c 1
 334 431 l 1
 363 429 415 428 421 428 c 0
 447 428 498 430 525 431 c 1
 520 400 l 1
 500 400 457 400 457 368 c 0
 457 367 460 349 461 346 c 2
 512 75 l 1
 646 331 l 2
 649 335 649 337 650 340 c 0
 653 346 653 348 654 356 c 0
 655 357 655 358 655 360 c 0
 655 398 607 401 604 401 c 1
 610 431 l 1
 626 430 671 428 702 428 c 0
 724 428 752 429 774 431 c 1
 772 421 771 410 769 400 c 1
 734 399 701 387 675 336 c 2
 503 8 l 2
 497 -4 493 -11 481 -11 c 0
 467 -11 467 -6 463 12 c 2
 409 292 l 1
 261 9 l 2
 255 -3 251 -11 238 -11 c 0
 226 -11 223 -6 219 13 c 2
 154 357 l 2
 147 394 145 400 85 400 c 1
EndSplineSet
Substitution2: "LC small to smallcaps subtable" W.sc
EndChar

StartChar: x
Encoding: 120 120 127
Width: 527
Flags: HW
TeX: 430 0
ItalicCorrection: 68
HStem: 0 31<312 317 515 515> 400 31<89 89 89 112.5>
VStem: 12 558
AnchorPoint: "affricate-below" 495 -194 basechar 0
AnchorPoint: "affricate-above" 643 694 basechar 0
AnchorPoint: "below" 264 0 basechar 0
AnchorPoint: "above" 338 448 basechar 0
LayerCount: 2
Fore
SplineSet
12 0 m 1
 13 9 16 23 17 31 c 1
 94 32 135 71 161 98 c 0
 170 106 264 204 269 210 c 1
 178 362 l 2
 156 398 141 400 84 400 c 1
 89 431 l 1
 113 430 152 428 184 428 c 0
 200 428 266 430 292 431 c 1
 291 422 288 408 287 400 c 1
 258 398 247 383 247 372 c 0
 247 369 247 367 256 354 c 1
 315 256 l 1
 322 264 364 307 367 311 c 0
 395 338 411 354 411 375 c 0
 411 399 394 400 387 401 c 1
 392 431 l 1
 404 430 451 428 487 428 c 0
 515 428 542 429 570 431 c 1
 568 421 567 410 565 400 c 1
 537 400 486 395 433 346 c 1
 409 322 351 260 327 236 c 1
 381 145 l 2
 404 107 431 63 434 57 c 1
 453 31 474 31 521 31 c 1
 515 0 l 1
 488 2 447 3 421 3 c 0
 398 3 342 1 312 0 c 1
 317 31 l 1
 348 32 357 49 357 59 c 0
 357 63 347 81 340 91 c 1
 321 124 301 157 281 189 c 1
 191 96 l 2
 183 88 171 72 171 56 c 0
 171 32 188 31 195 30 c 1
 190 0 l 1
 178 1 131 3 95 3 c 0
 67 3 40 2 12 0 c 1
EndSplineSet
Substitution2: "LC small to smallcaps subtable" X.sc
EndChar

StartChar: y
Encoding: 121 121 128
Width: 527
Flags: HW
TeX: 430 194
ItalicCorrection: 85
HStem: -205 22<75 101.5 75 117.5> 400 31<92 92 92 116.5>
VStem: -3 86<-124.5 -116.5>
AnchorPoint: "affricate-below" 495 -194 basechar 0
AnchorPoint: "affricate-above" 643 694 basechar 0
AnchorPoint: "below" 231 -194 basechar 0
AnchorPoint: "above" 337 448 basechar 0
LayerCount: 2
Fore
SplineSet
-3 -135 m 0
 -3 -98 25 -81 47 -81 c 0
 63 -81 83 -89 83 -115 c 0
 83 -134 71 -161 36 -165 c 1
 50 -180 69 -183 81 -183 c 0
 122 -183 156 -150 179 -118 c 0
 197 -94 249 -2 249 1 c 0
 249 3 248 7 246 16 c 2
 160 364 l 2
 152 395 147 400 86 400 c 1
 92 431 l 1
 118 429 158 428 188 428 c 0
 211 428 267 430 297 431 c 1
 296 422 293 408 292 400 c 1
 273 400 231 400 231 370 c 0
 231 366 233 359 234 355 c 2
 300 87 l 1
 441 330 l 2
 446 339 454 352 454 365 c 0
 454 397 420 401 413 401 c 1
 419 431 l 1
 433 430 479 428 505 428 c 0
 534 428 548 428 579 431 c 1
 574 400 l 1
 525 398 496 377 472 336 c 2
 222 -95 l 2
 216 -105 158 -205 77 -205 c 0
 32 -205 -3 -176 -3 -135 c 0
EndSplineSet
Substitution2: "LC small to smallcaps subtable" Y.sc
EndChar

StartChar: z
Encoding: 122 122 129
Width: 444
Flags: HW
TeX: 430 0
ItalicCorrection: 55
HStem: 0 25<112 231 231 292> 409 22<222 273 273 388>
VStem: 30 439<5.5 426>
AnchorPoint: "affricate-below" 412 -194 basechar 0
AnchorPoint: "affricate-above" 560 694 basechar 0
AnchorPoint: "below" 214 0 basechar 0
AnchorPoint: "above" 289 448 basechar 0
LayerCount: 2
Fore
SplineSet
30 11 m 0
 30 18 31 18 42 31 c 2
 388 409 l 1
 273 409 l 2
 171 409 136 383 112 270 c 1
 87 270 l 1
 125 431 l 1
 443 431 l 2
 462 431 469 431 469 421 c 0
 469 414 466 411 458 402 c 2
 112 25 l 1
 231 25 l 2
 353 25 378 70 407 187 c 1
 432 187 l 1
 384 0 l 1
 56 0 l 2
 35 0 30 0 30 11 c 0
EndSplineSet
Substitution2: "LC small to smallcaps subtable" Z.sc
EndChar

StartChar: braceleft
Encoding: 123 123 130
Width: 500
Flags: HW
TeX: 749 249
ItalicCorrection: 80
HStem: -250 24<319.828 385.899> 237 28<115.052 186.551> 718 32<453.089 548.15>
VStem: 194 70<-189.239 4.625> 237 70<4.625 200.449>
DStem2: 273 360 341 350 0.178756 0.983893<-48.7229 336.748>
LayerCount: 2
Fore
SplineSet
115 250 m 0
 115 265 131 259 158 265 c 0
 210 276 257 312 273 360 c 0
 283 391 312 612 325 645 c 0
 355 720 458 750 531 750 c 0
 541 750 549 747 549 738 c 0
 549 722 525 731 486 718 c 0
 448 705 411 679 395 641 c 0
 382 610 353 383 341 350 c 0
 320 292 265 267 207 250 c 1
 254 235 307 207 307 143 c 0xe8
 307 116 264 -109 264 -136 c 0
 264 -176 295 -218 363 -226 c 0
 372 -227 384 -226 386 -238 c 1
 386 -248 376 -250 366 -250 c 0
 312 -250 194 -227 194 -134 c 0xf0
 194 -107 237 119 237 144 c 0
 237 200 188 231 143 237 c 0
 133 238 115 238 115 250 c 0
EndSplineSet
EndChar

StartChar: bar
Encoding: 124 124 131
Width: 278
Flags: HW
TeX: 749 249
ItalicCorrection: 33
DStem2: 76.7067 -249 117.207 -249 0.164359 0.986401<23.763 995.699>
LayerCount: 2
Fore
SplineSet
81 -226 m 0
 81 -218 83 -210 84 -202 c 2
 237 713 l 2
 239 726 242 749 260 749 c 0
 265 749 279 745 279 727 c 0
 279 721 278 716 277 710 c 2
 122 -216 l 2
 120 -225 118 -249 100 -249 c 0
 94 -249 81 -244 81 -226 c 0
EndSplineSet
EndChar

StartChar: braceright
Encoding: 125 125 132
Width: 500
Flags: HW
TeX: 749 249
HStem: -250 32<34.3988 130.623> 235 28<396.286 466.945> 730 20<196.367 245.96>
VStem: 275 70<300.218 496.062> 318 70<496.062 689.952>
DStem2: 187 -141 267 -104 0.196552 0.980493<-36.2125 353.673>
LayerCount: 2
Fore
SplineSet
33 -239 m 0
 33 -223 57 -231 96 -218 c 0
 135 -205 170 -179 187 -141 c 0
 201 -110 228 116 241 150 c 0
 261 205 313 232 375 250 c 1
 281 278 275 336 275 357 c 0xf0
 275 384 318 610 318 636 c 0
 318 691 267 721 219 726 c 0
 213 727 206 727 201 730 c 0
 198 732 196 735 196 738 c 0
 196 744 204 750 216 750 c 0
 287 750 387 720 388 636 c 0xe8
 388 606 345 384 345 356 c 0
 345 300 394 269 438 263 c 0
 448 262 467 262 467 250 c 0
 467 235 451 241 424 235 c 0
 374 224 326 190 309 140 c 0
 305 129 308 140 267 -104 c 0
 263 -125 260 -167 208 -204 c 0
 158 -240 90 -250 51 -250 c 0xf0
 41 -250 33 -248 33 -239 c 0
EndSplineSet
EndChar

StartChar: asciitilde
Encoding: 126 126 133
Width: 611
Flags: HW
TeX: 663 0
ItalicCorrection: 55
HStem: 574 46<424.898 570.201> 621 47<246.791 393.286>
LayerCount: 2
Fore
SplineSet
181 589 m 1
 219 625 255 668 320 668 c 0
 388 668 448 620 516 620 c 0
 566 620 593 645 621 668 c 1
 636 653 l 1
 636 652 l 1
 598 616 561 574 497 574 c 0
 429 574 368 621 301 621 c 0
 251 621 220 595 196 574 c 1
 181 589 l 1
EndSplineSet
EndChar

StartChar: Abreve
Encoding: 258 258 135
Width: 750
Flags: HW
TeX: 891 0
HStem: 0 31<37 108.397 202.055 248 447 524.856 636.803 717> 228 31<275 501> 696 20<484 503.5> 753 38<435.924 578.955>
VStem: 372 23<838.029 891> 651 22<864.596 891>
DStem2: 169 117 259 228 0.457137 0.889396<-27.6151 139.865 174.751 540.146> 518 674 442 584 0.177251 -0.984166<75.1038 405.415 436.988 601.485>
AnchorPoint: "below" 374 0 basechar 0
AnchorPoint: "above" 518 860 basechar 0
LayerCount: 2
Fore
SplineSet
372 869 m 0
 372 876 372 884 373 891 c 1
 396 891 l 1
 396 886 395 882 395 877 c 0
 395 825 445 791 507 791 c 0
 555 791 632 814 651 891 c 1
 673 891 l 1
 651 790 560 753 500 753 c 0
 429 753 372 799 372 869 c 0
EndSplineSet
Refer: 72 65 S 1 0 0 1 0 0 3
AlternateSubs2: "Stilistic set 01 subtable" Abreve.vn
AlternateSubs2: "Latin alternatives subtable" Abreve.vn
Substitution2: "Latin Vietnamese substitutions subtable" Abreve.vn
Substitution2: "LC caps to smallcaps subtable" Abreve.sc
EndChar

StartChar: Aogonek
Encoding: 260 260 136
Width: 750
Flags: HW
TeX: 688 194
HStem: -217 46<545.984 640.223> 0 31<37 108.397 202.055 248 447 525.5 636.803 717> 228 31<275 501> 696 20G<484 503.5>
VStem: 479 49<-152.792 -69.0352>
DStem2: 169 117 259 228 0.457137 0.889396<-27.6151 139.865 174.751 540.146> 518 674 442 584 0.177251 -0.984166<75.1038 405.415 436.988 601.485>
AnchorPoint: "above" 491 705 basechar 0
LayerCount: 2
Fore
SplineSet
32 0 m 1
 37 31 l 1
 124 33 145 70 169 117 c 2
 463 689 l 2
 468 698 475 716 493 716 c 0
 514 716 513 698 518 674 c 2
 623 91 l 1
 634 41 628 31 714 31 c 2
 722 31 l 1
 717 0 l 1
 693 1 670 2 646 2 c 2
 644 2 l 2
 639 2 634 3 629 3 c 0
 594 3 528 -57 528 -106 c 0
 528 -145 563 -171 597 -171 c 0
 646 -171 669 -127 675 -121 c 0
 679 -117 684 -115 689 -119 c 0
 696 -125 691 -134 688 -140 c 0
 667 -182 625 -217 573 -217 c 0
 523 -217 479 -183 479 -132 c 0
 479 -72 538 -23 573 3 c 1
 442 0 l 1
 447 31 l 1
 452 31 l 2
 475 31 534 31 534 65 c 0
 534 80 527 116 507 228 c 1
 259 228 l 1
 192 97 187 91 187 76 c 0
 187 58 200 33 253 31 c 1
 248 0 l 1
 209 2 171 3 132 3 c 0
 122 3 92 3 32 0 c 1
275 259 m 1
 501 259 l 1
 442 584 l 1
 275 259 l 1
EndSplineSet
Substitution2: "LC caps to smallcaps subtable" Aogonek.sc
Ligature2: "Latin ligatures subtable" A uni0328
EndChar

StartChar: Cacute
Encoding: 262 262 137
Width: 722
Flags: HW
TeX: 856 0
ItalicCorrection: 86
HStem: -22 31<336.273 491.614> 675 30<450.088 596.059> 787 75<575.337 645.564>
VStem: 107 100<165.451 397.285> 676 28<185.698 249.417> 707 33<425.139 533.648>
AnchorPoint: "below" 406 0 basechar 0
AnchorPoint: "above" 542 842 basechar 0
LayerCount: 2
Fore
SplineSet
441 765 m 1
 610 860 609 862 625 862 c 0
 640 862 653 849 653 831 c 0
 653 798 617 792 602 787 c 0
 478 751 463 745 447 741 c 1
 441 765 l 1
EndSplineSet
Refer: 74 67 S 1 0 0 1 0 0 3
Substitution2: "LC caps to smallcaps subtable" Cacute.sc
EndChar

StartChar: Eogonek
Encoding: 280 280 141
Width: 680
Flags: HW
TeX: 688 194
ItalicCorrection: 58
HStem: -217 46<453.336 546.919> -0 31<38 137.429 235.639 475 493.236 520.14> 338 31<287 442.996> 650 30<147 233.922 335.274 611.915>
VStem: 385 49<-152.23 -68.0497> 676 24<455 581.234>
DStem2: 99.1796 -217 189.523 -217 0.164359 0.986401<322.116 577.5 608.901 848.062>
AnchorPoint: "above" 432 705 basechar 0
LayerCount: 2
Fore
SplineSet
33 -0 m 1
 38 31 l 1
 49 31 l 2
 147 31 142 41 151 94 c 2
 234 590 l 2
 236 602 238 612 238 620 c 0
 238 646 218 650 157 650 c 2
 141 650 l 1
 147 680 l 1
 710 680 l 1
 700 455 l 1
 675 455 l 1
 676 471 676 486 676 502 c 0
 676 635 616 650 493 650 c 2
 390 650 l 2
 347 650 334 648 328 612 c 2
 287 369 l 1
 365 369 l 2
 464 369 487 385 504 485 c 1
 529 485 l 1
 485 221 l 1
 460 221 l 1
 463 238 466 255 466 272 c 0
 466 334 420 338 362 338 c 2
 282 338 l 1
 272 272 235 67 235 53 c 0
 235 36 243 31 273 31 c 2
 394 31 l 2
 562 31 609 70 669 258 c 1
 695 258 l 1
 610 -0 l 1
 534 -0 l 2
 515 0 510 -2 486 -21 c 0
 442 -57 434 -89 434 -106 c 0
 434 -139 464 -171 503 -171 c 0
 558 -171 574 -116 590 -116 c 0
 592 -116 593 -118 595 -119 c 0
 597 -120 598 -123 598 -126 c 0
 598 -150 552 -217 479 -217 c 0
 429 -217 385 -183 385 -132 c 0
 385 -74 436 -30 475 -0 c 1
 33 -0 l 1
EndSplineSet
Substitution2: "LC caps to smallcaps subtable" Eogonek.sc
EndChar

StartChar: Gbreve
Encoding: 286 286 142
Width: 785
Flags: HW
TeX: 891 0
ItalicCorrection: 23
HStem: -22 31<340.281 500.352> 241 31<497 605.016 707.999 776> 674 31<450.976 632.13> 753 38<467.487 610.672>
VStem: 107 100<161.116 400.352> 403 24<838.188 891> 682 23<864.49 891> 720 41<536.016 613.783>
LayerCount: 2
Fore
SplineSet
107 281 m 0
 107 495 296 705 526 705 c 0
 630 705 684 668 699 657 c 1
 750 694 761 704 770 704 c 0
 781 704 781 693 781 690 c 0
 781 684 781 690 761 567 c 0
 758 547 756 536 740 536 c 0
 722 536 728 558 720 581 c 0
 699 640 626 674 540 674 c 0
 425 674 337 603 293 543 c 0
 224 449 207 317 207 247 c 0
 207 57 340 9 421 9 c 0
 492 9 567 42 591 101 c 0
 597 116 610 200 610 209 c 0
 610 238 586 241 507 241 c 2
 492 241 l 1
 497 272 l 1
 549 270 601 270 653 270 c 0
 695 270 739 270 781 272 c 1
 776 241 l 1
 715 241 706 236 700 202 c 0
 665 5 669 10 663 5 c 0
 662 4 660 3 658 3 c 0
 643 3 616 39 605 63 c 1
 604 63 l 1
 558 3 478 -22 403 -22 c 0
 230 -22 107 109 107 281 c 0
EndSplineSet
Refer: 7 -1 S 1 0 0 1 157 0 2
Substitution2: "LC caps to smallcaps subtable" Gbreve.sc
EndChar

StartChar: Lacute
Encoding: 313 313 143
Width: 625
Flags: HW
TeX: 856 0
HStem: 0 31<38 137.752 235.838 448.556> 652 31<147 234.434 339.608 463> 787 75<350.337 420.564>
DStem2: 135.337 0 225.337 0 0.164359 0.986401<69.9715 630.043>
LayerCount: 2
Fore
SplineSet
216 765 m 1
 385 860 384 862 400 862 c 0
 415 862 428 849 428 831 c 0
 428 798 392 792 377 787 c 0
 253 751 239 745 223 741 c 1
 216 765 l 1
EndSplineSet
Refer: 83 76 S 1 0 0 1 0 0 3
Substitution2: "LC caps to smallcaps subtable" Lacute.sc
EndChar

StartChar: Lcaron
Encoding: 317 317 144
Width: 625
Flags: HW
TeX: 891 0
HStem: 0 31<38 137.752 235.838 448.556> 652 31<147 234.434 339.608 463> 672 105<545.247 622.437>
VStem: 532 116<694.787 763.31>
DStem2: 135.337 0 225.337 0 0.164359 0.986401<69.9715 630.043>
LayerCount: 2
Fore
SplineSet
520 554 m 0
 520 572 600 590 623 692 c 1
 611 681 598 672 578 672 c 0
 548 672 532 693 532 718 c 0
 532 747 555 777 591 777 c 0
 625 777 648 750 648 711 c 0xb0
 648 624 554 544 531 544 c 0
 526 544 520 548 520 554 c 0
EndSplineSet
Refer: 83 76 S 1 0 0 1 0 -0 3
Substitution2: "LC caps to smallcaps subtable" Lcaron.sc
EndChar

StartChar: Lslash
Encoding: 321 321 145
Width: 625
Flags: HW
TeX: 688 0
HStem: 0 31<38 137.197 236.139 449.984> 652 31<147 234.776 339.746 463>
DStem2: 87 262 103 238 0.808736 0.588172<0 100.43 269.17 461.274> 135.837 0 225.837 0 0.164359 0.986401<69.8894 302.028 342.634 415.156 433.379 594.974>
LayerCount: 2
Fore
SplineSet
33 0 m 1
 38 31 l 1
 47 31 l 2
 133 31 142 37 149 79 c 2
 185 298 l 1
 103 238 l 1
 87 262 l 1
 192 338 l 1
 211 467 238 601 238 622 c 0
 238 650 217 652 155 652 c 2
 142 652 l 1
 147 683 l 1
 206 681 251 680 295 680 c 0
 353 680 410 681 468 683 c 1
 463 652 l 1
 450 652 l 2
 340 652 334 645 326 602 c 2
 294 413 l 1
 461 534 l 1
 477 510 l 1
 273 362 289 381 284 349 c 2
 239 79 l 2
 237 70 235 61 235 54 c 0
 235 33 255 31 278 31 c 0
 303 31 328 31 353 31 c 0
 516 31 564 119 600 258 c 1
 625 258 l 1
 555 0 l 1
 33 0 l 1
EndSplineSet
Substitution2: "LC caps to smallcaps subtable" Lslash.sc
EndChar

StartChar: Nacute
Encoding: 323 323 146
Width: 750
Flags: HW
TeX: 856 0
ItalicCorrection: 108
HStem: 0 31<38 114.51 199.565 267> 652 31<147 241.641 597 663.744 747.709 825> 787 75<547.698 618.1>
DStem2: 135.338 0 163.838 0 0.164359 0.986401<91.2979 638.305> 610 151 577 29 0.456703 -0.889619<-577.242 0> 584.84 0 614.002 0 0.164359 0.986401<153.082 605.656>
LayerCount: 2
Fore
SplineSet
413 765 m 1
 582 860 582 862 598 862 c 0
 613 862 626 849 626 831 c 0
 626 798 589 792 574 787 c 0
 450 751 436 745 420 741 c 1
 413 765 l 1
EndSplineSet
Refer: 85 78 S 1 0 0 1 0 0 3
Substitution2: "LC caps to smallcaps subtable" Nacute.sc
EndChar

StartChar: Eng
Encoding: 330 330 148
Width: 791
Flags: HW
TeX: 688 0
ItalicCorrection: 113
HStem: -22 23<490.982 583.062> 0 31<38 137.513 240.922 328> 59 110<443.377 503.397> 652 31<147 234.909> 679 31<467.48 612.814>
VStem: 405 114<75.7077 151.952> 725 89<349.157 581.929>
DStem2: 131.671 -22 221.671 -22 0.164359 0.986401<99.1829 644.696>
LayerCount: 2
Fore
SplineSet
33 0 m 1
 38 31 l 1
 50 31 l 2
 147 31 142 41 151 94 c 2
 234 592 l 2
 236 604 238 615 238 623 c 0
 238 649 218 652 157 652 c 2
 142 652 l 1
 147 683 l 1
 242 681 l 1
 308 681 l 1
 339 683 l 1x76
 328 615 l 1
 392 672 472 710 568 710 c 0
 704 710 814 623 814 493 c 0
 814 462 807 429 765 178 c 0
 759 142 757 117 736 82 c 0
 697 18 622 -22 546 -22 c 0
 469 -22 405 24 405 95 c 0
 405 154 447 169 470 169 c 0
 496 169 519 151 519 122 c 0
 519 90 495 59 452 59 c 2
 443 59 l 1
 469 7 520 1 542 1 c 0xae
 593 1 646 52 665 125 c 0
 669 138 671 152 673 166 c 2
 718 438 l 2
 721 457 725 474 725 494 c 0
 725 605 641 679 536 679 c 0xae
 418 679 330 588 320 562 c 0
 318 557 318 551 317 546 c 2
 237 70 l 1
 237 61 l 2
 237 36 256 31 317 31 c 2
 333 31 l 1
 328 0 l 1
 286 1 243 3 187 3 c 0
 135 3 84 2 33 0 c 1
EndSplineSet
Substitution2: "LC caps to smallcaps subtable" Eng.sc
EndChar

StartChar: Ohungarumlaut
Encoding: 336 336 149
Width: 777
Flags: HW
TeX: 856 0
ItalicCorrection: 51
HStem: -22 27<326.03 452.727> 680 25<436.989 563.82> 741 24<390.25 401.351 556.958 567.351> 787 75<520.337 590.1 686.337 757.11>
VStem: 106 102<156.616 399.515> 686 97<292.204 525.063>
AnchorPoint: "below" 389 0 basechar 0
AnchorPoint: "above" 529 842 basechar 0
LayerCount: 2
Fore
SplineSet
386 765 m 1
 555 860 554 862 570 862 c 0
 585 862 598 849 598 831 c 0
 598 798 561 792 546 787 c 0
 422 751 408 745 392 741 c 1
 386 765 l 1
552 765 m 1
 721 860 720 862 736 862 c 0
 751 862 765 849 765 831 c 0
 765 798 728 792 713 787 c 0
 589 751 575 745 559 741 c 1
 552 765 l 1
EndSplineSet
Refer: 86 79 S 1 0 0 1 0 -0 3
Substitution2: "LC caps to smallcaps subtable" Ohungarumlaut.sc
EndChar

StartChar: Racute
Encoding: 340 340 150
Width: 736
Flags: HW
TeX: 856 0
HStem: -22 23<611.894 674.013> 0 31<39 138.513 238.459 326> 330 23<283 447.708> 652 31<148 236.032 332.781 533.335> 787 75<547.337 617.564>
VStem: 488 105<28.7815 217.279> 506 88<101.521 283.778> 594 101<453.98 591.425> 725 21<69.7178 102.499>
DStem2: 132.671 -22 220.348 -22 0.164359 0.986401<120.008 371.263 394.608 653.332>
AnchorPoint: "below" 307 0 basechar 0
AnchorPoint: "above" 451 864 basechar 0
LayerCount: 2
Fore
SplineSet
413 765 m 1
 582 860 581 862 597 862 c 0x3980
 612 862 625 849 625 831 c 0
 625 798 589 792 574 787 c 0
 450 751 435 745 419 741 c 1
 413 765 l 1
EndSplineSet
Refer: 89 82 S 1 0 0 1 0 0 3
Substitution2: "LC caps to smallcaps subtable" Racute.sc
EndChar

StartChar: Sacute
Encoding: 346 346 152
Width: 555
Flags: HW
TeX: 856 0
ItalicCorrection: 58
HStem: -22 31<213.609 364.503> 677 28<304.238 435.841> 787 75<437.337 507.1>
VStem: 54 60<86.6517 121.381> 138 71<458.075 570.305> 462 71<125.991 251.148> 524 62<557.154 598.607>
DStem2: 269 427 227 335 0.956701 -0.291074<-49.9624 217.706>
AnchorPoint: "below" 304 0 basechar 0
AnchorPoint: "above" 389 842 basechar 0
LayerCount: 2
Fore
SplineSet
303 765 m 1
 472 860 471 862 487 862 c 0xf8
 502 862 515 849 515 831 c 0
 515 798 478 792 463 787 c 0
 339 751 325 745 309 741 c 1
 303 765 l 1
EndSplineSet
Refer: 90 83 S 1 0 0 1 0 0 3
Substitution2: "LC caps to smallcaps subtable" Sacute.sc
EndChar

StartChar: Scedilla
Encoding: 350 350 154
Width: 555
Flags: HW
TeX: 688 170
ItalicCorrection: 58
HStem: -204 23<157 281.08> -71 80<267.699 317.969> -21 21G<61 69.5> 677 28<305.081 437.777>
VStem: 54 62<83.0187 121.381> 138 71<458.355 569.203> 332 71<-156.912 -84.2191> 462 71<125.673 250.156> 524 62<555.741 599.155>
DStem2: 273 425 227 335 0.956639 -0.291278<-52.0199 214.778>
LayerCount: 2
Fore
SplineSet
54 -8 m 0
 54 -3 88 196 90 207 c 0
 93 221 98 227 104 227 c 0
 110 227 116 221 116 212 c 0
 116 202 114 189 114 170 c 0
 114 50 213 9 301 9 c 0
 393 9 462 97 462 179 c 0xdf
 462 240 426 272 405 283 c 0
 381 296 260 319 227 335 c 0
 179 358 138 409 138 481 c 0
 138 595 242 705 368 705 c 0
 461 705 498 656 515 635 c 1
 556 688 566 704 576 704 c 0
 580 704 586 701 586 690 c 0
 586 686 553 485 551 475 c 0
 548 462 542 457 536 457 c 0
 526 457 524 467 524 478 c 0xde80
 524 483 525 487 525 492 c 0
 525 656 423 677 368 677 c 0
 277 677 209 599 209 524 c 0
 209 478 236 441 273 425 c 0
 295 416 400 394 430 382 c 0
 490 359 533 300 533 220 c 0
 533 112 452 4 337 -19 c 1
 331 -54 l 1
 344 -57 403 -66 403 -116 c 0
 403 -186 314 -204 165 -204 c 2
 153 -204 l 1
 157 -181 l 1xdf
 176 -181 l 2
 231 -181 332 -179 332 -118 c 0
 332 -101 319 -74 258 -71 c 1xdf
 267 -20 l 1
 179 -9 145 26 126 48 c 1
 88 -2 75 -21 64 -21 c 0xbf
 58 -21 54 -14 54 -8 c 0
EndSplineSet
Substitution2: "LC caps to smallcaps subtable" Scedilla.sc
EndChar

StartChar: Tcommaaccent
Encoding: 354 354 156
Width: 722
Flags: HW
TeX: 688 170
ItalicCorrection: 72
HStem: -204 23<212 339.248> 3 28<176 312.611 424.141 551> 647 31<236.192 417.238 513.713 694.74>
VStem: 388 71<-157.135 -84.0623> 736 25<452 527.827>
DStem2: 291.839 -204 362.006 -204 0.164359 0.986401<161.75 209.8 285.066 837.15>
LayerCount: 2
Fore
SplineSet
111 452 m 1
 168 678 l 1
 779 678 l 1
 761 452 l 1
 736 452 l 1
 738 477 740 504 740 529 c 0
 740 606 724 647 605 647 c 0
 591 647 577 647 563 647 c 0
 509 647 511 633 505 596 c 2
 418 75 l 2
 417 71 417 67 417 64 c 0
 417 34 444 31 531 31 c 2
 556 31 l 1
 551 0 l 1
 396 3 l 1
 387 -54 l 1
 397 -56 459 -67 459 -116 c 0
 459 -199 323 -204 249 -204 c 2
 209 -204 l 1
 212 -181 l 1
 232 -181 l 2
 287 -181 388 -179 388 -118 c 0
 388 -99 373 -74 314 -71 c 1
 326 3 l 1
 291 2 l 1
 171 0 l 1
 176 31 l 1
 195 31 l 2
 324 31 323 41 331 91 c 2
 415 596 l 2
 417 608 418 617 418 624 c 0
 418 643 409 647 364 647 c 2
 328 647 l 2
 189 647 170 585 136 452 c 1
 111 452 l 1
EndSplineSet
Substitution2: "LC caps to smallcaps subtable" Tcommaaccent.sc
EndChar

StartChar: Uhungarumlaut
Encoding: 368 368 157
Width: 750
Flags: HW
TeX: 856 0
ItalicCorrection: 108
HStem: -22 31<325.321 459.81> 652 31<146 234.243 337.825 436 593 661.685 746.64 824> 741 24<375.958 386.354 542.25 553.351> 787 75<505.698 576.1 672.337 742.564>
VStem: 170 86<94.5091 318.742>
DStem2: 131.178 -22 221.179 -22 0.164359 0.986401<215.436 652.475> 578.011 -22 609.679 -22 0.164359 0.986401<167.171 629.086>
AnchorPoint: "below" 390 0 basechar 0
AnchorPoint: "above" 518 864 basechar 0
LayerCount: 2
Fore
SplineSet
371 765 m 1
 540 860 540 862 556 862 c 0
 571 862 584 849 584 831 c 0
 584 798 547 792 532 787 c 0
 408 751 394 745 378 741 c 1
 371 765 l 1
538 765 m 1
 707 860 706 862 722 862 c 0
 737 862 750 849 750 831 c 0
 750 798 714 792 699 787 c 0
 575 751 560 745 544 741 c 1
 538 765 l 1
EndSplineSet
Refer: 92 85 S 1 0 0 1 0 0 3
Substitution2: "LC caps to smallcaps subtable" Uhungarumlaut.sc
EndChar

StartChar: Uring
Encoding: 366 366 158
Width: 750
Flags: HW
TeX: 891 0
ItalicCorrection: 108
HStem: -22 31<325.321 459.81> 652 31<146 234.243 337.825 436 593 661.685 746.64 824> 730 23<486.083 572.149> 891 22<508.838 594.002>
VStem: 170 86<94.5091 318.742> 443 25<769.42 852.264> 612 25<791.313 874.562>
DStem2: 131.178 -22 221.179 -22 0.164359 0.986401<215.436 652.475> 578.011 -22 609.679 -22 0.164359 0.986401<167.171 629.086>
LayerCount: 2
Fore
SplineSet
443 808 m 0
 443 869 502 913 555 913 c 0
 600 913 637 882 637 836 c 0
 637 785 588 730 525 730 c 0
 480 730 443 762 443 808 c 0
468 805 m 0
 468 770 491 753 528 753 c 0
 598 753 612 809 612 839 c 0
 612 881 581 891 553 891 c 0
 482 891 468 834 468 805 c 0
EndSplineSet
Refer: 92 85 S 1 0 0 1 -0 0 3
Substitution2: "LC caps to smallcaps subtable" Uring.sc
EndChar

StartChar: Zacute
Encoding: 377 377 160
Width: 611
Flags: HW
TeX: 856 0
ItalicCorrection: 86
HStem: 0 34<164 441.197> 652 31<299.984 561> 787 75<492.337 562.564>
VStem: 146 25<458 490.812> 579 26<236.855 267>
DStem2: 79 51 164 34 0.625644 0.780108<39.9179 770.406>
AnchorPoint: "below" 308 0 basechar 0
AnchorPoint: "above" 451 864 basechar 0
LayerCount: 2
Fore
SplineSet
358 765 m 1
 527 860 526 862 542 862 c 0
 557 862 570 849 570 831 c 0
 570 798 534 792 519 787 c 0
 395 751 380 745 364 741 c 1
 358 765 l 1
EndSplineSet
Refer: 97 90 S 1 0 0 1 0 0 3
Substitution2: "LC caps to smallcaps subtable" Zacute.sc
EndChar

StartChar: IJ
Encoding: 306 306 163
Width: 861
Flags: HW
TeX: 688 0
ItalicCorrection: 82
HStem: -22 23<491.606 585.94> 0 31<33 137.501 240.459 333> 59 110<443.377 503.771> 652 31<142 234.703 337.695 442 629 746.09 846.562 921>
VStem: 405 114<76.683 152.304>
DStem2: 131.671 -22 221.504 -22 0.164359 0.986401<78.739 652.347> 644.674 -22 731.341 -22 0.164359 0.986401<99.0479 650.605>
LayerCount: 2
Fore
SplineSet
28 0 m 1
 33 31 l 1
 46 31 l 2x78
 148 31 142 41 151 94 c 2
 234 593 l 2
 236 605 238 614 238 622 c 0
 238 646 224 652 153 652 c 2
 137 652 l 1
 142 683 l 1
 191 681 239 680 289 680 c 0
 342 680 394 681 447 683 c 1
 442 652 l 1
 431 652 l 2
 325 652 332 640 324 590 c 2
 237 71 l 2
 236 67 237 64 237 61 c 0
 237 33 260 31 321 31 c 2
 338 31 l 1
 333 0 l 1
 259 3 215 3 185 3 c 0
 133 3 80 2 28 0 c 1
405 96 m 0
 405 155 447 169 470 169 c 0
 497 169 519 151 519 122 c 0
 519 99 503 59 453 59 c 2
 443 59 l 1
 471 7 521 1 543 1 c 0
 570 1 651 18 676 166 c 2
 750 609 l 2
 751 613 751 617 751 620 c 0xb8
 751 650 723 652 644 652 c 2
 624 652 l 1
 629 683 l 1
 685 681 740 680 796 680 c 0
 835 680 874 681 926 683 c 1
 921 652 l 1
 845 652 843 647 835 597 c 2
 762 162 l 2
 755 120 747 84 705 43 c 0
 671 10 615 -22 546 -22 c 0
 469 -22 405 25 405 96 c 0
EndSplineSet
Substitution2: "LC caps to smallcaps subtable" IJ.sc
Ligature2: "Latin Dutch ligatures subtable" I J
EndChar

StartChar: dcroat
Encoding: 273 273 165
Width: 555
Flags: HW
TeX: 688 0
ItalicCorrection: 39
HStem: -11 23<205.438 303.329> -0 31<465.987 527> 418 23<277.656 379.924> 531 31<261 470 543 604> 674 20G<418 561.667>
VStem: 65 80<85.628 275.446>
DStem2: 377.336 -11 447.338 -11 0.164359 0.986401<105.844 351.41 395.817 549.859 592.436 638.193>
LayerCount: 2
Fore
SplineSet
65 177 m 0
 65 326 201 441 326 441 c 0
 398 441 429 401 445 379 c 1
 470 531 l 1
 255 531 l 1
 261 562 l 1
 475 562 l 1
 479 587 483 606 483 619 c 0
 483 645 470 652 418 652 c 2
 413 652 l 1
 418 683 l 1
 565 694 l 1
 543 562 l 1
 610 562 l 1
 604 531 l 1
 538 531 l 1
 532 490 524 450 517 409 c 2
 465 95 l 2
 463 82 462 72 462 64 c 0
 462 39 475 31 522 31 c 2
 532 31 l 1
 527 -0 l 1x7c
 377 -11 l 1
 388 53 l 1
 355 21 310 -11 245 -11 c 0
 151 -11 65 61 65 177 c 0
145 142 m 0
 145 40 208 12 250 12 c 0
 272 12 333 19 384 86 c 0
 399 105 393 89 433 326 c 0
 433 329 434 332 434 336 c 0xbc
 434 358 403 418 331 418 c 0
 278 418 230 387 200 345 c 0
 154 281 145 173 145 142 c 0
EndSplineSet
AlternateSubs2: "Stilistic set 01 subtable" dcroat.vn
AlternateSubs2: "Latin alternatives subtable" dcroat.vn
Substitution2: "Latin Vietnamese substitutions subtable" dcroat.vn
Substitution2: "LC small to smallcaps subtable" Eth.sc
EndChar

StartChar: section
Encoding: 167 167 166
Width: 444
Flags: HW
TeX: 688 194
HStem: -205 22<141.544 233.247> -118 69<95.7046 133.685> 548 69<392.073 430.312> 682 23<292.13 384.347>
VStem: 67 71<-111.561 -53.8566> 109 47<193.556 311.754> 158 47<491.168 606.85> 321 47<-107.767 10.411> 370 47<189.279 305.839> 388 71<552.857 610.573>
LayerCount: 2
Fore
SplineSet
67 -100 m 0
 67 -58 92 -49 108 -49 c 0
 123 -49 138 -60 138 -79 c 0xfb80
 138 -92 129 -118 96 -118 c 2
 95 -118 l 1
 112 -169 156 -183 187 -183 c 0
 268 -183 321 -91 321 -38 c 0
 321 21 243 46 215 60 c 0
 158 89 109 147 109 226 c 0
 109 305 157 363 213 391 c 1
 181 427 158 464 158 522 c 0
 158 627 249 705 337 705 c 0
 403 705 459 662 459 599 c 0
 459 556 432 548 418 548 c 0
 403 548 388 559 388 578 c 0xf740
 388 599 404 617 430 617 c 2
 431 617 l 1
 415 668 368 682 338 682 c 0
 257 682 205 590 205 539 c 0
 205 482 276 458 312 440 c 0
 369 411 417 353 417 274 c 0
 417 196 368 137 312 109 c 1
 312 108 l 1
 347 74 368 30 368 -22 c 0
 368 -130 276 -205 189 -205 c 0
 124 -205 67 -163 67 -100 c 0
156 242 m 0xf780
 156 177 242 160 290 127 c 1
 360 169 370 240 370 257 c 0
 370 321 285 340 236 373 c 1
 166 330 156 259 156 242 c 0xf780
EndSplineSet
EndChar

StartChar: aogonek
Encoding: 261 261 168
Width: 500
Flags: HW
TeX: 430 194
HStem: -217 45<332.034 427.784> -11 23<167.295 258.67> -5 33<406.5 460.649> 240 21<297.128 365> 424 23<229.896 333.145>
VStem: 55 79<31.4692 146.28> 125 93<299.014 372.795> 264 49<-152.669 -69.8271> 345 63<28.9548 73> 378 69<224.993 387.266> 460 17<-133.188 -119.575> 492 25<76.8784 145>
AnchorPoint: "above" 294 448 basechar 0
LayerCount: 2
Fore
SplineSet
55 82 m 0xddb0
 55 154 133 255 369 261 c 1
 373 291 378 308 378 328 c 0
 378 383 343 424 291 424 c 0
 222 424 181 385 176 380 c 1
 212 375 218 353 218 340 c 0
 218 314 196 289 166 289 c 0
 142 289 125 304 125 328 c 0
 125 384 195 447 294 447 c 0
 378 447 447 396 447 322 c 0xdb70
 447 296 408 89 408 67 c 0
 408 44 419 28 437 28 c 0xb9b0
 481 28 487 113 492 145 c 1
 517 145 l 1
 512 110 507 75 500 59 c 0
 488 31 457 -5 409 -5 c 0xb9b0
 404 -5 399 -5 394 -4 c 1
 351 -33 313 -66 313 -108 c 0
 313 -148 353 -172 384 -172 c 0
 432 -172 453 -129 460 -123 c 0
 470 -114 480 -123 477 -135 c 0
 472 -155 431 -217 360 -217 c 0
 309 -217 264 -183 264 -132 c 0
 264 -67 336 -15 370 7 c 1
 344 36 346 53 345 73 c 1
 332 53 288 -11 201 -11 c 0
 149 -11 55 8 55 82 c 0xddb0
134 81 m 0xdd30
 134 40 166 12 209 12 c 0
 254 12 315 43 340 110 c 0
 349 135 349 149 365 240 c 1
 160 229 134 113 134 81 c 0xdd30
EndSplineSet
Substitution2: "LC small to smallcaps subtable" Aogonek.sc
EndChar

StartChar: dcaron
Encoding: 271 271 171
Width: 675
Flags: HW
TeX: 688 0
ItalicCorrection: 39
HStem: -11 23<205.438 303.329> 418 23<277.656 379.924> 631 105<621.584 698.3> 674 20<418 563.5>
VStem: 65 80<85.628 275.446> 434 27<89 121.097> 607 116<652.799 721.345>
DStem2: 377.336 -11 447.837 -11 0.164359 0.986401<105.844 351.41 395.817 631.064>
LayerCount: 2
Fore
SplineSet
596 512 m 0
 596 525 611 523 643 553 c 0
 670 579 690 609 699 650 c 1
 684 637 673 631 653 631 c 0
 624 631 607 651 607 676 c 0
 607 705 631 736 667 736 c 0
 701 736 723 708 723 669 c 0xee
 723 582 630 503 607 503 c 0
 602 503 596 506 596 512 c 0
EndSplineSet
Refer: 107 100 S 1 0 0 1 0 0 2
Substitution2: "LC small to smallcaps subtable" Dcaron.sc
EndChar

StartChar: eogonek
Encoding: 281 281 173
Width: 444
Flags: HW
TeX: 430 194
ItalicCorrection: 56
HStem: -217 46<259.377 353.869> -11 26<202.723 291.532> 230 22<154 391.204> 424 23<263.701 350.417>
VStem: 60 80<89.1375 254.804> 192 49<-151.739 -67.6338> 395 65<252.567 381.076>
AnchorPoint: "above" 309 448 basechar 0
LayerCount: 2
Fore
SplineSet
60 181 m 0
 60 319 177 447 309 447 c 0
 373 447 460 416 460 293 c 0
 460 234 450 230 433 230 c 2
 149 230 l 1
 145 205 140 178 140 150 c 0
 140 47 206 15 255 15 c 0
 314 15 372 54 402 107 c 0
 409 118 411 130 424 130 c 0
 427 130 439 126 429 105 c 0
 398 41 333 7 307 -11 c 0
 250 -52 241 -88 241 -107 c 0
 241 -148 280 -171 311 -171 c 0
 365 -171 382 -117 395 -117 c 1
 396 -116 l 1
 401 -116 406 -120 406 -127 c 0
 406 -145 362 -217 287 -217 c 0
 236 -217 192 -181 192 -131 c 0
 192 -80 234 -39 269 -10 c 1
 262 -11 255 -11 249 -11 c 0
 136 -11 60 75 60 181 c 0
154 252 m 1
 390 252 l 1
 392 271 395 289 395 308 c 0
 395 404 343 424 308 424 c 0
 269 424 184 393 154 252 c 1
EndSplineSet
Substitution2: "LC small to smallcaps subtable" Eogonek.sc
EndChar

StartChar: lacute
Encoding: 314 314 175
Width: 277
Flags: HW
TeX: 856 0
ItalicCorrection: 39
HStem: 0 31<37 112.197 190.008 255> 652 31<146 207.685> 674 20<146 290.5> 787 75<362.177 428.1>
VStem: 32 260
DStem2: 110.003 0 177.337 0 0.164359 0.986401<70.3083 627.703>
LayerCount: 2
Fore
SplineSet
224 765 m 1
 396 862 394 862 408 862 c 0x98
 423 862 436 849 436 831 c 0
 436 798 399 792 384 787 c 0
 261 751 246 745 230 741 c 1
 224 765 l 1
EndSplineSet
Refer: 115 108 S 1 0 0 1 -0 0 3
Substitution2: "LC small to smallcaps subtable" Lacute.sc
EndChar

StartChar: lcaron
Encoding: 318 318 176
Width: 403
Flags: HW
TeX: 688 0
ItalicCorrection: 39
HStem: -0 31<37 112.197 190.008 255> 631 105<349.584 426.3> 652 31<146 207.685> 674 20<146 290.5>
VStem: 32 260 335 116<652.799 721.345>
DStem2: 110.003 -0 177.337 -0 0.164359 0.986401<70.3083 627.703>
LayerCount: 2
Fore
SplineSet
324 512 m 0
 324 530 404 548 427 650 c 1
 412 637 401 631 381 631 c 0
 352 631 335 651 335 676 c 0
 335 705 359 736 395 736 c 0
 429 736 451 708 451 669 c 0xcc
 451 582 357 503 334 503 c 0
 329 503 324 506 324 512 c 0
EndSplineSet
Refer: 115 108 S 1 0 0 1 0 -0 2
Substitution2: "LC small to smallcaps subtable" Lcaron.sc
EndChar

StartChar: lslash
Encoding: 322 322 177
Width: 336
Flags: HW
TeX: 688 0
ItalicCorrection: 39
HStem: 0 31<65 139.905 218.422 283> 652 31<174 234.552> 674 20G<174 316.69>
VStem: 60 308
DStem2: 106 282 121 258 0.80817 0.58895<0 79.6477 207.251 303.617> 137.67 0 204.847 0 0.164359 0.986401<121.388 311.262 329.489 401.293 420.584 608.16>
AnchorPoint: "above" 286 694 basechar 0
LayerCount: 2
Fore
SplineSet
60 0 m 1
 65 31 l 1
 69 31 l 2
 131 31 143 36 150 74 c 2
 189 307 l 1
 121 258 l 1
 106 282 l 1
 205 354 195 341 200 372 c 0
 230 555 239 605 239 623 c 0xb0
 239 651 199 652 179 652 c 2
 169 652 l 1
 174 683 l 1xd0
 320 694 l 1
 272 404 l 1
 353 462 l 1
 368 438 l 1
 255 355 267 371 261 337 c 0
 218 80 216 69 216 59 c 0
 216 35 232 31 276 31 c 2
 288 31 l 1
 283 0 l 1
 245 2 207 3 169 3 c 0
 147 3 125 3 60 0 c 1
EndSplineSet
Substitution2: "LC small to smallcaps subtable" Lslash.sc
EndChar

StartChar: eng
Encoding: 331 331 180
Width: 555
Flags: HW
TeX: 430 194
HStem: -205 23<249.011 320.675> -171 92<248 283.43> -0 31<36 111.716 191.196 256> 400 30<103 163.589> 418 23<332.245 422.419>
VStem: 200 93<-159.929 -89.449> 442 68<202.706 407.543>
AnchorPoint: "affricate-below" 523 -194 basechar 0
AnchorPoint: "affricate-above" 671 694 basechar 0
AnchorPoint: "below" 250 -194 basechar 0
AnchorPoint: "above" 357 448 basechar 0
LayerCount: 2
Fore
SplineSet
31 -0 m 1
 36 31 l 1
 41 31 l 2
 107 31 115 37 121 75 c 0
 164 336 168 353 168 367 c 0
 168 393 153 400 106 400 c 2
 98 400 l 1
 103 430 l 1xf6
 247 441 l 1
 231 342 l 1
 244 364 296 441 393 441 c 0
 451 441 510 421 510 341 c 0
 510 314 510 320 467 62 c 0
 461 23 437 -205 293 -205 c 0
 243 -205 200 -177 200 -134 c 0
 200 -102 224 -79 252 -79 c 0
 274 -79 293 -94 293 -119 c 0
 293 -140 281 -164 248 -171 c 1
 264 -179 278 -182 290 -182 c 0
 363 -182 377 -57 395 50 c 0
 435 291 442 323 442 353 c 0
 442 387 431 418 385 418 c 0
 323 418 255 368 230 293 c 0
 220 263 189 59 189 58 c 0xee
 189 35 206 31 251 31 c 2
 261 31 l 1
 256 -0 l 1
 218 2 179 3 141 3 c 0
 97 3 64 1 31 -0 c 1
EndSplineSet
Substitution2: "LC small to smallcaps subtable" Eng.sc
EndChar

StartChar: sacute
Encoding: 347 347 184
Width: 394
Flags: HW
TeX: 641 0
ItalicCorrection: 41
HStem: -11 23<146.347 266.113> 427 20<200.218 318.053> 490 152
VStem: 86 54<299.731 381.497> 218 202 329 55<67.8257 165.63> 363 44<306.624 399.799> 363 27<299.182 388.403>
AnchorPoint: "below" 201 0 basechar 0
AnchorPoint: "above" 295 622 basechar 0
LayerCount: 2
Fore
SplineSet
34 4 m 0
 34 10 57 145 58 151 c 0
 60 162 66 168 72 168 c 0
 75 168 79 166 82 163 c 0
 93 149 72 12 200 12 c 0
 317 12 329 90 329 116 c 0xf4
 329 143 313 169 280 183 c 0
 233 203 134 194 96 265 c 0
 88 280 86 295 86 308 c 0
 86 349 107 447 265 447 c 0
 310 447 331 437 357 419 c 1
 372 431 384 445 396 445 c 0
 405 445 407 439 407 432 c 0xf2
 407 430 396 359 390 325 c 0xf1
 388 315 386 299 375 299 c 0
 363 299 363 307 363 319 c 2
 363 334 l 2xf2
 363 409 315 427 265 427 c 0
 157 427 140 367 140 341 c 0
 140 277 238 276 288 262 c 0
 333 250 384 213 384 148 c 0xf4
 384 104 360 -11 201 -11 c 0
 138 -11 113 14 96 33 c 1
 70 9 55 -9 44 -9 c 0
 40 -9 34 -6 34 4 c 0
EndSplineSet
Refer: 9 180 S 1 0 0 1 -81 0 2
Substitution2: "LC small to smallcaps subtable" Sacute.sc
EndChar

StartChar: scaron
Encoding: 353 353 185
Width: 394
Flags: HW
TeX: 641 0
ItalicCorrection: 41
HStem: -11 23<146.347 265.495> 427 20<200.551 317.167> 483 163
VStem: 86 54<298.525 379.593> 136 306 329 55<67.9616 164.468> 363 44<306.572 399.37> 363 27<299.182 388.063>
AnchorPoint: "below" 201 0 basechar 0
AnchorPoint: "above" 296 626 basechar 0
LayerCount: 2
Fore
SplineSet
34 4 m 0
 34 10 57 145 58 151 c 0
 60 162 66 168 72 168 c 0
 75 168 79 166 82 163 c 0
 93 149 72 12 200 12 c 0
 314 12 329 87 329 116 c 0xf4
 329 143 312 169 280 183 c 0
 233 204 136 193 97 265 c 0
 91 276 86 291 86 308 c 0
 86 350 109 447 265 447 c 0
 310 447 331 437 357 419 c 1
 372 431 384 445 396 445 c 0
 404 445 407 440 407 432 c 0xf2
 407 428 396 360 390 325 c 0xe1
 388 315 386 299 375 299 c 0
 364 299 363 306 363 319 c 2
 363 334 l 2xe2
 363 408 314 427 265 427 c 0
 157 427 140 368 140 341 c 0
 140 276 236 277 291 261 c 0
 334 248 384 211 384 147 c 0xf4
 384 103 360 -11 201 -11 c 0
 138 -11 113 14 96 33 c 1
 70 9 55 -9 44 -9 c 0
 40 -9 34 -6 34 4 c 0
EndSplineSet
Refer: 15 711 S 1 0 0 1 -65 0 2
Substitution2: "LC small to smallcaps subtable" Scaron.sc
EndChar

StartChar: scedilla
Encoding: 351 351 186
Width: 394
Flags: HW
TeX: 430 170
ItalicCorrection: 41
HStem: -204 23<48 174.522> -9 21G<42 49.5> 427 20<200.597 316.196>
VStem: 86 54<298.817 381.532> 224 71<-156.942 -84.1556> 329 55<67.9066 165.12> 363 44<306.425 401.271>
LayerCount: 2
Fore
SplineSet
34 4 m 0
 34 10 57 145 58 151 c 0
 60 162 66 168 72 168 c 0
 75 168 79 166 82 163 c 0
 93 149 72 12 200 12 c 0
 317 12 329 90 329 116 c 0xfc
 329 143 313 169 280 183 c 0
 233 203 134 194 96 265 c 0
 88 280 86 295 86 308 c 0
 86 349 107 447 265 447 c 0
 310 447 331 437 357 419 c 1
 374 433 387 445 397 445 c 0
 401 445 407 442 407 432 c 0
 407 427 396 360 390 323 c 0
 388 313 385 299 375 299 c 0
 364 299 363 308 363 316 c 0xfa
 363 322 364 329 364 337 c 0
 364 380 344 427 265 427 c 2
 264 427 l 2
 152 427 140 363 140 341 c 0
 140 274 244 277 295 260 c 0
 337 246 384 209 384 148 c 0
 384 108 364 4 230 -10 c 1
 223 -54 l 1
 236 -57 295 -66 295 -116 c 0
 295 -198 158 -204 84 -204 c 0
 71 -204 58 -204 45 -204 c 1
 48 -181 l 1xfc
 55 -181 61 -181 68 -181 c 0
 123 -181 224 -179 224 -118 c 1
 223 -98 208 -74 150 -71 c 1
 161 -7 l 1
 119 5 105 22 96 33 c 1
 70 9 55 -9 44 -9 c 0
 40 -9 34 -6 34 4 c 0
EndSplineSet
Substitution2: "LC small to smallcaps subtable" Scedilla.sc
EndChar

StartChar: tcaron
Encoding: 357 357 187
Width: 389
Flags: HW
TeX: 688 0
ItalicCorrection: 65
HStem: -11 26<206.839 276.481> 400 30<245 382> 400 22<89 133.194> 615 105<387.588 464.437>
VStem: 120 69<23.5183 178.698> 373 117<637.787 705.752>
DStem2: 100.673 -11 171.517 -11 0.164359 0.986401<192.015 416.805>
LayerCount: 2
Fore
SplineSet
85 400 m 1
 89 422 l 1xbc
 192 428 238 541 250 615 c 1
 275 615 l 1
 245 430 l 1
 387 430 l 1
 382 400 l 1xdc
 240 400 l 1xbc
 190 101 189 100 189 77 c 0
 189 25 220 15 240 15 c 0
 287 15 314 70 323 105 c 0
 327 120 334 158 337 181 c 1
 362 181 l 1
 354 121 347 61 302 18 c 0
 282 -1 260 -11 232 -11 c 0
 181 -11 120 9 120 87 c 0
 120 103 122 119 125 135 c 2
 170 400 l 1
 85 400 l 1
362 497 m 0
 362 515 442 533 465 635 c 1
 453 624 440 615 420 615 c 0
 392 615 373 633 373 660 c 0
 373 689 397 720 433 720 c 0
 467 720 490 693 490 654 c 0x9c
 490 567 396 487 373 487 c 0
 368 487 362 491 362 497 c 0
EndSplineSet
Substitution2: "LC small to smallcaps subtable" Tcaron.sc
EndChar

StartChar: tcommaaccent
Encoding: 355 355 188
Width: 389
Flags: HW
TeX: 614 170
ItalicCorrection: 21
HStem: -204 23<92 217.522> 400 30<245 382> 400 22<89 133.194>
VStem: 121 68<23.9834 225.969> 267 71<-157.135 -84.2758> 337 25<113.73 181>
DStem2: 68.681 -204 139.359 -204 0.164359 0.986401<387.649 612.439>
LayerCount: 2
Fore
SplineSet
85 400 m 1
 89 422 l 1xb8
 192 428 238 541 250 615 c 1
 275 615 l 1
 245 430 l 1
 387 430 l 1
 382 400 l 1xd8
 240 400 l 1
 190 101 189 100 189 77 c 0
 189 25 220 15 240 15 c 0
 287 15 314 70 323 105 c 0
 327 120 334 158 337 181 c 1
 362 181 l 1xb4
 353 114 345 38 275 -2 c 1
 266 -54 l 1
 295 -61 338 -74 338 -116 c 0
 338 -199 201 -204 127 -204 c 0
 114 -204 101 -204 88 -204 c 1
 92 -181 l 1xb8
 111 -181 l 2
 166 -181 267 -179 267 -118 c 1
 266 -98 252 -74 193 -71 c 1
 204 -9 l 1
 177 -4 121 11 121 87 c 0
 121 105 123 122 126 140 c 2
 170 400 l 1
 85 400 l 1
EndSplineSet
Substitution2: "LC small to smallcaps subtable" Tcommaaccent.sc
EndChar

StartChar: uring
Encoding: 367 367 190
Width: 555
Flags: HW
TeX: 641 0
HStem: -11 23<214.987 315.968> 0 31<474.172 534> 400 30<103 164.016 381 440.175> 421 20<103 249.644 381 526.685> 500 22<325.586 415.721> 638 23<343.556 435.093>
VStem: 127 66<26.7111 212.463> 283 25<536.833 608.446> 451 25<552.036 623.208>
DStem2: 386.67 -11 455.004 -11 0.164359 0.986401<89.3067 380.98>
LayerCount: 2
Fore
SplineSet
283 570 m 0
 283 622 340 661 393 661 c 0
 440 661 476 633 476 591 c 0
 476 547 429 500 366 500 c 0
 319 500 283 528 283 570 c 0
308 569 m 0
 308 536 331 522 369 522 c 0x0f80
 438 522 451 567 451 592 c 0
 451 625 427 638 390 638 c 0
 323 638 308 597 308 569 c 0
EndSplineSet
Refer: 124 117 S 1 0 0 1 0 0 3
Substitution2: "LC small to smallcaps subtable" Uring.sc
EndChar

StartChar: ydieresis
Encoding: 255 255 191
Width: 527
Flags: HW
TeX: 663 194
ItalicCorrection: 85
HStem: -205 23<45.1679 122.145> -165 83<37 74.3389> 400 30<91 150.162 239.225 293 418 445.914 518.485 575> 554 105<229.806 306.194 424.037 500.959>
VStem: -2 86<-154.276 -91.5358> 215 106<569.182 643.365> 409 106<568.419 643.818>
DStem2: 237 349 165 345 0.239223 -0.970965<-18.8934 268> 250 0 239 -68 0.499528 0.866298<-175.105 11.9791 103.076 292.408>
AnchorPoint: "below" 231 -194 basechar 0
AnchorPoint: "above" 372 656 basechar 0
LayerCount: 2
Fore
SplineSet
215 599 m 0
 215 632 245 659 275 659 c 0
 299 659 321 640 321 613 c 0
 321 580 291 554 261 554 c 0
 237 554 215 572 215 599 c 0
409 600 m 0
 409 633 440 659 469 659 c 0
 497 659 515 637 515 612 c 0
 515 582 488 554 455 554 c 0
 427 554 409 575 409 600 c 0
EndSplineSet
Refer: 128 121 S 1 0 0 1 -0 0 3
Substitution2: "LC small to smallcaps subtable" Ydieresis.sc
EndChar

StartChar: ij
Encoding: 307 307 195
Width: 583
Flags: HW
TeX: 663 194
ItalicCorrection: 52
HStem: -205 22<281.5 361.12> -171 91<278 311.577> 0 31<50 125.829 202.529 260> 400 30<414 481.342> 421 20G<120 260.676 414 565.639> 563 105<205.329 281.692 506.841 583.308>
VStem: 45 219 190 106<577.247 652.365> 229 93<-159.929 -90.7552> 492 106<578.052 653.369>
DStem2: 393.34 -205 460.674 -205 0.164359 0.986401<76.6806 577.225>
LayerCount: 2
Fore
SplineSet
190 608 m 0
 190 641 220 668 250 668 c 0
 274 668 296 650 296 622 c 0xe540
 296 589 267 563 237 563 c 0
 213 563 190 581 190 608 c 0
229 -134 m 0
 229 -106 251 -80 282 -80 c 0
 304 -80 322 -94 322 -119 c 0xecc0
 322 -137 313 -160 278 -171 c 1
 297 -179 313 -183 326 -183 c 0
 399 -183 416 -70 422 -33 c 2
 483 333 l 2
 485 346 487 356 487 365 c 0
 487 391 472 400 419 400 c 2
 409 400 l 1
 414 430 l 1xf4c0
 569 441 l 1
 489 -35 l 2
 486 -51 484 -67 479 -83 c 0
 462 -135 410 -205 328 -205 c 0
 272 -205 229 -177 229 -134 c 0
EndSplineSet
Refer: 32 305 S 1 0 0 1 13 0 2
Refer: 18 729 S 1 0 0 1 290 0 2
Substitution2: "LC small to smallcaps subtable" IJ.sc
Ligature2: "Latin Dutch ligatures subtable" i j
EndChar

StartChar: exclamdown
Encoding: 161 161 196
Width: 278
Flags: HW
TeX: 499 194
ItalicCorrection: 24
HStem: 395 105<174.806 251.194>
VStem: 160 106<410.182 484.365> 170 31<253.21 311.614>
LayerCount: 2
Fore
SplineSet
58 -173 m 0
 58 -162 61 -150 70 -116 c 2
 170 281 l 2xa0
 172 290 176 312 188 312 c 0
 198 312 201 308 201 296 c 2
 201 289 l 1
 166 -149 l 2
 165 -160 165 -201 120 -214 c 0
 115 -215 110 -216 105 -216 c 0
 82 -216 58 -200 58 -173 c 0
160 440 m 0
 160 473 190 500 220 500 c 0
 244 500 266 481 266 454 c 0
 266 421 236 395 206 395 c 0xc0
 182 395 160 413 160 440 c 0
EndSplineSet
EndChar

StartChar: questiondown
Encoding: 191 191 197
Width: 472
Flags: HW
TeX: 499 194
HStem: -205 22<145.976 266.323> -115 91<321.679 357> 395 105<257.806 334.286>
VStem: 41 80<-159.048 -18.9338> 243 106<410.182 485.323> 263 20<268.507 311.423> 311 93<-108.747 -34.3526>
LayerCount: 2
Fore
SplineSet
41 -92 m 0
 41 -51 60 -6 95 24 c 0
 121 46 214 106 246 231 c 0
 256 270 254 298 263 309 c 0
 268 315 283 312 283 304 c 0
 283 291 274 142 174 26 c 0
 171 22 121 -21 121 -125 c 0
 121 -145 127 -183 192 -183 c 0
 291 -183 339 -135 357 -115 c 1
 317 -115 311 -89 311 -76 c 0
 311 -52 332 -24 363 -24 c 0
 387 -24 404 -40 404 -64 c 0xf6
 404 -125 327 -205 189 -205 c 0
 64 -205 41 -137 41 -92 c 0
243 440 m 0
 243 473 272 500 302 500 c 0
 326 500 349 481 349 454 c 0
 349 421 319 395 289 395 c 0xf8
 265 395 243 413 243 440 c 0
EndSplineSet
EndChar

StartChar: sterling
Encoding: 163 163 198
Width: 726
Flags: HW
TeX: 688 0
HStem: -11 44<398.25 542.668> -11 23<107.643 182.807> 94 45<115.505 239.989> 332 31<214.026 297 372 482.736> 475 91<586.609 645.309> 684 23<488.742 579.134>
VStem: 62 37<17.1038 73.7548> 576 95<486.433 555.458> 602 29<93.9263 146.375>
DStem2: 239.848 -11 309.848 -11 0.164359 0.986401<140.475 347.729 390.634 624.802>
LayerCount: 2
Fore
SplineSet
62 41 m 0
 62 82 110 139 195 139 c 0
 208 139 229 137 260 127 c 1
 267 157 l 1
 297 332 l 1
 280 332 263 332 246 332 c 0
 222 332 214 332 214 347 c 0
 214 356 223 363 239 363 c 2
 302 363 l 1
 307 400 329 528 334 546 c 0
 365 651 458 707 531 707 c 0
 615 707 671 640 671 552 c 0
 671 485 638 475 616 475 c 0
 594 475 576 490 576 514 c 0x7f
 576 542 600 566 629 566 c 0
 635 566 641 565 646 564 c 1
 638 658 573 684 533 684 c 0
 491 684 460 655 445 638 c 0
 398 582 400 515 372 363 c 1
 460 363 l 2
 478 363 483 357 483 350 c 0
 483 343 477 336 474 334 c 0
 470 332 465 332 461 332 c 2
 367 332 l 1
 336 143 338 145 315 101 c 1
 362 73 421 33 480 33 c 0
 548 33 589 85 602 121 c 0
 606 133 607 147 621 147 c 0
 629 147 631 141 631 135 c 0
 631 96 572 -11 462 -11 c 0xbe80
 395 -11 334 33 286 60 c 1
 247 18 195 -11 138 -11 c 0
 92 -11 62 10 62 41 c 0
99 42 m 0
 99 24 116 12 141 12 c 0
 161 12 210 24 241 82 c 1
 223 89 200 94 178 94 c 0x7e
 126 94 99 63 99 42 c 0
EndSplineSet
EndChar

StartChar: Agrave
Encoding: 192 192 199
Width: 750
Flags: HW
TeX: 856 0
HStem: 0 31<37 108.397 202.055 248 447 524.856 636.803 717> 228 31<275 501> 696 20<484 503.5> 788 74<377.076 452.56>
DStem2: 169 117 259 228 0.457137 0.889396<-27.6151 139.865 174.751 540.146> 518 674 442 584 0.177251 -0.984166<75.1038 405.415 436.988 601.485>
AnchorPoint: "below" 374 0 basechar 0
AnchorPoint: "above" 513 831 basechar 0
LayerCount: 2
Fore
SplineSet
371 820 m 0
 371 839 388 862 411 862 c 0
 426 862 432 855 563 765 c 1
 549 741 l 1
 535 745 520 751 406 788 c 0
 390 793 371 798 371 820 c 0
EndSplineSet
Refer: 72 65 S 1 0 0 1 -0 0 3
AlternateSubs2: "Stilistic set 01 subtable" Agrave.vn
AlternateSubs2: "Latin alternatives subtable" Agrave.vn
Substitution2: "Latin Vietnamese substitutions subtable" Agrave.vn
Substitution2: "LC caps to smallcaps subtable" Agrave.sc
EndChar

StartChar: Aacute
Encoding: 193 193 200
Width: 750
Flags: HW
TeX: 856 0
HStem: 0 31<37 108.397 202.055 248 447 524.856 636.803 717> 228 31<275 501> 696 20<484 503.5> 787 75<547.337 618.11>
DStem2: 169 117 259 228 0.457137 0.889396<-27.6151 139.865 174.751 540.146> 518 674 442 584 0.177251 -0.984166<75.1038 405.415 436.988 601.485>
AnchorPoint: "below" 374 0 basechar 0
AnchorPoint: "above" 513 831 basechar 0
LayerCount: 2
Fore
SplineSet
413 765 m 1
 582 860 581 862 597 862 c 0
 612 862 626 849 626 831 c 0
 626 798 589 792 574 787 c 0
 450 751 436 745 420 741 c 1
 413 765 l 1
EndSplineSet
Refer: 72 65 S 1 0 0 1 0 0 3
AlternateSubs2: "Stilistic set 01 subtable" Aacute.vn
AlternateSubs2: "Latin alternatives subtable" Aacute.vn
Substitution2: "Latin Vietnamese substitutions subtable" Aacute.vn
Substitution2: "LC caps to smallcaps subtable" Aacute.sc
EndChar

StartChar: Acircumflex
Encoding: 194 194 201
Width: 750
Flags: HW
TeX: 891 0
HStem: 0 31<37 108.397 202.055 248 447 524.856 636.803 717> 228 31<275 501> 696 20<484 503.5>
DStem2: 169 117 259 228 0.457137 0.889396<-27.6151 139.865 174.751 540.146> 518 674 442 584 0.177251 -0.984166<75.1038 405.415 436.988 601.485>
AnchorPoint: "below" 374 0 basechar 0
AnchorPoint: "above" 520 871 basechar 0
LayerCount: 2
Fore
SplineSet
368 762 m 1
 525 902 l 1
 635 762 l 1
 635 761 l 1
 615 744 l 1
 614 744 l 1
 517 849 l 1
 383 744 l 1
 382 744 l 1
 368 762 l 1
EndSplineSet
Refer: 72 65 S 1 0 0 1 -0 0 3
AlternateSubs2: "Stilistic set 01 subtable" Acircumflex.vn
AlternateSubs2: "Latin alternatives subtable" Acircumflex.vn
Substitution2: "Latin Vietnamese substitutions subtable" Acircumflex.vn
Substitution2: "LC caps to smallcaps subtable" Acircumflex.sc
EndChar

StartChar: Atilde
Encoding: 195 195 202
Width: 750
Flags: HW
TeX: 891 0
HStem: 0 31<37 108.397 202.055 248 447 524.856 636.803 717> 228 31<275 501> 696 20<484 503.5> 807 46<517.336 661.867> 845 46<370.305 514.664>
DStem2: 169 117 259 228 0.457137 0.889396<-27.6151 139.865 174.751 540.146> 518 674 442 584 0.177251 -0.984166<75.1038 405.415 436.988 601.485>
AnchorPoint: "below" 374 0 basechar 0
AnchorPoint: "above" 518 860 basechar 0
LayerCount: 2
Fore
SplineSet
317 821 m 1
 317 822 l 1
 349 853 381 891 439 891 c 0xe8
 498 891 553 853 612 853 c 0xf0
 648 853 673 867 701 891 c 1xe8
 715 877 l 1
 715 876 l 1
 682 844 651 807 593 807 c 0xf0
 534 807 479 845 420 845 c 0xe8
 378 845 356 827 332 807 c 1xf0
 317 821 l 1
EndSplineSet
Refer: 72 65 S 1 0 0 1 0 0 3
AlternateSubs2: "Stilistic set 01 subtable" Atilde.vn
AlternateSubs2: "Latin alternatives subtable" Atilde.vn
Substitution2: "Latin Vietnamese substitutions subtable" Atilde.vn
Substitution2: "LC caps to smallcaps subtable" Atilde.sc
EndChar

StartChar: Aring
Encoding: 197 197 204
Width: 750
Flags: HW
TeX: 856 0
HStem: 0 31<37 108.681 202.055 248 447 524.856 637.595 717> 228 31<275 501> 891 22<483.85 559.102>
VStem: 411 24<737.63 835.855> 581 25<769.658 871.25>
DStem2: 171 120 259 228 0.456442 0.889753<-31.2241 136.26 171.146 536.541> 514 697 442 584 0.177768 -0.984072<98.4009 428.713 460.286 624.782>
LayerCount: 2
Fore
SplineSet
32 0 m 1
 37 31 l 1
 128 33 148 74 171 120 c 2
 467 697 l 1
 420 716 411 755 411 783 c 0
 411 854 470 913 526 913 c 0
 574 913 606 874 606 824 c 0
 606 787 587 722 514 697 c 1
 626 77 l 2
 634 37 642 31 714 31 c 2
 722 31 l 1
 717 0 l 1
 653 3 615 3 589 3 c 0
 540 3 491 2 442 0 c 1
 447 31 l 1
 451 31 l 2
 470 31 534 31 534 65 c 0
 534 80 527 115 507 228 c 1
 259 228 l 1
 192 97 187 91 187 76 c 0
 187 58 200 33 253 31 c 1
 248 0 l 1
 209 2 171 3 132 3 c 0
 122 3 92 3 32 0 c 1
275 259 m 1
 501 259 l 1
 442 584 l 1
 275 259 l 1
435 778 m 0
 435 729 468 717 494 717 c 0
 564 717 581 790 581 830 c 0
 581 879 549 891 522 891 c 0
 452 891 435 817 435 778 c 0
EndSplineSet
Substitution2: "LC caps to smallcaps subtable" Aring.sc
EndChar

StartChar: AE
Encoding: 198 198 205
Width: 903
Flags: HW
TeX: 688 0
ItalicCorrection: 58
HStem: 0 31<37 110.155 203.055 248 344 418.552 509.895 749.357> 313 31<323 468 557 705.066> 652 31<372 452 609.25 843.092>
VStem: 468 84<187.679 313 344 433.395> 899 24<458 591.191>
DStem2: 172 119 307 313 0.465746 0.884918<42.3498 234.55 269.434 601.185>
AnchorPoint: "below" 453 0 basechar 0
AnchorPoint: "above" 576 705 basechar 0
LayerCount: 2
Fore
SplineSet
32 0 m 1
 37 30 l 1
 37 31 l 1
 126 33 148 73 172 119 c 2
 452 651 l 1
 367 652 l 1
 372 683 l 1
 932 683 l 1
 923 458 l 1
 897 458 l 1
 898 475 899 493 899 510 c 0
 899 626 859 652 742 652 c 0
 719 652 696 652 673 652 c 0
 625 652 620 649 613 642 c 0
 596 626 593 534 557 344 c 1
 619 344 l 2
 707 344 743 343 763 460 c 1
 789 460 l 1
 745 196 l 1
 719 196 l 1
 722 214 725 232 725 250 c 0
 725 315 671 313 617 313 c 2
 552 313 l 1
 512 74 509 66 509 54 c 0
 509 32 523 31 574 31 c 2
 625 31 l 2
 784 31 829 59 892 258 c 1
 917 258 l 1
 832 0 l 1
 339 0 l 1
 344 31 l 1
 350 31 l 2
 397 31 407 35 415 43 c 0
 423 50 426 41 468 313 c 1
 307 313 l 1
 189 87 188 92 188 76 c 0
 188 58 201 33 254 31 c 1
 248 0 l 1
 209 2 171 3 132 3 c 0
 112 3 82 3 32 0 c 1
323 344 m 1
 473 344 l 1
 487 436 518 608 518 618 c 0
 518 642 499 646 484 649 c 1
 323 344 l 1
EndSplineSet
Substitution2: "LC caps to smallcaps subtable" AE.sc
EndChar

StartChar: Ccedilla
Encoding: 199 199 206
Width: 722
Flags: HW
TeX: 688 170
ItalicCorrection: 86
HStem: -204 23<257 382.367> -20 29<340.312 367 437 490.492> 674 31<448.074 599.344>
VStem: 107 100<162.521 401.612> 433 71<-155.621 -84.2927> 677 28<186.616 247.808> 707 74<555.958 580>
AnchorPoint: "above" 520 705 basechar 0
LayerCount: 2
Fore
SplineSet
107 281 m 0
 107 505 310 705 520 705 c 0
 550 705 631 702 690 619 c 1
 741 674 756 704 770 704 c 0
 774 704 781 701 781 690 c 0
 781 684 742 452 740 440 c 0
 737 426 736 426 730 421 c 1
 724 418 715 420 710 425 c 0
 706 430 707 445 707 453 c 0
 707 580 639 674 528 674 c 0
 497 674 391 666 303 557 c 0
 227 462 207 323 207 245 c 0
 207 77 313 9 417 9 c 0
 540 9 650 113 677 225 c 0
 679 234 680 244 687 248 c 0
 695 253 706 249 705 235 c 0
 699 163 609 2 437 -20 c 1
 432 -54 l 1
 442 -56 504 -67 504 -116 c 0
 504 -199 368 -204 294 -204 c 2
 254 -204 l 1
 257 -181 l 1
 264 -181 271 -181 278 -181 c 0
 334 -181 433 -178 433 -118 c 1
 432 -98 418 -74 359 -71 c 1
 367 -20 l 1
 207 0 107 124 107 281 c 0
EndSplineSet
Substitution2: "LC caps to smallcaps subtable" Ccedilla.sc
EndChar

StartChar: Egrave
Encoding: 200 200 207
Width: 680
Flags: HW
TeX: 856 0
ItalicCorrection: 58
HStem: -0 31<38 137.752 235.639 523.032> 338 31<287 442.996> 650 30<147 233.922 335.274 611.485> 788 74<377.076 452.56>
VStem: 676 24<455 581.234>
DStem2: 135.337 -0 225.681 -0 0.164359 0.986401<102.124 357.509 388.909 628.07>
AnchorPoint: "below" 342 0 basechar 0
AnchorPoint: "above" 487 867 basechar 0
LayerCount: 2
Fore
SplineSet
371 820 m 0
 371 839 388 862 411 862 c 0
 426 862 432 855 563 765 c 1
 549 741 l 1
 535 745 520 751 406 788 c 0
 390 793 371 798 371 820 c 0
EndSplineSet
Refer: 76 69 S 1 0 0 1 -0 -0 3
AlternateSubs2: "Stilistic set 01 subtable" Egrave.vn
AlternateSubs2: "Latin alternatives subtable" Egrave.vn
Substitution2: "Latin Vietnamese substitutions subtable" Egrave.vn
Substitution2: "LC caps to smallcaps subtable" Egrave.sc
EndChar

StartChar: Eacute
Encoding: 201 201 208
Width: 680
Flags: HW
TeX: 856 0
ItalicCorrection: 58
HStem: 0 31<38 137.752 235.639 523.032> 338 31<287 442.996> 650 30<147 233.922 335.274 611.485> 787 75<562.337 632.1>
VStem: 676 24<455 581.234>
DStem2: 135.337 0 225.681 0 0.164359 0.986401<102.124 357.509 388.909 628.07>
AnchorPoint: "below" 342 0 basechar 0
AnchorPoint: "above" 487 867 basechar 0
LayerCount: 2
Fore
SplineSet
428 765 m 1
 597 860 596 862 612 862 c 0
 627 862 640 849 640 831 c 0
 640 798 603 792 588 787 c 0
 464 751 450 745 434 741 c 1
 428 765 l 1
EndSplineSet
Refer: 76 69 S 1 0 0 1 0 0 3
AlternateSubs2: "Stilistic set 01 subtable" Eacute.vn
AlternateSubs2: "Latin alternatives subtable" Eacute.vn
Substitution2: "Latin Vietnamese substitutions subtable" Eacute.vn
Substitution2: "LC caps to smallcaps subtable" Eacute.sc
EndChar

StartChar: Ecircumflex
Encoding: 202 202 209
Width: 680
Flags: HW
TeX: 891 0
ItalicCorrection: 58
HStem: 0 31<38 137.752 235.639 523.032> 338 31<287 442.996> 650 30<147 233.922 335.274 611.485>
VStem: 676 24<455 581.234>
DStem2: 135.337 0 225.681 0 0.164359 0.986401<102.124 357.509 388.909 628.07>
AnchorPoint: "below" 342 0 basechar 0
AnchorPoint: "above" 494 907 basechar 0
LayerCount: 2
Fore
SplineSet
340 762 m 1
 497 902 l 1
 608 761 l 1
 588 744 l 1
 587 744 l 1
 489 849 l 1
 356 744 l 1
 355 744 l 1
 340 762 l 1
EndSplineSet
Refer: 76 69 S 1 0 0 1 -0 0 3
AlternateSubs2: "Stilistic set 01 subtable" Ecircumflex.vn
AlternateSubs2: "Latin alternatives subtable" Ecircumflex.vn
Substitution2: "Latin Vietnamese substitutions subtable" Ecircumflex.vn
Substitution2: "LC caps to smallcaps subtable" Ecircumflex.sc
EndChar

StartChar: Edieresis
Encoding: 203 203 210
Width: 680
Flags: HW
TeX: 891 0
ItalicCorrection: 58
HStem: 0 31<38 137.752 235.639 523.032> 338 31<287 442.996> 650 30<147 233.922 335.274 611.485> 761 105<346.875 423.753 541.841 618.286>
VStem: 332 106<775.308 850.365> 527 106<776.182 851.416> 676 24<455 581.234>
DStem2: 135.337 0 225.681 0 0.164359 0.986401<102.124 357.509 388.909 628.07>
AnchorPoint: "below" 342 0 basechar 0
AnchorPoint: "above" 488 871 basechar 0
LayerCount: 2
Fore
SplineSet
332 806 m 0
 332 839 362 866 392 866 c 0
 416 866 438 847 438 820 c 0
 438 790 412 761 379 761 c 0
 356 761 332 779 332 806 c 0
527 807 m 0
 527 839 556 866 586 866 c 0
 610 866 633 847 633 820 c 0
 633 787 603 761 573 761 c 0
 545 761 527 782 527 807 c 0
EndSplineSet
Refer: 76 69 S 1 0 0 1 0 0 3
Substitution2: "LC caps to smallcaps subtable" Edieresis.sc
EndChar

StartChar: Igrave
Encoding: 204 204 211
Width: 361
Flags: HW
TeX: 856 0
ItalicCorrection: 99
HStem: 0 31<32 136.094 240.236 332> 652 31<141 233.859 336.739 441> 788 74<196.404 273.192>
DStem2: 134.337 0 224.17 0 0.164359 0.986401<56.3976 630.044>
AnchorPoint: "below" 180 0 basechar 0
AnchorPoint: "above" 324 864 basechar 0
LayerCount: 2
Fore
SplineSet
190 820 m 0
 190 843 213 862 230 862 c 0
 246 862 251 857 382 765 c 1
 367 741 l 1
 353 745 338 750 224 788 c 0
 205 794 190 801 190 820 c 0
EndSplineSet
Refer: 80 73 S 1 0 0 1 -0 -0 3
AlternateSubs2: "Stilistic set 01 subtable" Igrave.vn
AlternateSubs2: "Latin alternatives subtable" Igrave.vn
Substitution2: "Latin Vietnamese substitutions subtable" Igrave.vn
Substitution2: "LC caps to smallcaps subtable" Igrave.sc
EndChar

StartChar: Iacute
Encoding: 205 205 212
Width: 361
Flags: HW
TeX: 856 0
ItalicCorrection: 99
HStem: 0 31<32 136.094 240.236 332> 652 31<141 233.859 336.739 441> 787 75<343.664 411.702>
DStem2: 134.337 0 224.17 0 0.164359 0.986401<56.3976 630.044>
AnchorPoint: "below" 180 0 basechar 0
AnchorPoint: "above" 324 864 basechar 0
LayerCount: 2
Fore
SplineSet
209 765 m 1
 373 858 376 862 392 862 c 0
 407 862 420 849 420 831 c 0
 420 797 378 790 369 787 c 0
 246 751 230 745 215 741 c 1
 209 765 l 1
EndSplineSet
Refer: 80 73 S 1 0 0 1 0 -0 3
AlternateSubs2: "Stilistic set 01 subtable" Iacute.vn
AlternateSubs2: "Latin alternatives subtable" Iacute.vn
Substitution2: "Latin Vietnamese substitutions subtable" Iacute.vn
Substitution2: "LC caps to smallcaps subtable" Iacute.sc
EndChar

StartChar: Idieresis
Encoding: 207 207 214
Width: 361
Flags: HW
TeX: 891 0
ItalicCorrection: 99
HStem: 0 31<32 136.094 240.236 332> 652 31<141 233.859 336.739 441> 761 105<179.806 256.194 373.841 450.194>
VStem: 165 106<776.182 850.818> 359 106<775.419 851.562>
DStem2: 134.337 0 224.17 0 0.164359 0.986401<56.3976 630.044>
AnchorPoint: "below" 180 0 basechar 0
AnchorPoint: "above" 325 868 basechar 0
LayerCount: 2
Fore
SplineSet
165 807 m 0
 165 840 195 866 225 866 c 0
 249 866 271 847 271 820 c 0
 271 787 241 761 211 761 c 0
 187 761 165 780 165 807 c 0
359 807 m 0
 359 837 386 866 419 866 c 0
 443 866 465 847 465 820 c 0
 465 790 438 761 405 761 c 0
 377 761 359 782 359 807 c 0
EndSplineSet
Refer: 80 73 S 1 0 0 1 0 0 3
Substitution2: "LC caps to smallcaps subtable" Idieresis.sc
EndChar

StartChar: Eth
Encoding: 208 208 215
Width: 764
Flags: HW
TeX: 688 0
ItalicCorrection: 51
HStem: 0 31<39 137.85 234.793 461.831> 320 30<91.0066 190 282 466.815> 652 31<148 236.597 332.344 562.088>
VStem: 673 96<280.14 519.713>
DStem2: 136.837 0 223.68 0 0.164359 0.986401<87.0549 324.386 369.099 606.367>
LayerCount: 2
Fore
SplineSet
34 0 m 1
 39 31 l 1
 48 31 l 2
 127 31 142 33 150 79 c 2
 190 320 l 1
 114 320 l 1
 100 322 91 321 91 335 c 0
 91 345 98 349 112 350 c 1
 195 350 l 1
 228 550 239 606 239 626 c 0
 239 650 212 652 156 652 c 2
 143 652 l 1
 148 683 l 1
 500 683 l 2
 540 683 641 682 713 584 c 0
 752 531 769 465 769 400 c 0
 769 194 608 24 438 2 c 0
 421 0 403 0 385 0 c 2
 34 0 l 1
234 54 m 0
 234 31 250 31 304 31 c 2
 375 31 l 2
 476 31 547 83 586 133 c 0
 660 226 673 389 673 443 c 0
 673 537 633 652 474 652 c 2
 449 652 l 2
 432 652 416 653 399 653 c 0
 352 653 346 651 338 644 c 0
 330 637 328 645 282 350 c 1
 440 350 l 2
 462 350 463 348 467 341 c 0
 468 339 468 338 468 336 c 0
 468 327 459 319 443 319 c 0
 439 319 436 320 433 320 c 2
 277 320 l 1
 268 259 234 66 234 54 c 0
EndSplineSet
Substitution2: "LC caps to smallcaps subtable" Eth.sc
EndChar

StartChar: Ntilde
Encoding: 209 209 216
Width: 750
Flags: HW
TeX: 891 0
ItalicCorrection: 108
HStem: 0 31<38 114.51 199.565 267> 652 31<147 241.641 597 663.744 747.709 825> 807 46<517.336 661.867> 845 46<370.543 514.664>
DStem2: 135.338 0 163.838 0 0.164359 0.986401<91.2979 638.305> 610 151 577 29 0.456703 -0.889619<-577.242 0> 584.84 0 614.002 0 0.164359 0.986401<153.082 605.656>
LayerCount: 2
Fore
SplineSet
318 821 m 1
 318 822 l 1
 350 853 381 891 439 891 c 0xd0
 498 891 553 853 612 853 c 0xe0
 648 853 673 867 701 891 c 1xd0
 715 877 l 1
 715 876 l 1
 682 844 651 807 593 807 c 0xe0
 534 807 479 845 420 845 c 0xd0
 378 845 356 827 332 807 c 1xe0
 318 821 l 1
EndSplineSet
Refer: 85 78 S 1 0 0 1 0 -0 3
Substitution2: "LC caps to smallcaps subtable" Ntilde.sc
EndChar

StartChar: Ograve
Encoding: 210 210 217
Width: 777
Flags: HW
TeX: 856 0
ItalicCorrection: 51
HStem: -22 27<326.03 452.727> 680 25<436.989 563.82> 788 74<418.076 493.56>
VStem: 106 102<156.616 399.515> 686 97<292.204 525.063>
AnchorPoint: "below" 389 0 basechar 0
AnchorPoint: "above" 529 842 basechar 0
LayerCount: 2
Fore
SplineSet
412 820 m 0
 412 839 429 862 452 862 c 0
 467 862 473 855 604 765 c 1
 590 741 l 1
 576 745 561 751 447 788 c 0
 431 793 412 798 412 820 c 0
EndSplineSet
Refer: 86 79 S 1 0 0 1 -0 0 3
AlternateSubs2: "Stilistic set 01 subtable" Ograve.vn
AlternateSubs2: "Latin alternatives subtable" Ograve.vn
Substitution2: "Latin Vietnamese substitutions subtable" Ograve.vn
Substitution2: "LC caps to smallcaps subtable" Ograve.sc
EndChar

StartChar: Oacute
Encoding: 211 211 218
Width: 777
Flags: HW
TeX: 856 0
ItalicCorrection: 51
HStem: -22 27<326.03 452.727> 680 25<436.989 563.82> 787 75<561.337 632.11>
VStem: 106 102<156.616 399.515> 686 97<292.204 525.063>
AnchorPoint: "below" 389 0 basechar 0
AnchorPoint: "above" 529 842 basechar 0
LayerCount: 2
Fore
SplineSet
427 765 m 1
 596 860 595 862 611 862 c 0
 626 862 640 849 640 831 c 0
 640 798 603 792 588 787 c 0
 464 751 450 745 434 741 c 1
 427 765 l 1
EndSplineSet
Refer: 86 79 S 1 0 0 1 0 0 3
AlternateSubs2: "Stilistic set 01 subtable" Oacute.vn
AlternateSubs2: "Latin alternatives subtable" Oacute.vn
Substitution2: "Latin Vietnamese substitutions subtable" Oacute.vn
Substitution2: "LC caps to smallcaps subtable" Oacute.sc
EndChar

StartChar: Ocircumflex
Encoding: 212 212 219
Width: 777
Flags: HW
TeX: 891 0
ItalicCorrection: 51
HStem: -22 27<326.03 452.727> 680 25<436.989 563.82>
VStem: 106 102<156.616 399.515> 686 97<292.204 525.063>
AnchorPoint: "below" 389 0 basechar 0
AnchorPoint: "above" 535 882 basechar 0
LayerCount: 2
Fore
SplineSet
381 762 m 1
 538 902 l 1
 649 761 l 1
 629 744 l 1
 628 744 l 1
 530 849 l 1
 396 744 l 1
 381 762 l 1
EndSplineSet
Refer: 86 79 S 1 0 0 1 0 0 3
AlternateSubs2: "Stilistic set 01 subtable" Ocircumflex.vn
AlternateSubs2: "Latin alternatives subtable" Ocircumflex.vn
Substitution2: "Latin Vietnamese substitutions subtable" Ocircumflex.vn
Substitution2: "LC caps to smallcaps subtable" Ocircumflex.sc
EndChar

StartChar: Otilde
Encoding: 213 213 220
Width: 777
Flags: HW
TeX: 891 0
ItalicCorrection: 51
HStem: -22 27<326.03 452.727> 680 25<436.989 563.82> 807 46<531.122 675.128> 845 46<384.305 528.46>
VStem: 106 102<156.616 399.515> 686 97<292.204 525.063>
AnchorPoint: "below" 389 0 basechar 0
AnchorPoint: "above" 534 871 basechar 0
LayerCount: 2
Fore
SplineSet
331 821 m 1
 331 822 l 1
 363 853 395 891 453 891 c 0xdc
 512 891 566 853 625 853 c 0xec
 661 853 686 867 714 891 c 1xdc
 728 877 l 1
 728 876 l 1
 695 844 665 807 607 807 c 0xec
 548 807 493 845 434 845 c 0xdc
 392 845 370 827 346 807 c 1xec
 331 821 l 1
EndSplineSet
Refer: 86 79 S 1 0 0 1 0 0 3
AlternateSubs2: "Stilistic set 01 subtable" Otilde.vn
AlternateSubs2: "Latin alternatives subtable" Otilde.vn
Substitution2: "Latin Vietnamese substitutions subtable" Otilde.vn
Substitution2: "LC caps to smallcaps subtable" Otilde.sc
EndChar

StartChar: Odieresis
Encoding: 214 214 221
Width: 777
Flags: HW
TeX: 891 0
ItalicCorrection: 51
HStem: -22 27<326.03 452.727> 680 25<436.989 563.82> 761 105<388.247 465.286 582.841 659.159>
VStem: 106 102<156.616 399.515> 374 106<776.182 851.562> 568 106<776.415 850.769> 686 97<292.204 525.063>
AnchorPoint: "below" 389 0 basechar 0
AnchorPoint: "above" 529 846 basechar 0
LayerCount: 2
Fore
SplineSet
374 807 m 0
 374 837 400 866 433 866 c 0
 457 866 480 847 480 820 c 0
 480 787 450 761 420 761 c 0
 396 761 374 780 374 807 c 0
568 807 m 0
 568 836 595 866 628 866 c 0
 656 866 674 845 674 820 c 0
 674 785 641 761 614 761 c 0
 586 761 568 782 568 807 c 0
EndSplineSet
Refer: 86 79 S 1 0 0 1 0 0 3
Substitution2: "LC caps to smallcaps subtable" Odieresis.sc
EndChar

StartChar: OE
Encoding: 338 338 222
Width: 1014
Flags: HW
TeX: 688 0
ItalicCorrection: 58
HStem: -0 31<600.936 857.982> 340 30<652 828.093> 652 31<700.41 954.889> 683 22<458.911 572.348>
VStem: 120 101<155.761 399.977> 1010 24<458 588.918>
AnchorPoint: "above" 669 705 basechar 0
LayerCount: 2
Fore
SplineSet
120 274 m 0
 120 505 321 705 517 705 c 0
 576 705 606 683 679 683 c 2
 1043 683 l 1
 1034 458 l 1
 1008 458 l 1
 1009 475 1010 492 1010 509 c 0
 1010 637 956 652 843 652 c 2
 762 652 l 2
 713 652 700 652 693 614 c 2
 652 370 l 1
 744 370 l 2
 833 370 875 377 892 487 c 1
 918 487 l 1
 874 223 l 1
 849 223 l 1
 851 239 854 256 854 272 c 0
 854 335 806 340 743 340 c 2
 647 340 l 1
 604 84 600 68 600 54 c 0
 600 34 612 31 651 31 c 2
 729 31 l 2
 895 31 939 60 1002 258 c 1
 1028 258 l 1
 943 -0 l 1
 565 -0 l 2
 489 0 458 -22 396 -22 c 0
 251 -22 120 90 120 274 c 0
221 266 m 0
 221 114 294 1 404 1 c 0
 490 1 507 54 511 62 c 0
 536 118 546 198 585 430 c 0
 604 545 606 563 606 596 c 0
 606 640 599 683 517 683 c 0
 372 683 221 498 221 266 c 0
EndSplineSet
Substitution2: "LC caps to smallcaps subtable" OE.sc
EndChar

StartChar: Oslash
Encoding: 216 216 223
Width: 778
Flags: HW
TeX: 731 48
ItalicCorrection: 51
HStem: -22 23<321.187 460.064> 683 22<436.422 564.28>
VStem: 106 85<154.045 397.112> 699 84<288.93 527.376>
DStem2: 105 -42 124 -55 0.64603 0.763312<2.35151 128.961 180.923 842.822 894.651 1023.17>
LayerCount: 2
Fore
SplineSet
105 -42 m 1
 189 58 l 1
 142 105 106 178 106 274 c 0
 106 499 300 705 506 705 c 0
 599 705 652 665 684 641 c 1
 766 739 l 1
 785 725 l 1
 701 625 l 1
 760 562 783 482 783 405 c 0
 783 176 588 -22 384 -22 c 0
 311 -22 256 1 206 41 c 1
 124 -55 l 1
 105 -42 l 1
191 232 m 0
 191 150 216 108 222 96 c 1
 634 582 l 2
 644 594 650 600 650 607 c 0
 650 621 593 683 502 683 c 0
 414 683 333 630 281 557 c 0
 208 453 191 297 191 232 c 0
235 75 m 1
 251 55 297 1 389 1 c 0
 476 1 557 52 607 121 c 0
 682 224 699 383 699 448 c 0
 699 531 674 574 668 586 c 1
 235 75 l 1
EndSplineSet
Substitution2: "LC caps to smallcaps subtable" Oslash.sc
EndChar

StartChar: Ugrave
Encoding: 217 217 224
Width: 750
Flags: HW
TeX: 856 0
ItalicCorrection: 108
HStem: -22 31<325.321 459.81> 652 31<146 234.243 337.825 436 593 661.685 746.64 824> 788 74<404.076 479.56>
VStem: 170 86<94.5091 318.742>
DStem2: 131.178 -22 221.179 -22 0.164359 0.986401<215.436 652.475> 578.011 -22 609.679 -22 0.164359 0.986401<167.171 629.086>
AnchorPoint: "below" 390 0 basechar 0
AnchorPoint: "above" 518 864 basechar 0
LayerCount: 2
Fore
SplineSet
398 820 m 0
 398 839 415 862 438 862 c 0
 453 862 459 855 590 765 c 1
 576 741 l 1
 562 745 547 751 433 788 c 0
 417 793 398 798 398 820 c 0
EndSplineSet
Refer: 92 85 S 1 0 0 1 -0 0 3
AlternateSubs2: "Stilistic set 01 subtable" Ugrave.vn
AlternateSubs2: "Latin alternatives subtable" Ugrave.vn
Substitution2: "Latin Vietnamese substitutions subtable" Ugrave.vn
Substitution2: "LC caps to smallcaps subtable" Ugrave.sc
EndChar

StartChar: Uacute
Encoding: 218 218 225
Width: 750
Flags: HW
TeX: 856 0
ItalicCorrection: 108
HStem: -22 31<325.321 459.81> 652 31<146 234.243 337.825 436 593 661.685 746.64 824> 787 75<589.337 659.564>
VStem: 170 86<94.5091 318.742>
DStem2: 131.178 -22 221.179 -22 0.164359 0.986401<215.436 652.475> 578.011 -22 609.679 -22 0.164359 0.986401<167.171 629.086>
AnchorPoint: "below" 390 0 basechar 0
AnchorPoint: "above" 518 864 basechar 0
LayerCount: 2
Fore
SplineSet
455 765 m 1
 624 860 623 862 639 862 c 0
 654 862 667 849 667 831 c 0
 667 798 631 792 616 787 c 0
 492 751 477 745 461 741 c 1
 455 765 l 1
EndSplineSet
Refer: 92 85 S 1 0 0 1 0 0 3
AlternateSubs2: "Stilistic set 01 subtable" Uacute.vn
AlternateSubs2: "Latin alternatives subtable" Uacute.vn
Substitution2: "Latin Vietnamese substitutions subtable" Uacute.vn
Substitution2: "LC caps to smallcaps subtable" Uacute.sc
EndChar

StartChar: Ucircumflex
Encoding: 219 219 226
Width: 750
Flags: HW
TeX: 891 0
ItalicCorrection: 108
HStem: -22 31<325.321 459.81> 652 31<146 234.243 337.825 436 593 661.685 746.64 824>
VStem: 170 86<94.5091 318.742>
DStem2: 131.178 -22 221.179 -22 0.164359 0.986401<215.436 652.475> 578.011 -22 609.679 -22 0.164359 0.986401<167.171 629.086>
AnchorPoint: "below" 390 0 basechar 0
AnchorPoint: "above" 525 904 basechar 0
LayerCount: 2
Fore
SplineSet
382 762 m 1
 539 902 l 1
 649 762 l 1
 649 761 l 1
 629 744 l 1
 628 744 l 1
 531 849 l 1
 397 744 l 1
 396 744 l 1
 382 762 l 1
EndSplineSet
Refer: 92 85 S 1 0 0 1 0 0 3
Substitution2: "LC caps to smallcaps subtable" Ucircumflex.sc
EndChar

StartChar: Yacute
Encoding: 221 221 228
Width: 750
Flags: HW
TeX: 856 0
ItalicCorrection: 138
HStem: 0 31<233 331.453 432.214 520> 652 31<125 209.168 330.316 397 640 678.112 770.645 846> 787 75<589.337 659.564>
DStem2: 331 602 226 610 0.406414 -0.913689<-34.4184 314.184> 459 315 475 289 0.615482 0.788151<0 376.847>
AnchorPoint: "below" 374 0 basechar 0
AnchorPoint: "above" 518 864 basechar 0
LayerCount: 2
Fore
SplineSet
455 765 m 1
 624 860 623 862 639 862 c 0
 654 862 667 849 667 831 c 0
 667 798 631 792 616 787 c 0
 492 751 477 745 461 741 c 1
 455 765 l 1
EndSplineSet
Refer: 96 89 S 1 0 0 1 0 0 3
AlternateSubs2: "Stilistic set 01 subtable" Yacute.vn
AlternateSubs2: "Latin alternatives subtable" Yacute.vn
Substitution2: "Latin Vietnamese substitutions subtable" Yacute.vn
Substitution2: "LC caps to smallcaps subtable" Yacute.sc
EndChar

StartChar: Thorn
Encoding: 222 222 229
Width: 625
Flags: HW
TeX: 688 0
ItalicCorrection: 57
HStem: 0 31<40 139.752 236.757 325> 178 31<257 423.342> 521 31<314 480.499> 652 31<149 237.032 335.5 433>
VStem: 531 100<310.509 469.414>
DStem2: 137.337 -0 221.341 -0 0.164359 0.986401<76.6958 194.261 225.825 542.129 573.529 631.029>
LayerCount: 2
Fore
SplineSet
35 0 m 1
 40 31 l 1
 51 31 l 2
 150 31 144 40 153 94 c 2
 236 592 l 2
 238 604 240 615 240 623 c 0
 240 649 221 652 160 652 c 2
 144 652 l 1
 149 683 l 1
 199 681 248 680 298 680 c 0
 346 680 391 681 438 683 c 1
 433 652 l 1
 423 652 l 2
 320 652 329 644 314 552 c 1
 444 552 l 2
 582 552 631 460 631 392 c 0
 631 300 544 178 379 178 c 2
 251 178 l 1
 242 116 233 78 233 61 c 0
 233 34 254 31 319 31 c 2
 330 31 l 1
 325 -0 l 1
 276 2 226 3 177 3 c 2
 174 3 l 2
 158 3 115 3 35 0 c 1
257 209 m 1
 357 209 l 2
 473 209 531 317 531 398 c 0
 531 443 513 522 425 522 c 0
 419 522 411 521 405 521 c 2
 309 521 l 1
 257 209 l 1
EndSplineSet
Substitution2: "LC caps to smallcaps subtable" Thorn.sc
EndChar

StartChar: Germandbls
Encoding: 61699 61699 230
Width: 1111
Flags: HW
TeX: 688 0
ItalicCorrection: 58
HStem: -22 31<213.487 363.973 769.361 919.973> 677 28<303.777 435.49 859.6 991.412>
VStem: 54 60<87.4589 121.381> 138 71<458.583 570.305> 462 71<125.547 250.842> 524 62<556.725 598.607> 610 61<-9 205> 637 34<171.516 224.594> 694 71<457.669 570.305> 1018 71<125.346 250.523> 1080 62<556.725 598.607> 1080 27<457.137 555.325>
DStem2: 270 427 227 335 0.956736 -0.290956<-50.2459 216.73> 825 427 782 335 0.955713 -0.2943<-49.8329 219.848>
LayerCount: 2
Fore
SplineSet
54 -8 m 0
 54 -3 88 196 90 207 c 0
 93 221 98 227 104 227 c 0
 110 227 116 221 116 212 c 0
 116 202 114 189 114 171 c 0
 114 51 212 9 301 9 c 0
 393 9 462 98 462 179 c 0xf880
 462 225 440 265 405 283 c 0
 381 296 260 319 227 335 c 0
 158 369 138 435 138 481 c 0
 138 595 241 705 367 705 c 0
 455 705 495 661 514 635 c 1
 556 688 566 704 576 704 c 0
 580 704 586 701 586 690 c 0
 586 685 553 487 551 477 c 0
 550 469 548 457 537 457 c 1
 530 458 524 459 524 476 c 0xf480
 524 484 525 492 525 500 c 0
 525 605 469 677 367 677 c 0
 274 677 209 596 209 524 c 0
 209 466 248 437 270 427 c 0
 295 416 385 398 423 385 c 0
 488 364 533 302 533 221 c 0xf880
 533 97 428 -22 299 -22 c 0
 188 -22 141 31 126 48 c 1
 88 -2 75 -21 64 -21 c 0
 58 -21 54 -14 54 -8 c 0
610 -9 m 0xf2c0
 610 5 618 42 637 158 c 0xf180
 648 224 647 222 655 225 c 0
 657 226 659 226 661 226 c 0
 669 226 671 217 671 205 c 0
 671 194 669 182 669 171 c 0xf280
 669 51 768 9 857 9 c 0
 949 9 1018 97 1018 179 c 0xf2c0
 1018 225 996 264 961 282 c 0
 937 295 815 319 782 335 c 0
 713 369 694 434 694 481 c 0
 694 595 796 705 923 705 c 0
 1011 705 1051 661 1070 635 c 1
 1112 688 1121 704 1131 704 c 0
 1135 704 1142 701 1142 690 c 0xf0a0
 1142 685 1109 487 1107 477 c 0
 1106 469 1103 457 1092 457 c 1
 1086 458 1080 458 1080 476 c 2
 1080 500 l 2xf090
 1080 605 1025 677 923 677 c 0
 830 677 765 596 765 524 c 0
 765 466 803 437 825 427 c 0
 850 416 940 398 978 385 c 0
 1043 364 1089 302 1089 221 c 0
 1089 97 984 -22 855 -22 c 0
 744 -22 697 31 682 48 c 1
 651 7 632 -20 619 -20 c 0
 618 -20 617 -21 616 -20 c 0
 612 -18 610 -16 610 -9 c 0xf2c0
EndSplineSet
Substitution2: "LC caps to smallcaps subtable" Germandbls.sc
EndChar

StartChar: adieresis
Encoding: 228 228 235
Width: 500
Flags: HW
TeX: 663 0
HStem: -11 23<167.295 258.67> -5 33<391 460.902> 240 21<297.128 365> 424 23<230.102 333.145> 554 105<214.841 291.308 409.231 485.194>
VStem: 55 79<31.4692 146.28> 125 93<299.125 373.225> 200 106<569.052 644.369> 345 63<30.0198 73> 378 69<224.993 386.677> 394 106<569.182 643.468> 492 25<76.8784 145>
AnchorPoint: "below" 220 0 basechar 0
AnchorPoint: "above" 327 639 basechar 0
LayerCount: 2
Fore
SplineSet
394 600 m 0x3820
 394 632 424 659 454 659 c 0
 478 659 500 640 500 613 c 0
 500 580 470 554 440 554 c 0
 415 554 394 573 394 600 c 0x3820
EndSplineSet
Refer: 18 729 S 1 0 0 1 -2 -9 2
Refer: 104 97 S 1 0 0 1 0 -0 3
Substitution2: "LC small to smallcaps subtable" Adieresis.sc
EndChar

StartChar: aring
Encoding: 229 229 236
Width: 500
Flags: HW
TeX: 641 0
HStem: -11 23<167.295 258.67> -5 33<391 460.902> 240 21<297.128 365> 424 23<230.102 333.145> 500 22<263.188 354.335> 638 23<280.3 373.22>
VStem: 55 79<31.4692 146.28> 125 93<299.125 373.225> 221 25<536.752 608.888> 345 63<30.0198 73> 378 69<224.993 386.677> 389 26<550.462 624.376> 492 25<76.8784 145>
LayerCount: 2
Fore
SplineSet
221 570 m 0
 221 615 269 661 331 661 c 0
 378 661 415 633 415 591 c 0
 415 547 368 500 305 500 c 0
 258 500 221 528 221 570 c 0
246 568 m 0
 246 540 264 522 308 522 c 0
 380 522 389 571 389 592 c 0
 389 625 365 638 328 638 c 0x3c98
 259 638 246 594 246 568 c 0
EndSplineSet
Refer: 104 97 S 1 0 0 1 0 0 3
Substitution2: "LC small to smallcaps subtable" Aring.sc
EndChar

StartChar: ae
Encoding: 230 230 237
Width: 722
Flags: HW
TeX: 430 0
ItalicCorrection: 56
HStem: -11 23<168.233 265.191 503.048 588.6> 230 22<289.982 363 439 670.453> 424 23<231.858 334.962 551.319 634.593>
VStem: 58 79<30.0706 138.904> 126 92<299.125 373.982> 360 67<83.7242 228.028> 363 71<180.751 229 252 303.031> 674 65<252.518 385.908>
AnchorPoint: "below" 369 0 basechar 0
AnchorPoint: "above" 443 448 basechar 0
LayerCount: 2
Fore
SplineSet
58 79 m 0xf5
 58 147 142 248 368 250 c 1
 373 285 378 306 378 329 c 0
 378 380 348 424 292 424 c 0
 223 424 182 385 177 380 c 1
 213 376 218 354 218 341 c 0
 218 317 197 289 166 289 c 0
 139 289 126 306 126 329 c 0xe9
 126 380 191 447 295 447 c 0
 323 447 399 441 437 370 c 1
 480 413 531 447 599 447 c 0
 659 447 739 417 739 297 c 0
 739 234 729 230 713 230 c 2
 434 230 l 1xeb
 430 209 427 187 427 159 c 0
 427 50 495 15 544 15 c 0
 599 15 651 52 680 106 c 0
 684 114 691 127 697 129 c 0
 708 133 715 123 710 110 c 0
 696 71 633 -11 538 -11 c 0
 509 -11 430 -2 385 77 c 1
 384 77 l 1
 344 19 275 -11 202 -11 c 0
 121 -11 58 21 58 79 c 0xf5
137 78 m 0xf3
 137 37 169 12 210 12 c 0
 285 12 360 78 360 146 c 0xf5
 360 156 359 166 359 180 c 0
 359 196 361 213 363 229 c 1
 266 223 187 195 151 128 c 0
 143 113 137 95 137 78 c 0xf3
439 252 m 1
 669 252 l 1
 672 272 674 293 674 313 c 0xe1
 674 406 628 424 597 424 c 0
 565 424 479 404 439 252 c 1
EndSplineSet
Substitution2: "LC small to smallcaps subtable" AE.sc
EndChar

StartChar: ccedilla
Encoding: 231 231 238
Width: 444
Flags: HW
TeX: 430 170
ItalicCorrection: 60
HStem: -204 23<100 225.08> 294 91<378.993 425> 421 26<271.381 390.238>
VStem: 65 82<85.8544 277> 276 71<-156.912 -84.1556> 369 93<304.769 373.404>
AnchorPoint: "above" 324 448 basechar 0
LayerCount: 2
Fore
SplineSet
65 178 m 0
 65 316 185 447 324 447 c 0
 402 447 462 410 462 353 c 0
 462 320 441 294 409 294 c 0
 387 294 369 310 369 333 c 0
 369 349 379 384 425 385 c 1
 417 392 390 421 324 421 c 0
 210 421 147 275 147 156 c 0
 147 71 192 15 259 15 c 0
 291 15 359 28 402 106 c 0
 408 117 410 129 424 129 c 0
 430 129 438 121 430 106 c 1
 420 83 380 12 282 -8 c 1
 275 -54 l 1
 288 -57 347 -66 347 -116 c 0
 347 -186 258 -204 109 -204 c 2
 97 -204 l 1
 100 -181 l 1
 120 -181 l 2
 175 -181 276 -179 276 -118 c 1
 275 -98 261 -74 202 -71 c 1
 213 -8 l 1
 122 10 65 84 65 178 c 0
EndSplineSet
Substitution2: "LC small to smallcaps subtable" Ccedilla.sc
EndChar

StartChar: edieresis
Encoding: 235 235 242
Width: 444
Flags: HW
TeX: 663 0
ItalicCorrection: 56
HStem: -11 26<202.405 313.479> 230 22<154 391.204> 424 23<262.977 350.417> 554 105<187.635 263.617 381.231 457.194>
VStem: 60 80<89.3591 256.015> 172 106<568.481 644.194> 366 106<568.438 643.468> 395 65<252.567 381.076>
AnchorPoint: "below" 250 0 basechar 0
AnchorPoint: "above" 341 639 basechar 0
LayerCount: 2
Fore
SplineSet
172 599 m 0
 172 629 199 659 232 659 c 0
 260 659 278 637 278 613 c 0
 278 578 246 554 218 554 c 0
 195 554 172 571 172 599 c 0
366 600 m 0xfe
 366 632 396 659 426 659 c 0
 450 659 472 641 472 613 c 0
 472 583 445 554 412 554 c 0
 387 554 366 573 366 600 c 0xfe
EndSplineSet
Refer: 108 101 S 1 0 0 1 -0 -0 3
Substitution2: "LC small to smallcaps subtable" Edieresis.sc
EndChar

StartChar: igrave
Encoding: 236 236 243
Width: 277
Flags: HW
TeX: 641 0
ItalicCorrection: 30
HStem: 0 31<37 112.829 189.529 247> 421 20<107 247.676>
VStem: 32 219
AnchorPoint: "below" 144 0 basechar 0
AnchorPoint: "above" 248 628 basechar 0
LayerCount: 2
Fore
SplineSet
95 600 m 0
 95 623 117 642 136 642 c 0
 155 642 157 634 264 510 c 1
 246 490 l 1
 233 497 220 505 121 567 c 0
 104 578 95 587 95 600 c 0
EndSplineSet
Refer: 32 305 S 1 0 0 1 0 0 3
AlternateSubs2: "Stilistic set 01 subtable" igrave.vn
AlternateSubs2: "Latin alternatives subtable" igrave.vn
Substitution2: "Latin Vietnamese substitutions subtable" igrave.vn
Substitution2: "LC small to smallcaps subtable" Igrave.sc
Ligature2: "Latin ligatures excepting Turkic subtable" i gravecomb
EndChar

StartChar: icircumflex
Encoding: 238 238 245
Width: 277
Flags: HW
TeX: 641 0
ItalicCorrection: 30
HStem: 0 31<37 112.829 189.529 247> 421 20<107 247.676>
VStem: 32 219
AnchorPoint: "below" 144 0 basechar 0
AnchorPoint: "above" 249 636 basechar 0
LayerCount: 2
Fore
SplineSet
93 500 m 1
 252 650 l 1
 361 500 l 1
 340 483 l 1
 339 483 l 1
 242 596 l 1
 108 482 l 1
 93 500 l 1
EndSplineSet
Refer: 32 305 S 1 0 0 1 0 0 3
Substitution2: "LC small to smallcaps subtable" Icircumflex.sc
Ligature2: "Latin ligatures excepting Turkic subtable" i uni0302
EndChar

StartChar: eth
Encoding: 240 240 247
Width: 500
Flags: HW
TeX: 688 0
ItalicCorrection: 71
HStem: -11 26<202.114 306.365> 424 23<271.08 363.711> 672 21G<188 205 495.5 507>
VStem: 60 81<87.2513 274.072> 428 92<174.454 406.615>
LayerCount: 2
Fore
SplineSet
60 177 m 0
 60 318 190 447 320 447 c 0
 388 447 419 396 434 366 c 1
 421 475 370 538 335 579 c 1
 218 517 l 1
 202 511 l 1
 195 511 192 515 191 521 c 1
 192 525 l 1
 194 529 l 1
 232 555 276 574 317 597 c 1
 211 682 176 661 176 682 c 0
 176 688 182 693 194 693 c 0
 216 693 278 679 334 647 c 0
 353 636 359 628 369 628 c 0
 389 628 488 692 503 692 c 0
 511 692 516 683 512 676 c 0
 507 667 429 629 390 607 c 1
 462 546 520 446 520 323 c 0
 520 278 508 207 502 186 c 0
 472 76 365 -11 250 -11 c 0
 146 -11 60 64 60 177 c 0
141 150 m 0
 141 43 207 15 251 15 c 0
 363 15 428 148 428 270 c 0
 428 367 381 424 321 424 c 0
 271 424 222 388 195 350 c 0
 150 287 141 185 141 150 c 0
EndSplineSet
Substitution2: "LC small to smallcaps subtable" Eth.sc
EndChar

StartChar: odieresis
Encoding: 246 246 253
Width: 500
Flags: HW
TeX: 663 0
ItalicCorrection: 50
HStem: -11 26<200.246 310.272> 424 23<265.667 369.684> 554 105<215.841 292.308 410.231 486.194>
VStem: 60 80<86.3377 275.316> 201 106<569.052 644.369> 395 106<569.182 643.468> 433 78<157.847 346.492>
AnchorPoint: "below" 250 0 basechar 0
AnchorPoint: "above" 356 639 basechar 0
LayerCount: 2
Fore
SplineSet
395 600 m 0xfc
 395 632 425 659 455 659 c 0
 479 659 501 640 501 613 c 0
 501 580 471 554 441 554 c 0
 416 554 395 573 395 600 c 0xfc
EndSplineSet
Refer: 18 729 S 1 0 0 1 -1 -9 2
Refer: 118 111 S 1 0 0 1 -0 -0 3
Substitution2: "LC small to smallcaps subtable" Odieresis.sc
EndChar

StartChar: oe
Encoding: 339 339 254
Width: 778
Flags: HW
TeX: 430 0
ItalicCorrection: 56
HStem: -11 23<196.195 292.483 558.064 643.378> 230 22<494 725.453> 424 23<260.988 358.328 606.49 690.647>
VStem: 60 75<85.1957 278.15> 424 58<164.423 229.015> 729 65<252.74 385.908> 735 32<84.7522 128.501>
AnchorPoint: "below" 388 0 basechar 0
AnchorPoint: "above" 480 448 basechar 0
LayerCount: 2
Fore
SplineSet
60 179 m 0
 60 316 178 447 313 447 c 0
 408 447 451 385 472 347 c 1
 515 403 580 447 653 447 c 0
 713 447 794 417 794 297 c 0xfc
 794 235 783 230 767 230 c 2
 489 230 l 1
 485 209 482 187 482 159 c 0
 482 50 550 15 599 15 c 0
 654 15 706 52 735 106 c 0
 738 111 743 126 752 129 c 0
 759 131 767 127 767 119 c 0xfa
 767 92 696 -11 592 -11 c 0
 552 -11 474 4 432 92 c 1
 393 46 331 -11 240 -11 c 0
 132 -11 60 74 60 179 c 0
135 150 m 0
 135 57 184 12 241 12 c 0
 361 12 424 168 424 286 c 0
 424 392 359 424 313 424 c 0
 185 424 135 256 135 150 c 0
494 252 m 1
 724 252 l 1
 727 272 729 293 729 313 c 0xfc
 729 406 683 424 652 424 c 0
 620 424 534 404 494 252 c 1
EndSplineSet
Substitution2: "LC small to smallcaps subtable" OE.sc
EndChar

StartChar: oslash
Encoding: 248 248 255
Width: 500
Flags: HW
TeX: 533 97
ItalicCorrection: 1
HStem: -11 23<199.422 305.149> 424 23<266.721 370.838>
VStem: 66 67<83.8227 274.616> 437 66<153.047 350.461>
DStem2: 44 -92 62 -103 0.596087 0.80292<1.89746 150.048 188.003 594.506 634.286 778.409>
LayerCount: 2
Fore
SplineSet
44 -92 m 1
 133 28 l 1
 89 65 66 116 66 174 c 0
 66 310 187 447 323 447 c 0
 363 447 393 436 423 418 c 1
 508 533 l 1
 526 522 l 1
 439 405 l 1
 483 367 503 311 503 255 c 0
 503 114 382 -10 248 -11 c 0
 209 -11 184 -3 149 15 c 1
 62 -103 l 1
 44 -92 l 1
133 144 m 0
 133 93 149 69 156 59 c 1
 402 390 l 1
 402 391 l 1
 382 410 357 424 320 424 c 0
 277 424 234 402 205 371 c 0
 146 308 133 189 133 144 c 0
170 42 m 1
 191 25 215 12 252 12 c 0
 300 12 347 37 377 74 c 0
 428 137 437 252 437 286 c 0
 437 328 428 350 416 373 c 1
 415 373 l 1
 170 42 l 1
EndSplineSet
Substitution2: "LC small to smallcaps subtable" Oslash.sc
EndChar

StartChar: udieresis
Encoding: 252 252 259
Width: 555
Flags: HW
TeX: 663 0
HStem: -11 23<214.987 315.968> 0 31<474.172 534> 400 30<103 164.016 381 440.175> 421 20<103 249.644 381 526.685> 554 105<248.841 325.5 442.806 519.194>
VStem: 127 66<26.7111 212.463> 234 106<568.631 644.369> 428 106<569.182 643.468>
DStem2: 386.67 -11 455.004 -11 0.164359 0.986401<89.3067 380.98>
AnchorPoint: "below" 283 0 basechar 0
AnchorPoint: "above" 390 645 basechar 0
LayerCount: 2
Fore
SplineSet
234 600 m 0
 234 629 260 659 293 659 c 0
 317 659 340 640 340 613 c 0
 340 584 314 554 280 554 c 0
 252 554 234 575 234 600 c 0
428 600 m 0x0f
 428 632 458 659 488 659 c 0
 512 659 534 640 534 613 c 0
 534 580 504 554 474 554 c 0
 450 554 428 573 428 600 c 0x0f
EndSplineSet
Refer: 124 117 S 1 0 0 1 -0 0 3
Substitution2: "LC small to smallcaps subtable" Udieresis.sc
EndChar

StartChar: thorn
Encoding: 254 254 261
Width: 555
Flags: HW
TeX: 688 194
ItalicCorrection: 30
HStem: -195 31<0 75.3521 154.964 220> -11 23<246.595 341.401> 416 25<316.656 417.642> 663 31<143 204.668> 685 20G<143 286.636>
VStem: 478 83<154.656 345.81>
DStem2: 72.6702 -195 143.01 -195 0.164359 0.986401<69.2455 260.953 311.316 583.516 591.888 835.909>
LayerCount: 2
Fore
SplineSet
-5 -195 m 1
 0 -164 l 1
 4 -164 l 2
 78 -164 79 -155 87 -109 c 2
 207 611 l 2
 208 617 209 624 209 630 c 0
 209 664 177 663 138 663 c 1
 143 694 l 1xf4
 290 705 l 1xec
 235 378 l 1
 269 410 317 441 383 441 c 0
 490 441 561 357 561 254 c 0
 561 105 426 -11 300 -11 c 0
 230 -11 201 27 184 51 c 1
 163 -82 153 -122 153 -139 c 0
 153 -159 171 -164 217 -164 c 2
 225 -164 l 1
 220 -195 l 1
 187 -194 155 -192 111 -192 c 0
 72 -192 34 -193 -5 -195 c 1
192 98 m 0xe4
 192 76 222 12 294 12 c 0
 387 12 478 133 478 266 c 0
 478 337 448 416 373 416 c 0
 303 416 243 359 232 334 c 0
 226 320 192 99 192 98 c 0xe4
EndSplineSet
Substitution2: "LC small to smallcaps subtable" Thorn.sc
EndChar

StartChar: germandbls
Encoding: 223 223 262
Width: 500
Flags: HW
TeX: 688 0
ItalicCorrection: 60
HStem: -11 23<300.455 381.799> -0 21G<165 175.333> 3 28<32 105.253> 400 30<99 171> 682 23<325.945 421.483>
VStem: 229 49<24.1931 143.569> 279 55<282.312 381.262> 435 54<66.4926 176.896> 460 25<516.145 646.969>
DStem2: 102.837 -11 170.167 -11 0.164359 0.986401<43.7094 416.614 447.192 668.778>
LayerCount: 2
Fore
SplineSet
27 -0 m 1
 32 31 l 1
 37 31 l 2
 106 31 111 40 118 80 c 2
 171 400 l 1
 94 400 l 1
 99 430 l 1
 177 430 l 1
 181 461 200 570 204 585 c 0
 230 678 308 705 371 705 c 0
 443 705 485 665 485 596 c 0x3e80
 485 564 468 444 417 429 c 0
 412 427 334 427 334 331 c 0
 334 263 388 278 426 260 c 0
 466 242 489 201 489 153 c 0
 489 89 449 -11 337 -11 c 0
 303 -11 287 1 273 16 c 1
 265 8 250 -9 239 -9 c 0x9f
 235 -9 229 -7 229 3 c 0x3f
 229 10 228 4 250 139 c 0
 253 156 259 165 266 165 c 0
 269 165 272 163 275 160 c 0
 278 157 278 154 278 146 c 0
 278 138 277 125 277 106 c 0
 277 48 289 12 337 12 c 0
 411 12 435 81 435 121 c 0x9f
 435 158 416 176 406 183 c 0
 377 203 339 189 306 225 c 0
 288 245 279 273 279 300 c 0
 279 353 308 437 398 446 c 0
 412 448 420 450 430 469 c 0
 454 514 460 584 460 597 c 0
 460 665 412 682 373 682 c 0
 282 682 271 592 262 540 c 2
 172 -0 l 1x5e80
 158 2 142 3 125 3 c 0
 105 3 86 2 27 -0 c 1
EndSplineSet
Substitution2: "LC small to smallcaps subtable" Germandbls.sc
EndChar

StartChar: grave.uc
Encoding: 65542 -1 263
Width: 500
Flags: HW
TeX: 606 0
HStem: 535 74<196.277 270.626>
VStem: 190 192
LayerCount: 2
Fore
SplineSet
190 567 m 0
 190 588 210 609 230 609 c 2
 233 609 l 2
 244 609 247 606 382 512 c 1
 368 489 l 1
 354 493 338 498 224 535 c 0
 205 541 190 548 190 567 c 0
EndSplineSet
EndChar

StartChar: acute.uc
Encoding: 65543 -1 264
Width: 500
Flags: HW
TeX: 606 0
ItalicCorrection: 18
HStem: 534 75<422.585 491.872>
VStem: 288 212
LayerCount: 2
Fore
SplineSet
288 512 m 1
 450 603 457 609 473 609 c 0
 488 609 500 596 500 578 c 0
 500 544 459 537 449 534 c 0
 325 497 310 493 294 489 c 1
 288 512 l 1
EndSplineSet
EndChar

StartChar: tilde.uc
Encoding: 65544 -1 265
Width: 500
Flags: HW
TeX: 641 0
ItalicCorrection: 50
HStem: 554 47<347.46 494.195> 592 46<203.133 347.46>
LayerCount: 2
Fore
SplineSet
150 569 m 1
 150 570 l 1
 183 602 214 638 272 638 c 0x40
 331 638 385 601 444 601 c 0
 486 601 509 619 533 639 c 1
 547 624 l 1
 547 623 l 1
 515 592 484 554 426 554 c 0x80
 367 554 312 592 253 592 c 0x40
 217 592 192 578 164 554 c 1x80
 150 569 l 1
EndSplineSet
EndChar

StartChar: dieresis.var
Encoding: 62029 62029 266
Width: 500
Flags: HW
TeX: 641 0
HStem: 508 105<206.714 283.581 401.419 478.323>
VStem: 192 106<522.438 597.818> 387 106<522.438 598.581>
LayerCount: 2
Fore
SplineSet
192 554 m 0
 192 587 222 613 252 613 c 0
 277 613 298 595 298 567 c 0
 298 534 269 508 239 508 c 0
 215 508 192 527 192 554 c 0
387 554 m 0
 387 587 416 613 446 613 c 0
 474 613 493 592 493 567 c 0
 493 537 466 508 433 508 c 0
 408 508 387 527 387 554 c 0
EndSplineSet
EndChar

StartChar: ring.uc
Encoding: 65546 -1 268
Width: 750
Flags: HW
TeX: 641 0
HStem: 477 23<415.055 501.519> 638 23<437.264 522.854>
VStem: 372 25<516.322 599.699> 541 25<538.596 621.717>
LayerCount: 2
Fore
SplineSet
372 555 m 0
 372 607 422 661 484 661 c 0
 529 661 566 629 566 583 c 0
 566 530 515 477 454 477 c 0
 409 477 372 509 372 555 c 0
397 552 m 0
 397 510 428 500 457 500 c 0
 525 500 541 554 541 586 c 0
 541 626 512 638 482 638 c 0
 411 638 397 581 397 552 c 0
EndSplineSet
EndChar

StartChar: twelveudash
Encoding: 61700 61700 269
Width: 667
Flags: HW
TeX: 437 0
ItalicCorrection: 72
HStem: 255 22<46 708>
LayerCount: 2
Fore
SplineSet
42 255 m 1
 46 277 l 1
 712 277 l 1
 708 255 l 1
 42 255 l 1
EndSplineSet
EndChar

StartChar: threequartersemdash
Encoding: 63198 63198 270
Width: 750
Flags: HW
TeX: 437 0
ItalicCorrection: 72
HStem: 255 22<46 792>
LayerCount: 2
Fore
SplineSet
42 255 m 1
 46 277 l 1
 796 277 l 1
 792 255 l 1
 42 255 l 1
EndSplineSet
EndChar

StartChar: arrowleft
Encoding: 8592 8592 271
Width: 1000
Flags: HW
TeX: 366 -133
HStem: 0 21G<256.5 297> 230 40<207 983.761>
VStem: 257 40<0 101.878>
LayerCount: 2
Fore
SplineSet
97 250 m 1
 126 261 276 321 341 500 c 1
 381 500 l 1
 346 402 287 329 207 270 c 1
 954 270 l 2
 969 270 984 270 984 253 c 0
 984 232 963 230 950 230 c 2
 200 230 l 1
 269 162 296 82 297 0 c 1
 257 0 l 1
 256 116 194 194 129 233 c 0
 119 239 107 244 97 250 c 1
EndSplineSet
EndChar

StartChar: arrowright
Encoding: 8594 8594 272
Width: 1000
Flags: HW
TeX: 366 -133
HStem: -0 21G<701 747> 230 40<97.2502 874>
VStem: 784 40<398.491 500>
LayerCount: 2
Fore
SplineSet
97 247 m 0
 97 268 119 270 132 270 c 2
 881 270 l 1
 828 323 786 394 784 500 c 1
 824 500 l 1
 825 432 847 318 984 250 c 1
 806 177 753 35 741 -0 c 1
 701 -0 l 1
 727 79 782 160 874 230 c 1
 127 230 l 2
 113 230 97 231 97 247 c 0
EndSplineSet
EndChar

StartChar: uni0361.alt
Encoding: 61701 61701 273
Width: 278
Flags: HW
TeX: 688 0
ItalicCorrection: 353
HStem: 633 32<328.78 518.471>
VStem: 219 27<539.56 575.195> 577 26<539.012 587.663>
LayerCount: 2
Fore
SplineSet
219 551 m 0
 219 590 292 665 428 665 c 0
 533 665 603 616 603 560 c 0
 603 550 601 539 590 539 c 0
 577 539 579 555 577 565 c 0
 566 614 482 633 424 633 c 0
 359 633 270 609 246 557 c 0
 242 549 239 539 229 539 c 0
 223 539 219 544 219 551 c 0
EndSplineSet
EndChar

StartChar: uni0361
Encoding: 865 865 274
Width: 0
Flags: HW
TeX: 946 0
ItalicCorrection: 400
HStem: 606 33<7.76027 209.015>
VStem: -128 28<491.469 532.632>
AnchorPoint: "affricate-above" 82 448 mark 0
LayerCount: 2
Fore
SplineSet
-128 503 m 0
 -128 549 -42 639 113 639 c 0
 236 639 309 579 312 514 c 0
 312 502 310 491 299 491 c 0
 278 491 298 516 272 549 c 0
 239 590 172 606 110 606 c 0
 27 606 -74 574 -100 512 c 0
 -103 504 -107 491 -117 491 c 0
 -120 491 -128 493 -128 503 c 0
EndSplineSet
EndChar

StartChar: uni2040.alt
Encoding: 61702 61702 275
Width: 500
Flags: HW
TeX: 688 0
ItalicCorrection: 353
HStem: 633 32<282.18 425.33>
VStem: 191 27<539.105 578.998> 461 30<539.149 600.57>
LayerCount: 2
Fore
SplineSet
191 551 m 0
 191 586 252 665 358 665 c 0
 447 665 491 610 491 562 c 0
 491 551 489 539 478 539 c 0
 461 539 469 562 461 580 c 0
 447 613 406 633 355 633 c 0
 297 633 236 604 218 556 c 0
 215 548 212 539 203 539 c 0
 199 539 191 541 191 551 c 0
EndSplineSet
EndChar

StartChar: uni2040
Encoding: 8256 8256 276
Width: 500
Flags: HW
TeX: 688 0
ItalicCorrection: 400
HStem: 606 33<255.274 445.281>
VStem: 129 27<491.327 533.375>
LayerCount: 2
Fore
SplineSet
129 503 m 0
 129 551 213 639 355 639 c 0
 463 639 539 582 539 514 c 0
 539 498 534 491 526 491 c 0
 505 491 524 516 501 549 c 0
 472 589 411 606 352 606 c 0
 269 606 179 571 156 511 c 0
 153 504 150 491 140 491 c 0
 135 491 129 493 129 503 c 0
EndSplineSet
EndChar

StartChar: uni2422
Encoding: 9250 9250 277
Width: 555
Flags: HW
TeX: 688 0
ItalicCorrection: 21
HStem: -11 23<247.874 348.195> -0 21G<105 122.5> 418 23<320.795 420.03> 652 31<141 202.668> 674 20G<141 284.691>
VStem: 481 80<155.194 345.036>
DStem2: 103.167 -11 173.671 -11 0.164359 0.986401<59.7506 85.1287 87.0378 397.908 405.378 475.414> 107 440 122 415 0.808522 0.588466<0 68.6721 195.42 401.858>
LayerCount: 2
Fore
SplineSet
105 -0 m 1
 181 458 l 1
 122 415 l 1
 107 440 l 1
 186 498 181 493 185 499 c 0
 191 508 207 606 207 619 c 0
 207 653 175 652 136 652 c 1
 141 683 l 1x74
 288 694 l 1
 265 555 l 1
 433 677 l 1
 449 653 l 1
 258 515 l 1
 235 378 l 1
 269 410 317 441 381 441 c 0
 486 441 561 360 561 253 c 0
 561 107 426 -11 300 -11 c 0xac
 227 -11 193 33 178 63 c 1
 177 63 l 1
 133 0 130 0 115 -0 c 2x64
 105 -0 l 1
192 99 m 1
 192 77 223 12 295 12 c 0xa4
 316 12 375 19 424 83 c 0
 472 147 481 247 481 288 c 0
 481 385 423 418 376 418 c 0
 302 418 244 359 233 335 c 0
 227 321 192 99 192 99 c 1
EndSplineSet
EndChar

StartChar: quotesingle
Encoding: 39 39 278
Width: 278
Flags: HW
TeX: 688 0
ItalicCorrection: 50
HStem: 690 20G<248 267.5>
VStem: 185 111<590.625 623.706>
LayerCount: 2
Fore
SplineSet
185 347 m 1
 201 571 195 663 211 686 c 0
 221 701 239 710 257 710 c 0
 278 710 296 698 296 674 c 0
 296 657 208 347 208 347 c 1
 185 347 l 1
EndSplineSet
EndChar

StartChar: asteriskmath
Encoding: 8727 8727 279
Width: 500
Flags: HW
TeX: 465 -34
HStem: 129 61<431 456.8> 311 59<123.77 147>
VStem: 234 65<43.8824 154.901> 282 65<348.284 436.517>
LayerCount: 2
Fore
SplineSet
91 153 m 0
 91 178 99 176 267 250 c 1
 147 311 l 2
 128 321 122 328 122 339 c 0
 122 355 137 369 153 370 c 1
 154 370 l 2
 165 370 166 369 282 271 c 1
 282 272 293 429 295 437 c 0
 298 453 311 464 326 464 c 0
 341 464 347 457 347 442 c 0
 347 415 327 361 306 271 c 1
 446 363 453 369 467 370 c 0
 481 370 490 359 490 347 c 0
 490 322 481 323 314 250 c 1
 431 190 l 2
 442 184 459 178 459 161 c 0xd0
 459 145 443 129 427 129 c 0
 414 129 401 142 299 228 c 1xe0
 290 129 291 63 282 50 c 1xd0
 277 41 265 35 255 35 c 0
 240 35 234 41 234 57 c 0xe0
 234 82 250 133 275 229 c 1
 127 132 127 129 113 129 c 0
 104 129 91 138 91 153 c 0
EndSplineSet
EndChar

StartChar: fraction
Encoding: 8260 8260 281
Width: 500
Flags: HW
TeX: 749 249
ItalicCorrection: 97
DStem2: 518 721 555 706 0.467931 0.883765<-1074.18 28.2201>
LayerCount: 2
Fore
SplineSet
18 -230 m 0
 18 -224 21 -218 24 -212 c 2
 518 721 l 2
 522 728 529 749 545 749 c 0
 555 749 564 739 564 729 c 0
 564 720 558 711 555 706 c 2
 64 -221 l 2
 59 -230 53 -249 37 -249 c 0
 31 -249 18 -244 18 -230 c 0
EndSplineSet
EndChar

StartChar: zerooldstyle
Encoding: 63280 63280 282
Width: 500
Flags: HW
TeX: 437 0
ItalicCorrection: 39
HStem: -22 23<192.713 308.084> 430 23<260.893 377.412>
VStem: 67 78<50.3027 269.474> 426 76<167.935 378.638>
LayerCount: 2
Fore
SplineSet
67 145 m 0
 67 219 91 333 162 397 c 0
 209 440 275 453 325 453 c 0
 411 453 502 419 502 283 c 0
 502 209 480 97 410 34 c 0
 362 -9 299 -22 245 -22 c 0
 158 -22 67 11 67 145 c 0
145 105 m 0
 145 50 166 1 250 1 c 0
 296 1 340 20 366 57 c 0
 408 118 426 304 426 331 c 0
 426 358 424 430 320 430 c 0
 273 430 227 411 202 374 c 0
 164 318 145 141 145 105 c 0
EndSplineSet
EndChar

StartChar: oneoldstyle
Encoding: 63281 63281 283
Width: 500
Flags: HW
TeX: 437 0
HStem: 3 28<100 217.839 312.953 420> 379 31<158 281.311>
VStem: 95 330
DStem2: 220.17 -0 295.503 -0 0.164359 0.986401<76.5995 400.448>
LayerCount: 2
Fore
SplineSet
95 -0 m 1
 100 31 l 1
 110 31 l 2
 219 31 226 37 234 83 c 0
 276 333 280 364 286 395 c 1
 235 380 201 379 153 379 c 1
 158 410 l 1
 312 412 330 452 353 452 c 0
 364 452 367 445 367 437 c 0
 367 431 366 424 365 419 c 2
 308 75 l 2
 307 71 307 67 307 63 c 0
 307 33 333 31 409 31 c 2
 425 31 l 1
 420 -0 l 1
 373 1 326 3 263 3 c 0
 207 3 151 2 95 -0 c 1
EndSplineSet
EndChar

StartChar: twooldstyle
Encoding: 63282 63282 284
Width: 500
Flags: HW
TeX: 437 0
ItalicCorrection: 35
HStem: -0 73<164 412.516> 422 31<217.14 362.85>
VStem: 110 78<295.066 361.647> 411 91<264.789 385.478>
LayerCount: 2
Fore
SplineSet
44 -0 m 1
 47 19 46 25 64 37 c 0
 323 199 411 239 411 331 c 0
 411 386 363 422 292 422 c 0
 212 422 174 382 159 366 c 1
 175 361 188 353 188 332 c 0
 188 306 165 288 143 288 c 0
 125 288 110 301 110 322 c 0
 110 374 175 453 312 453 c 0
 390 453 502 429 502 331 c 0
 502 220 367 183 292 142 c 2
 164 73 l 1
 263 73 l 2
 372 73 403 73 413 79 c 0
 423 85 433 100 446 138 c 1
 472 138 l 1
 421 -0 l 1
 44 -0 l 1
EndSplineSet
EndChar

StartChar: threeoldstyle
Encoding: 63283 63283 285
Width: 500
Flags: HW
TeX: 437 194
ItalicCorrection: 35
HStem: -217 29<132.96 262.29> -118 111<68.2661 127.344> 427 26<244.447 360.902>
VStem: 29 114<-99.5012 -25.1219> 122 102<279.578 361.158> 354 100<-87.7301 70.9476> 393 91<261.061 394.039>
LayerCount: 2
Fore
SplineSet
29 -83 m 0
 29 -21 73 -7 94 -7 c 0
 123 -7 143 -28 143 -55 c 0
 143 -88 118 -118 76 -118 c 2
 68 -118 l 1
 95 -169 154 -188 207 -188 c 0
 315 -188 354 -58 354 23 c 0
 354 73 334 131 257 131 c 0xf4
 243 131 229 131 215 131 c 0
 207 131 191 132 191 142 c 0
 191 176 283 121 351 220 c 0
 381 263 393 318 393 350 c 0
 393 397 364 427 313 427 c 0
 229 427 183 378 173 368 c 1
 217 367 224 341 224 324 c 0
 224 293 198 266 166 266 c 0
 141 266 122 283 122 309 c 0
 122 372 198 453 319 453 c 0
 408 453 484 405 484 334 c 0xea
 484 296 459 197 316 146 c 1
 422 120 454 52 454 -5 c 0
 454 -111 345 -217 208 -217 c 0
 125 -217 29 -174 29 -83 c 0
EndSplineSet
EndChar

StartChar: fouroldstyle
Encoding: 63284 63284 286
Width: 500
Flags: HW
TeX: 437 194
HStem: -195 31<169 261.348 354.048 436> -0 31<62 293 376 471>
DStem2: 45 45 62 31 0.666309 0.745676<0.887797 447.092> 260.337 -195 338.508 -195 0.164359 0.986401<75.5291 197.717 241.937 567.614>
LayerCount: 2
Fore
SplineSet
27 -0 m 1
 31 23 29 26 45 45 c 2
 406 449 l 2
 411 454 418 463 431 463 c 0
 442 463 445 457 445 449 c 0
 445 443 444 437 443 432 c 2
 395 145 l 2
 389 107 383 69 376 31 c 1
 476 31 l 1
 471 -0 l 1
 371 -0 l 1
 359 -81 350 -121 350 -134 c 0
 350 -163 379 -164 426 -164 c 2
 441 -164 l 1
 436 -195 l 1
 389 -193 343 -192 296 -192 c 0
 270 -192 243 -192 164 -195 c 1
 169 -164 l 1
 174 -164 l 2
 264 -164 267 -158 275 -107 c 0
 281 -71 286 -35 293 -0 c 1
 27 -0 l 1
62 31 m 1
 304 31 l 1
 359 364 l 1
 62 31 l 1
EndSplineSet
EndChar

StartChar: fiveoldstyle
Encoding: 63285 63285 287
Width: 500
Flags: HW
TeX: 437 194
ItalicCorrection: 16
HStem: -217 29<134.878 253.615> -84 98<68.1897 129.236> 191 23<229.308 327.475> 338 83<209.89 378.227>
VStem: 41 101<-70.6563 0.894321> 368 84<-53.3211 129.825>
DStem2: 64.1816 -217 95.3493 -217 0.164359 0.986401<392.389 581.941>
LayerCount: 2
Fore
SplineSet
41 -63 m 0
 41 2 76 14 99 14 c 0
 125 14 142 -3 142 -28 c 0
 142 -57 117 -84 86 -84 c 0
 79 -84 72 -82 68 -81 c 1
 82 -152 136 -188 193 -188 c 0
 243 -188 295 -161 327 -104 c 0
 359 -47 368 59 368 84 c 0
 368 136 348 191 290 191 c 0
 190 191 154 115 134 115 c 0
 125 115 123 124 123 131 c 0
 123 136 124 140 124 142 c 2
 168 407 l 2
 174 441 175 451 186 451 c 0
 199 451 240 421 324 421 c 0
 410 421 458 451 472 451 c 0
 480 451 482 445 482 441 c 0
 482 422 389 338 276 338 c 0
 247 338 218 343 190 352 c 1
 159 165 l 1
 197 195 236 214 292 214 c 0
 388 214 452 137 452 38 c 0
 452 -110 317 -217 197 -217 c 0
 100 -217 41 -145 41 -63 c 0
EndSplineSet
EndChar

StartChar: sevenoldstyle
Encoding: 63287 63287 289
Width: 500
Flags: HW
TeX: 437 194
ItalicCorrection: 71
HStem: 353 77<194.249 466>
VStem: 98 25<255 276.731> 147 88<-209.167 -83.5371> 165 26<441.773 463>
LayerCount: 2
Fore
SplineSet
98 255 m 1
 165 463 l 1
 191 463 l 1
 193 437 207 430 352 430 c 2xd0
 557 430 l 1
 553 405 554 406 533 383 c 0
 403 239 385 221 370 202 c 0
 256 65 252 -150 235 -186 c 0
 227 -204 208 -216 188 -216 c 0
 169 -216 147 -204 147 -176 c 0xe0
 147 -157 160 -102 179 -52 c 0
 242 119 352 226 466 353 c 1
 345 353 l 2
 211 353 174 352 164 345 c 0
 150 335 137 300 123 255 c 1
 98 255 l 1
EndSplineSet
EndChar

StartChar: nineoldstyle
Encoding: 63289 63289 291
Width: 500
Flags: HW
TeX: 437 194
ItalicCorrection: 16
HStem: -217 28<104.287 227.652> -154 91<80.7418 130.927> 16 23<204.365 296.993> 427 26<268.986 369.2>
VStem: 47 94<-143.644 -74.1416> 77 83<104.841 290.829> 411 78<172.776 357.763>
LayerCount: 2
Fore
SplineSet
47 -126 m 0
 47 -76 81 -63 101 -63 c 0
 124 -63 141 -78 141 -102 c 0xfa
 141 -122 127 -154 84 -154 c 2
 80 -154 l 1
 88 -164 106 -189 172 -189 c 0
 249 -189 359 -112 385 110 c 1
 361 67 317 16 243 16 c 0
 133 16 77 112 77 190 c 0
 77 342 202 453 327 453 c 0
 392 453 489 415 489 236 c 0
 489 -22 336 -217 172 -217 c 0
 108 -217 47 -193 47 -126 c 0
160 143 m 0
 160 87 187 39 248 39 c 0
 346 39 411 155 411 316 c 0xf6
 411 406 359 427 325 427 c 0
 288 427 259 414 232 387 c 0
 192 347 183 305 173 247 c 0
 162 185 160 164 160 143 c 0
EndSplineSet
EndChar

StartChar: angleleft
Encoding: 9001 9001 292
Width: 389
Flags: HW
TeX: 749 249
VStem: 153 42<192.357 284.156>
DStem2: 199 220 157 224 0.207568 -0.978221<-22.0764 456.201> 160 270 201 262 0.478716 0.87797<-7.62193 542.822>
LayerCount: 2
Fore
SplineSet
153 248 m 0
 153 257 157 264 160 270 c 2
 407 723 l 2
 410 729 419 749 434 749 c 0
 444 749 453 740 453 729 c 0
 453 719 435 690 425 671 c 2
 201 262 l 2
 196 252 195 247 195 242 c 0
 195 236 197 231 199 220 c 2
 289 -206 l 2
 290 -210 292 -219 292 -227 c 0
 292 -238 289 -249 274 -249 c 0
 256 -249 252 -226 251 -219 c 2
 157 224 l 2
 155 232 153 240 153 248 c 0
EndSplineSet
EndChar

StartChar: minus
Encoding: 8722 8722 293
Width: 778
Flags: HW
TeX: 583 83
ItalicCorrection: 13
HStem: 238 23<99.029 760.988>
LayerCount: 2
Fore
SplineSet
99 249 m 0
 99 259 109 261 119 261 c 2
 732 261 l 2
 745 261 761 262 761 250 c 0
 761 239 746 238 735 238 c 2
 733 238 l 2
 727 238 722 239 716 239 c 2
 153 239 l 2
 145 239 138 238 130 238 c 2
 125 238 l 2
 115 238 99 239 99 249 c 0
EndSplineSet
EndChar

StartChar: angleright
Encoding: 9002 9002 294
Width: 389
Flags: HW
TeX: 749 249
VStem: 276 42<217.047 295.643>
DStem2: 25 -209 62 -226 0.479257 0.877675<-20.5781 529.961> 317 263 180 715 0.207628 -0.978208<-481.632 -3.89787>
LayerCount: 2
Fore
SplineSet
18 -229 m 0
 18 -221 23 -214 25 -209 c 2
 269 238 l 2
 274 248 276 253 276 258 c 0
 276 264 274 271 272 282 c 2
 180 715 l 2
 179 719 178 723 178 726 c 0
 178 743 188 749 197 749 c 0
 215 749 219 727 220 720 c 2
 317 263 l 2
 318 259 318 256 318 252 c 0
 318 244 314 236 311 230 c 2
 62 -226 l 2
 58 -233 50 -249 37 -249 c 0
 27 -249 18 -239 18 -229 c 0
EndSplineSet
EndChar

StartChar: uni2127
Encoding: 8487 8487 295
Width: 722
Flags: HW
TeX: 688 0
ItalicCorrection: 94
HStem: -22 23<296.759 422.754> 618 65<190 335 590.209 731.267>
VStem: 90 101<107.614 291.565> 565 25<559.737 617.798> 605 101<170.784 369.82> 738 25<521 607.287>
LayerCount: 2
Fore
SplineSet
90 196 m 0
 90 359 274 475 335 618 c 1
 268 618 l 2
 185 618 192 615 156 521 c 1
 130 521 l 1
 190 683 l 1
 355 683 l 1
 368 682 372 678 372 667 c 0
 372 659 370 649 366 635 c 0
 324 474 191 336 191 177 c 0
 191 60 270 1 358 1 c 0
 468 1 605 98 605 291 c 0
 605 398 565 499 565 608 c 0
 565 681 574 682 591 683 c 1
 757 683 l 1
 763 521 l 1
 738 521 l 1
 734 611 735 615 689 618 c 1
 590 618 l 1
 602 488 706 399 706 265 c 0
 706 100 533 -22 359 -22 c 0
 212 -22 90 65 90 196 c 0
EndSplineSet
EndChar

StartChar: circle
Encoding: 9675 9675 296
Width: 1111
Flags: HW
TeX: 749 249
HStem: -272 40<389.391 642.527> 732 40<552.136 806.978>
VStem: 90 40<36.6224 299.03> 1064 39<202.294 465.313>
LayerCount: 2
Fore
SplineSet
90 164 m 0
 90 486 376 772 681 772 c 0
 915 772 1103 598 1103 336 c 0
 1103 15 819 -272 513 -272 c 0
 279 -272 90 -98 90 164 c 0
130 164 m 0
 130 -57 283 -232 512 -232 c 0
 802 -232 1064 44 1064 336 c 0
 1064 567 901 732 681 732 c 0
 397 732 130 463 130 164 c 0
EndSplineSet
EndChar

